<svg width="135" height="135" viewBox="0 0 135 135" fill="none" xmlns="http://www.w3.org/2000/svg">
<g clip-path="url(#clip0_368_2916)">
<path d="M4.18775 134.507C2.46594 134.486 12.4488 104.313 19.9854 90.4748C20.6054 89.3373 21.295 88.1393 22.4399 87.555C23.2678 87.1319 24.2276 87.087 25.1554 87.0513C39.1542 86.5063 95.8375 86.5063 109.836 87.0513C110.763 87.0879 111.723 87.1319 112.552 87.555C113.697 88.1393 114.388 89.3373 115.006 90.4748C122.544 104.313 132.526 134.486 130.804 134.507C120.814 134.507 109.298 134.747 99.3086 134.867C88.8102 134.994 14.1788 134.507 4.18775 134.507Z" fill="#ABD276"/>
<path d="M90.5081 128.478C79.6433 128.478 56.8046 128.38 39.298 128.307C27.6465 128.257 17.5849 128.214 14.4609 128.214H14.4435C13.6934 128.207 13.0093 127.771 12.6567 127.076C12.3352 126.442 12.0934 125.5 12.9388 121.632C13.4599 119.247 14.2942 116.261 15.287 113.223C16.4712 109.6 19.6657 100.544 23.7193 94.7271C24.2908 93.9083 25.1526 92.671 26.7288 92.0409C27.7766 91.6232 28.8765 91.5893 29.7603 91.5619C42.0712 91.1882 92.719 91.1882 105.03 91.5619C105.914 91.5893 107.014 91.6223 108.061 92.0409C109.639 92.6701 110.535 93.9587 111.071 94.7271C115.129 100.55 118.39 109.6 119.603 113.22C120.622 116.263 121.483 119.248 122.025 121.628C122.907 125.503 122.668 126.446 122.348 127.08C121.997 127.773 121.314 128.208 120.564 128.214C114.881 128.214 109.946 128.282 104.722 128.354C101.83 128.394 98.8388 128.434 95.6479 128.464C94.5892 128.474 92.8189 128.478 90.5081 128.478ZM16.1589 124.48C20.4277 124.49 29.2822 124.527 39.3136 124.57C60.534 124.661 89.595 124.785 95.6159 124.728C98.7994 124.698 101.786 124.656 104.675 124.617C109.378 124.552 113.849 124.491 118.834 124.48C118.053 119.789 113.574 104.798 108.059 96.883C107.606 96.2346 107.221 95.7226 106.71 95.5184C106.261 95.3398 105.549 95.3178 104.921 95.2986C92.6476 94.9258 42.1473 94.9258 29.8729 95.2986C29.2447 95.3178 28.5331 95.3398 28.0852 95.5184C27.5742 95.7226 27.1886 96.2346 26.7361 96.883C24.1919 100.534 21.3885 106.64 19.0448 113.635C17.3275 118.76 16.4474 122.576 16.1589 124.48Z" fill="#FFED3B"/>
<path d="M79.7679 95.142C80.3083 96.0194 80.6141 96.5597 80.9228 96.6925C91.37 101.203 94.6524 100.638 100.379 105.149C103.334 107.476 105.982 110.763 105.097 114.446C104.499 116.94 101.321 117.873 98.9478 118.773C96.5739 119.673 95.4593 119.977 92.9407 119.689C84.4488 118.718 75.6218 116.107 66.6309 113.332L60.3719 115.152C53.4645 117.184 46.5956 118.943 40.0765 119.689C37.5588 119.976 36.4433 119.672 34.0694 118.773C31.6955 117.874 28.5184 116.94 27.9203 114.446C27.0365 110.762 29.6843 107.476 32.6379 105.149C38.3639 100.638 41.6454 101.203 52.0935 96.6925C52.4021 96.5597 52.708 96.0194 53.2484 95.142C53.2484 95.142 59.3406 96.7557 66.5347 96.491C73.3065 96.491 77.6449 95.7025 78.7055 95.4231C79.0598 95.3299 79.4139 95.2361 79.7679 95.142Z" fill="#7ACDF3"/>
<path d="M79.6644 79.7153C79.9602 81.5928 80.4933 84.0345 80.79 85.912C80.9384 86.8462 81.0922 87.8005 81.541 88.6302C81.9366 89.3629 82.5402 89.9546 83.1346 90.5343C86.5901 93.9065 90.0639 97.2943 93.9939 100.085L93.9426 100.048C95.234 101.423 98.4459 103.903 100.21 104.541C103.993 105.911 107.179 105.675 108.207 105.82C108.887 105.917 109.87 105.554 109.598 104.858C109.517 104.667 109.363 104.516 109.171 104.437C108.26 104.039 104.487 103.395 104.487 103.395C104.487 103.395 108.246 104.13 109.237 104.101C109.884 104.083 111.201 104.366 110.877 103.077C110.829 102.886 110.58 102.822 110.388 102.793L105.24 101.853C105.24 101.853 110.067 102.583 111.465 102.256C111.953 102.143 112.512 101.929 112.364 101.168C111.996 100.495 110.006 100.894 109.391 100.857C107.899 100.768 107.829 101.025 106.483 100.363C107.629 99.692 108.201 98.2889 108.239 96.949C108.277 95.6091 107.868 94.3022 107.463 93.0245C107.37 92.7296 107.196 92.3743 106.89 92.3898C106.733 92.3981 106.6 92.5107 106.5 92.6353C105.87 93.4193 106.172 94.565 106.403 95.5486C106.643 96.5753 106.624 97.9326 105.603 98.3173C105.208 98.4656 104.76 98.3969 104.401 98.1716C103.696 97.7284 103.43 96.8995 103.411 96.1036C103.395 95.4781 103.562 94.7811 104.081 94.4414C104.817 93.9596 105.873 94.1849 106.178 93.3286C106.388 92.737 106.268 92.2314 105.605 92.1133C103.745 91.7817 102.147 92.8991 100.852 94.1419C99.7354 95.2134 98.6867 96.4288 97.28 97.0598C94.8988 94.3461 90.4623 90.5993 88.3009 87.7025C87.5344 86.674 86.7705 85.6153 86.3419 84.4017C85.9362 83.2496 85.8501 82.0095 85.7933 80.7869C85.6065 76.7772 85.351 71.4012 84.1274 67.582C82.8681 63.653 83.62 58.7981 71.1442 58.113C67.2399 57.8987 61.612 58.2577 57.715 58.5709C50.7224 59.1314 49.9732 63.7208 48.8898 67.583C47.8063 71.4442 47.4098 76.7772 47.2238 80.7878C47.1671 82.0104 47.0819 83.2496 46.6753 84.4027C46.2475 85.6171 45.4846 86.6758 44.7162 87.7034C42.5557 90.5993 38.1184 94.347 35.7372 97.0607C34.3304 96.4288 33.2827 95.2143 32.1653 94.1428C30.8703 92.9 29.2657 91.7478 27.412 92.1142C26.8021 92.2341 26.6207 92.6985 26.8314 93.291C27.1355 94.1483 28.2015 93.9605 28.9369 94.4423C29.4553 94.7811 29.6229 95.4781 29.6074 96.1045C29.5872 96.8995 29.3234 97.7293 28.6173 98.1726C28.2583 98.3979 27.8104 98.4675 27.4148 98.3182C26.3936 97.9344 26.3744 96.5781 26.6152 95.5495C26.8451 94.5668 27.1464 93.4193 26.5182 92.6362C26.4193 92.5126 26.2855 92.399 26.128 92.3908C25.823 92.3752 25.649 92.7296 25.5547 93.0254C25.1508 94.3022 24.7405 95.6091 24.779 96.9499C24.8165 98.2898 25.388 99.6938 26.5346 100.364C25.1902 101.025 25.1187 100.769 23.6268 100.858C23.0123 100.894 21.0221 100.496 20.6539 101.169C20.5056 101.931 21.0642 102.144 21.5533 102.257C22.9509 102.584 27.7784 101.854 27.7784 101.854L22.6294 102.794C22.4371 102.822 22.188 102.886 22.1404 103.078C21.8162 104.366 23.1332 104.083 23.7798 104.102C24.7725 104.131 28.5303 103.396 28.5303 103.396C28.5303 103.396 24.757 104.039 23.8466 104.438C23.6546 104.517 23.5011 104.668 23.4189 104.859C23.146 105.555 24.1296 105.917 24.8101 105.821C25.8386 105.675 29.0249 105.912 32.8074 104.542C34.5713 103.904 37.7832 101.424 39.0746 100.049L39.0233 100.086C42.9532 97.2952 46.4271 93.9083 49.8826 90.5352C50.4761 89.9564 51.0796 89.3638 51.4762 88.6312C51.9249 87.8023 52.0788 86.8471 52.2272 85.9129C52.523 84.0354 53.0139 81.8612 53.3097 79.9837C54.7156 84.7946 53.9865 89.7888 53.2493 94.75C58.4495 95.9333 62.3987 96.492 68.1603 96.492C69.2227 96.492 71.1698 96.2996 72.2185 96.1247L80.0198 94.815C78.1523 90.0416 77.9408 84.5428 79.6644 79.7153Z" fill="white"/>
<path d="M83.6154 40.1401C83.9442 39.2728 84.872 38.6784 85.7869 38.7526C86.7019 38.8268 87.5252 39.5604 87.7148 40.4698C87.8613 41.1732 87.6553 41.904 87.3787 42.5662C86.5068 44.6525 84.2547 47.1299 82.0182 47.1299L81.9293 47.553C80.9457 51.9482 78.2421 55.8736 74.3176 58.0057C71.1643 59.7175 67.2747 60.2816 63.702 60.0948C61.4673 59.9785 59.2161 59.5682 57.2049 58.5736C53.0606 56.5229 50.3817 52.1516 49.3633 47.597C48.3458 43.0406 48.7881 38.2837 49.53 33.6742C49.8139 31.9066 51.0567 30.5941 52.1759 29.2075C52.7699 28.4711 53.3049 27.689 53.7759 26.8684C54.2457 26.0487 54.6634 25.1732 55.3429 24.5202C56.2359 23.6611 57.475 23.2856 58.6821 23.0356C60.9535 22.5639 63.2788 22.4329 65.5941 22.3029C67.2912 22.2076 69.0029 22.1133 70.6826 22.3688C75.3242 23.074 79.2184 26.3803 82.0209 30.1939C82.3708 30.6711 82.7096 31.1592 82.9862 31.6831C84.2986 34.1715 84.0889 37.181 83.6411 39.9643C83.6227 40.0742 83.5751 40.2463 83.6154 40.1401Z" fill="white"/>
<path d="M48.8825 38.912C48.4841 37.6105 47.0819 37.398 46.2503 37.9604C45.4196 38.5236 45.0762 39.5988 45.0102 40.609C44.926 41.8867 45.209 43.2119 45.9398 44.2587C46.6698 45.3046 47.6497 46.0263 48.9145 46.0391C49.3294 45.7827 49.475 45.0867 49.3816 44.6031C49.1939 43.6237 49.1021 42.6283 49.1078 41.6311C49.1133 40.6374 49.2076 39.6034 48.8248 38.6894C48.8074 38.6482 48.7799 38.6006 48.735 38.6033C48.6911 38.6079 48.844 38.933 48.8825 38.912Z" fill="white"/>
<path d="M59.4908 111.873L59.9817 115.267C67.6383 113.025 75.3489 110.43 82.6877 108.493C84.1567 108.106 86.254 107.431 87.1662 106.201C87.6479 105.552 87.7157 104.439 86.9986 104.076C86.7376 103.945 86.4335 103.947 86.1441 103.967C84.3508 104.096 82.8031 103.723 80.8477 103.628C77.8593 103.483 75.4936 103.493 72.5409 103.003C71.1012 102.764 69.0469 101.49 68.0568 102.576C66.6162 104.158 67.3782 106.682 68.218 108.658C65.4732 108.583 62.4234 108.224 59.26 107.898" fill="white"/>
<path d="M64.5418 108.658L64.5848 108.555C65.6564 106.517 66.1189 104.13 64.703 102.575C63.7138 101.49 61.6587 102.764 60.2189 103.002C57.2662 103.492 54.9006 103.482 51.9121 103.627C49.9568 103.724 48.4099 104.096 46.6157 103.966C46.3263 103.945 46.0213 103.944 45.7612 104.075C45.0441 104.436 45.1128 105.55 45.5936 106.2C45.9801 106.721 46.5782 107.142 47.2522 107.483C47.2522 107.483 50.5393 107.287 51.119 107.287C51.6987 107.287 55.5719 107.527 55.9153 107.581C56.2579 107.635 60.7959 108.057 60.7959 108.057" fill="white"/>
<path d="M64.6013 108.658L64.6444 108.555C65.7159 106.517 66.1793 104.13 64.7625 102.575C63.7734 101.49 61.7182 102.764 60.2785 103.002C57.3257 103.492 54.9601 103.482 51.9716 103.627C50.0163 103.724 48.4685 104.096 46.6752 103.966C46.3858 103.945 46.0809 103.944 45.8208 104.075C45.1036 104.436 45.1723 105.55 45.6532 106.2C46.0396 106.721 46.6377 107.142 47.3118 107.483C47.3118 107.483 50.5988 107.287 51.1785 107.287C51.7583 107.287 55.6314 107.527 55.9749 107.581C56.3174 107.635 60.8555 108.057 60.8555 108.057" fill="white"/>
<path d="M73.5905 111.043L73.0886 115.267L66.6309 113.332L73.5905 111.043Z" fill="white"/>
<path d="M87.2523 25.6073C86.2604 22.2031 83.3993 12.462 68.97 11.5911L68.4525 11.744C50.3085 11.9904 46.9592 25.5277 46.7238 30.0584C46.548 32.8005 46.8007 34.9198 47.6726 37.6692C48.5235 38.1903 48.6031 38.2782 48.9502 38.7425C48.9539 37.7021 49.258 35.6012 49.4091 34.6056C49.4073 34.5479 49.6362 33.5606 49.6829 33.5185C51.3837 31.9826 51.3434 30.9477 51.728 30.7581C53.9334 29.6701 55.7276 26.1669 55.919 25.8436C58.324 25.3344 58.7288 24.5001 59.3681 24.37C59.3681 24.37 62.2659 24.37 64.2432 23.2737C64.431 23.1693 66.3323 23.6639 66.9743 23.4157C67.5037 23.2105 67.7629 23.4532 68.4836 23.2737C68.4836 23.2737 70.4252 23.8819 71.342 24.1062C72.5015 24.3911 75.2985 26.0863 75.2985 26.0863C76.262 26.9527 78.7797 27.5444 78.7797 27.5444C79.1222 28.0563 79.8943 30.7261 82.0191 32.2592C82.3415 32.4918 82.0191 34.5507 83.4048 36.5646C83.4048 36.5646 83.6127 37.987 83.6218 39.9277C84.6622 38.7508 85.6413 38.7151 86.7815 38.8158C88.9365 33.9471 87.2523 25.6073 87.2523 25.6073Z" fill="#F08B27"/>
<path d="M67.4423 11.6396C66.1574 11.5755 61.6861 10.6615 61.6861 5.98326C61.6861 1.88938 65.8908 0.108043 68.4635 0.104379C73.0712 0.0979683 75.0091 3.44451 75.0054 5.51068C74.9981 9.36827 71.3924 11.6323 68.3463 11.7028" fill="#F08B27"/>
<path d="M83.6209 40.0192C84.4589 38.8552 85.3903 38.5044 86.6496 39.0136C89.0748 33.8684 87.2523 25.6962 87.2523 25.6962" fill="#F08B27"/>
<path d="M68.3032 12.0764C68.3032 13.6902 67.0118 14.9989 65.4183 14.9989C63.8247 14.9989 62.5333 13.6902 62.5333 12.0764C62.5333 10.4627 63.8247 9.15393 65.4183 9.15393C67.0118 9.15393 68.3032 10.4627 68.3032 12.0764Z" fill="#F19FBD"/>
<path d="M63.9309 10.1431C63.9309 11.7568 62.6396 13.0656 61.046 13.0656C59.4524 13.0656 58.161 11.7568 58.161 10.1431C58.161 8.52934 59.4524 7.22058 61.046 7.22058C62.6396 7.22058 63.9309 8.52934 63.9309 10.1431Z" fill="#F19FBD"/>
<path d="M66.5365 71.8224C67.3404 70.6456 68.1766 69.4912 69.0441 68.3605C69.7951 67.3805 70.5755 66.4143 71.5105 65.6138C72.3898 64.8619 73.3935 64.2712 74.2874 63.5376C75.6887 62.3882 75.8142 60.2286 76.5249 58.5498C76.5249 58.5498 82.0172 59.0746 83.7381 61.3981C84.6906 62.684 85.2612 64.2061 86.0974 65.5726C86.9699 66.995 88.2448 68.1265 89.7608 68.8239C88.0775 68.4923 86.2439 69.7095 85.8712 71.4057C85.7292 72.0514 85.7686 72.7593 85.4316 73.3271C84.9425 74.1523 83.881 74.3612 83.0531 74.8337C81.4705 75.7395 80.2561 77.9742 79.6635 79.7143C78.8456 82.8072 78.101 91.1699 81.3523 94.5869C77.4947 96.1943 71.3164 96.4919 66.5356 96.4901H66.2206C61.4782 96.48 55.4519 96.1649 51.6639 94.5869C54.7027 91.3933 54.1029 83.3375 53.3436 79.7729L53.3317 79.7217C52.7391 77.9815 51.5449 75.7395 49.9632 74.8337C49.1362 74.3602 48.0729 74.1514 47.5847 73.3271C47.2495 72.7602 47.287 72.0523 47.1451 71.4057C46.7733 69.7104 44.9397 68.4933 43.2554 68.8239C44.7716 68.1268 46.0466 66.9952 46.9189 65.5726C47.7551 64.2061 48.213 62.5906 49.2781 61.3981C50.7472 59.756 53.1659 59.1662 55.3127 58.744L55.4968 59.212C56.2092 60.8936 57.3178 62.3779 58.7279 63.5385C59.6218 64.2721 60.6256 64.8628 61.5048 65.6147C62.4408 66.4133 63.2211 67.3814 63.9712 68.3614C64.8384 69.4923 65.6746 70.6467 66.4788 71.8233" fill="#F19FBD"/>
<path d="M58.5896 49.5295C58.5896 51.6626 56.8825 53.3917 54.7769 53.3917C52.6705 53.3917 50.9642 51.6626 50.9642 49.5295C50.9642 47.3965 52.6714 45.6674 54.7769 45.6674C56.8834 45.6674 58.5896 47.3965 58.5896 49.5295Z" fill="#F9D2DD"/>
<path d="M80.0738 49.9636C80.0738 52.0966 78.3666 53.8258 76.2611 53.8258C74.1546 53.8258 72.4484 52.0966 72.4484 49.9636C72.4484 47.8306 74.1555 46.1014 76.2611 46.1014C78.3675 46.1014 80.0738 47.8306 80.0738 49.9636Z" fill="#F9D2DD"/>
<path d="M75.0805 45.1673C75.0265 45.1673 74.9716 45.1673 74.9157 45.1655C74.3976 45.1541 73.8818 45.0934 73.3752 44.9841C72.9814 44.8989 71.9602 44.4025 71.6076 44.0435C71.5877 44.0229 71.5766 43.9953 71.5766 43.9666C71.5766 43.9379 71.5877 43.9103 71.6076 43.8897C71.6176 43.8796 71.6294 43.8717 71.6425 43.8663C71.6555 43.8608 71.6695 43.858 71.6836 43.858C71.6978 43.858 71.7118 43.8608 71.7248 43.8663C71.7379 43.8717 71.7497 43.8796 71.7597 43.8897C72.083 44.2194 73.0583 44.692 73.4192 44.7707C73.9121 44.8775 74.4142 44.9366 74.9184 44.9475C75.2628 44.958 75.6073 44.9371 75.9479 44.8852C76.7261 44.7608 77.459 44.4375 78.0754 43.9465C78.0865 43.9376 78.0992 43.931 78.1128 43.927C78.1265 43.9231 78.1407 43.922 78.1548 43.9237C78.1689 43.9254 78.1825 43.9299 78.1948 43.937C78.2071 43.944 78.2179 43.9535 78.2265 43.9648C78.2441 43.9876 78.2521 44.0164 78.2486 44.045C78.2452 44.0736 78.2307 44.0997 78.2082 44.1177C77.5624 44.6311 76.7953 44.9695 75.9808 45.1004C75.683 45.1469 75.382 45.1692 75.0805 45.1673Z" fill="black"/>
<path d="M55.7285 45.1645C55.1517 45.1663 54.5796 45.0607 54.0415 44.8531C53.4389 44.6178 52.4305 44.2239 52.1567 43.5948C52.1452 43.5684 52.1445 43.5385 52.1548 43.5116C52.165 43.4847 52.1854 43.463 52.2116 43.451C52.2246 43.4452 52.2386 43.4421 52.2528 43.4418C52.267 43.4415 52.2811 43.444 52.2943 43.4492C52.3075 43.4544 52.3195 43.4622 52.3297 43.4721C52.3399 43.482 52.348 43.4938 52.3536 43.5068C52.5908 44.0536 53.5854 44.441 54.1184 44.6498C55.5316 45.2012 57.2333 44.9722 58.4532 44.0673C58.4647 44.059 58.4777 44.0529 58.4915 44.0496C58.5053 44.0463 58.5196 44.0457 58.5337 44.0479C58.5477 44.0501 58.5612 44.0551 58.5733 44.0625C58.5854 44.0699 58.5959 44.0796 58.6043 44.0911C58.621 44.1146 58.6279 44.1436 58.6234 44.172C58.619 44.2005 58.6036 44.226 58.5805 44.2432C57.7663 44.8476 56.7451 45.1645 55.7285 45.1645Z" fill="black"/>
<path d="M69.1701 11.8047C69.1653 11.8028 69.1606 11.8028 69.1568 11.8C69.1587 11.8 69.1587 11.7981 69.1615 11.7981C69.1615 11.7981 69.1634 11.8028 69.1663 11.8C69.1682 11.8028 69.1682 11.8047 69.1701 11.8047Z" fill="black"/>
<path d="M69.1701 11.8048C69.1654 11.8029 69.1607 11.8029 69.157 11.8001C69.1551 11.7983 69.1504 11.7955 69.1476 11.7908C69.1523 11.7955 69.157 11.7973 69.1607 11.7973C69.1607 11.7973 69.1626 11.802 69.1654 11.7992C69.1682 11.8029 69.1682 11.8048 69.1701 11.8048Z" fill="black"/>
<path d="M73.6825 58.4454C73.6765 58.4517 73.6686 58.4556 73.66 58.4567C73.6647 58.4567 73.6666 58.4548 73.6713 58.4501C73.6751 58.4488 73.6789 58.4472 73.6825 58.4454Z" fill="black"/>
<path d="M51.8462 38.2572C51.8187 38.2569 51.7923 38.2465 51.772 38.2279C51.7511 38.2081 51.7388 38.1809 51.7378 38.1521C51.7368 38.1233 51.7471 38.0953 51.7665 38.074C52.9269 36.8184 54.6899 36.1984 56.3687 36.4603C56.3969 36.465 56.4222 36.4806 56.4391 36.5037C56.4561 36.5268 56.4633 36.5556 56.4593 36.5839C56.4573 36.598 56.4525 36.6116 56.4453 36.6238C56.438 36.636 56.4284 36.6467 56.417 36.6552C56.4056 36.6637 56.3926 36.6699 56.3788 36.6734C56.365 36.6769 56.3507 36.6776 56.3366 36.6755C54.7284 36.4255 53.0368 37.0181 51.9249 38.2224C51.915 38.2334 51.9028 38.2422 51.8892 38.2481C51.8757 38.2541 51.861 38.2572 51.8462 38.2572Z" fill="black"/>
<path d="M65.6729 54.1692C63.1533 54.1692 60.7208 53.007 59.3177 51.1304C59.3007 51.1073 59.2934 51.0785 59.2973 51.0501C59.3013 51.0217 59.3162 50.996 59.3388 50.9784C59.3501 50.9698 59.3629 50.9635 59.3767 50.9598C59.3904 50.9562 59.4047 50.9554 59.4188 50.9573C59.4328 50.9593 59.4464 50.964 59.4586 50.9713C59.4708 50.9785 59.4814 50.9881 59.4899 50.9995C60.8527 52.8229 63.2184 53.9513 65.6729 53.9513H65.7123C67.9726 53.9403 70.2952 53.0345 72.256 51.3997C72.3018 51.3612 72.3696 51.3676 72.4072 51.4143C72.4447 51.4611 72.4383 51.5288 72.3925 51.5673C70.3941 53.2332 68.022 54.1573 65.7132 54.1674C65.7003 54.1692 65.6866 54.1692 65.6729 54.1692Z" fill="black"/>
<path d="M66.2746 48.3636C66.2614 48.3635 66.2484 48.361 66.2361 48.3563C65.8708 48.2131 65.5658 47.9486 65.3725 47.6071C65.3581 47.5822 65.3542 47.5526 65.3616 47.5248C65.369 47.4971 65.387 47.4733 65.4118 47.4588C65.4241 47.4516 65.4377 47.447 65.4519 47.4451C65.466 47.4433 65.4803 47.4443 65.494 47.448C65.5078 47.4518 65.5206 47.4582 65.5318 47.467C65.543 47.4757 65.5524 47.4867 65.5593 47.4991C65.726 47.7931 66.0007 48.0312 66.3131 48.153C66.3358 48.1629 66.3546 48.1801 66.3663 48.202C66.378 48.224 66.382 48.2492 66.3775 48.2736C66.3731 48.298 66.3605 48.3202 66.3418 48.3366C66.3231 48.3529 66.2994 48.3625 66.2746 48.3636Z" fill="black"/>
<path d="M79.32 38.5869C79.303 38.5868 79.2862 38.5827 79.2711 38.5749C79.256 38.5671 79.2429 38.5558 79.233 38.542C78.2879 37.2195 76.5752 36.4593 74.9752 36.6498C74.9611 36.6515 74.9467 36.6503 74.933 36.6463C74.9193 36.6424 74.9066 36.6357 74.8955 36.6268C74.8844 36.6178 74.8752 36.6067 74.8685 36.5942C74.8617 36.5816 74.8575 36.5678 74.8562 36.5537C74.8544 36.5395 74.8554 36.5252 74.8592 36.5114C74.8629 36.4977 74.8694 36.4848 74.8782 36.4736C74.8869 36.4623 74.8978 36.453 74.9102 36.446C74.9227 36.4389 74.9363 36.4345 74.9505 36.4328C76.654 36.2294 78.4014 37.007 79.4061 38.4129C79.4229 38.4363 79.4297 38.4653 79.4253 38.4937C79.4208 38.5222 79.4054 38.5477 79.3823 38.5649C79.3648 38.5793 79.3427 38.5871 79.32 38.5869Z" fill="black"/>
<path d="M48.0921 42.2274C47.766 41.6752 46.9225 41.1778 46.2173 41.274C46.208 41.1521 46.2065 41.0298 46.2127 40.9077C46.2301 40.589 46.3208 40.0092 46.7439 39.6942C46.8434 39.6237 46.9569 39.5754 47.0767 39.5527C47.1965 39.5299 47.3198 39.5332 47.4382 39.5623C47.5235 39.5796 47.6037 39.6162 47.6727 39.6692C47.7417 39.7222 47.7978 39.7903 47.8366 39.8682C47.8495 39.8938 47.8721 39.9133 47.8994 39.9224C47.9266 39.9315 47.9564 39.9295 47.9822 39.9167C48.0076 39.9038 48.0269 39.8813 48.0358 39.8542C48.0447 39.8271 48.0426 39.7975 48.0298 39.772C47.9768 39.6662 47.9007 39.5735 47.8072 39.501C47.7137 39.4284 47.6051 39.3776 47.4894 39.3525C47.3402 39.3159 47.1849 39.3118 47.034 39.3406C46.883 39.3693 46.7401 39.4303 46.6148 39.5192C46.1202 39.8856 46.0158 40.5386 45.9966 40.8967C45.9869 41.0734 45.9936 41.2506 46.0167 41.426C46.1724 42.7137 47.1231 43.9135 48.3549 44.2844C48.3659 44.2863 48.3751 44.289 48.3852 44.289C48.3897 44.289 48.3916 44.289 48.3961 44.2872C48.4052 44.3006 48.4175 44.3115 48.432 44.3188C48.4464 44.3262 48.4624 44.3298 48.4786 44.3293H48.4877C48.5019 44.3279 48.5156 44.3238 48.5281 44.3171C48.5407 44.3104 48.5517 44.3013 48.5608 44.2904C48.5698 44.2794 48.5765 44.2667 48.5807 44.2532C48.5848 44.2396 48.5862 44.2253 48.5848 44.2112C48.5253 43.5014 48.441 42.8154 48.0921 42.2274ZM46.2411 41.4911C46.8099 41.4114 47.5929 41.8052 47.9071 42.3392C48.2038 42.8429 48.2981 43.4336 48.3568 44.0546C47.2632 43.6946 46.417 42.6396 46.2411 41.4911Z" fill="black"/>
<path d="M83.1475 45.0853L83.1456 45.0834C83.1437 45.0769 83.1437 45.0722 83.1437 45.0675C83.1443 45.0736 83.1455 45.0795 83.1475 45.0853Z" fill="black"/>
<path d="M86.0891 40.0779C85.9037 39.9922 85.7012 39.9499 85.497 39.954C85.2928 39.9581 85.0922 40.0086 84.9104 40.1017C84.3573 40.3792 83.9946 40.9699 83.914 41.2996C83.9073 41.3278 83.9121 41.3574 83.9272 41.3821C83.9423 41.4068 83.9665 41.4246 83.9946 41.4315C84.0532 41.4471 84.1091 41.4114 84.1246 41.3518C84.1924 41.0707 84.5194 40.5413 85.0048 40.2977C85.3281 40.1356 85.6642 40.1292 86.0012 40.2775C86.4335 40.4662 86.4509 41.0139 86.4243 41.3234C86.4007 41.5539 86.3509 41.781 86.276 42.0003C86.2594 41.9766 86.2346 41.9599 86.2064 41.9536C85.3473 41.8107 84.599 42.0113 84.044 42.5315C83.4121 43.1176 83.0677 44.0866 83.1419 45.0583V45.0675C83.1419 45.072 83.1437 45.0785 83.1465 45.0849C83.1465 45.0894 83.1483 45.0959 83.1511 45.1004C83.1529 45.1023 83.1529 45.105 83.1556 45.1068C83.1601 45.1177 83.167 45.1274 83.1758 45.1352C83.1776 45.1352 83.1776 45.1371 83.1804 45.1371C83.1895 45.1462 83.2005 45.1526 83.2124 45.1572C83.2243 45.1634 83.2375 45.1665 83.2509 45.1664H83.2601L83.2646 45.1645C83.2665 45.1664 83.271 45.1645 83.2756 45.1645C85.2978 44.6746 86.5269 42.6313 86.6396 41.3436C86.6945 40.7089 86.4994 40.2583 86.0891 40.0779ZM83.3516 44.9164C83.3196 44.0664 83.642 43.2028 84.1915 42.6926C84.697 42.2201 85.3821 42.0378 86.1743 42.1697C86.1894 42.1724 86.205 42.1708 86.2192 42.1651C85.8071 43.2614 84.8024 44.5125 83.3516 44.9164Z" fill="black"/>
<path d="M115.103 90.4225C114.432 89.1898 113.736 88.0367 112.601 87.4561C111.738 87.0164 110.729 86.9771 109.842 86.9413C107.826 86.8644 104.892 86.7948 101.138 86.7353C97.41 86.6776 92.8729 86.629 87.6342 86.5951L87.6214 86.5778C87.059 85.7562 86.6863 85.0528 86.4454 84.3678C86.047 83.234 85.9591 82.025 85.9032 80.784C85.7732 78.0264 85.5955 75.6891 85.35 73.6303C85.4151 73.5534 85.4737 73.4728 85.5259 73.3839C85.764 72.9819 85.8226 72.5139 85.8794 72.0614C85.906 71.8526 85.9316 71.6355 85.9765 71.4313C86.3346 69.8075 88.1278 68.616 89.7407 68.9329C89.7665 68.9376 89.7932 68.9329 89.8159 68.9196C89.8386 68.9063 89.8557 68.8854 89.8643 68.8605C89.872 68.8349 89.8703 68.8074 89.8596 68.7829C89.8488 68.7584 89.8297 68.7385 89.8057 68.7268C88.3098 68.0383 87.0516 66.9218 86.1899 65.5185C85.8574 64.9773 85.5689 64.3975 85.2896 63.8398C84.8619 62.9853 84.4195 62.1042 83.8233 61.3349C81.769 58.6872 76.7428 58.4527 76.5294 58.4436C76.5076 58.443 76.4861 58.449 76.4676 58.4607C76.4492 58.4725 76.4347 58.4895 76.4259 58.5095L76.3609 58.6716C75.979 58.5745 74.8223 58.3007 74.1024 58.2411C74.1922 58.1972 74.2801 58.1505 74.3698 58.1028C78.3318 55.9524 81.1902 51.9217 82.1079 47.239C83.8361 47.1813 86.286 45.4613 87.4794 42.6111C87.7047 42.0662 87.9877 41.2529 87.8219 40.4497C87.7527 40.1332 87.6196 39.8341 87.4308 39.5708C87.242 39.3075 87.0014 39.0855 86.7238 38.9184C87.8283 37.3779 89.0977 29.6811 86.4024 22.825C84.9223 19.0544 82.6446 16.5056 80.0573 14.8012C78.9574 13.9934 77.6651 13.3614 76.0459 12.8412C74.8457 12.4303 73.6128 12.1221 72.3605 11.9199C72.354 11.918 72.3449 11.918 72.3366 11.9153C71.6137 11.7761 70.8882 11.6503 70.1606 11.538C72.7817 10.7888 75.1089 8.60722 75.1135 5.51529C75.1153 4.56829 74.6931 3.1249 73.5043 1.91872C72.6389 1.04224 71.0654 0 68.4781 0H68.4653C65.6884 0.00183171 61.5799 1.90773 61.5799 5.98787C61.5799 6.4055 61.6165 6.80756 61.688 7.18581C61.4782 7.1386 61.2638 7.11495 61.0487 7.11529C59.3974 7.11529 58.0548 8.47534 58.0548 10.1459C58.0548 11.451 58.8726 12.5646 60.0165 12.9914C54.9399 14.6042 51.0375 17.8345 48.7167 22.3496C46.3181 27.0159 45.873 32.5633 47.4931 37.584C47.0393 37.5184 46.5773 37.6225 46.1953 37.8762C45.187 38.5594 44.9544 39.8801 44.9067 40.6072C44.8161 41.9984 45.1522 43.3209 45.8546 44.3275C46.6917 45.5272 47.7221 46.1427 48.9173 46.1537C48.9401 46.1531 48.9622 46.1454 48.9805 46.1317C49.0592 46.6308 49.1517 47.1272 49.2625 47.6236C50.3579 52.5344 53.2026 56.5908 56.899 58.5397C56.7598 58.5663 56.5912 58.5947 56.4154 58.624C56.0527 58.6835 55.6818 58.7421 55.4611 58.8154L55.4199 58.7091C55.4103 58.6856 55.393 58.6661 55.3709 58.6536C55.3488 58.6411 55.3231 58.6365 55.298 58.6405C53.133 59.0663 50.6968 59.6616 49.2048 61.3294C48.5344 62.0786 48.0957 63.0045 47.6726 63.8984C47.4143 64.4415 47.1478 65.0038 46.8328 65.5204C45.9705 66.9232 44.7124 68.0394 43.217 68.7286C43.1675 68.7524 43.141 68.8101 43.1584 68.8623C43.1758 68.9145 43.228 68.9466 43.282 68.9347C44.8939 68.6178 46.6881 69.8093 47.0462 71.4331C47.0892 71.6374 47.1176 71.8554 47.1433 72.0633C47.2 72.5157 47.2577 72.9837 47.4968 73.3857C47.549 73.4764 47.6076 73.557 47.6726 73.6339C47.4299 75.6955 47.2495 78.0374 47.1194 80.7859C47.0608 82.0278 46.9757 83.2358 46.5773 84.3696C46.2979 85.1664 45.8766 85.8881 45.3775 86.6126C35.891 86.6831 28.8985 86.7994 25.1563 86.945C24.267 86.9807 23.2595 87.0201 22.3968 87.4597C21.2621 88.0395 20.566 89.1934 19.8956 90.4262C12.7254 103.588 2.91563 132.641 3.97436 134.484C4.02381 134.57 4.10258 134.62 4.1905 134.62C7.68083 134.62 19.3333 134.681 32.8266 134.752C53.601 134.86 80.7094 135 93.3922 135C96.0802 135 98.1198 134.995 99.3141 134.98C102.399 134.942 105.63 134.894 108.916 134.846C116.283 134.733 123.905 134.62 130.809 134.62C130.899 134.62 130.974 134.57 131.026 134.484C132.083 132.637 122.271 103.583 115.103 90.4225ZM85.688 80.7932C85.7466 82.0516 85.8318 83.2779 86.2412 84.4383C86.4885 85.1371 86.8667 85.8496 87.4272 86.6748C87.4254 86.684 87.4226 86.6922 87.4226 86.7032C87.4226 86.7582 87.4638 86.8049 87.5197 86.8113V86.8131C87.7514 87.1474 87.9905 87.468 88.2139 87.7693C89.4833 89.4719 91.522 91.4519 93.492 93.3652C94.8914 94.7252 96.2149 96.0101 97.1976 97.1312C97.2296 97.1687 97.28 97.1797 97.323 97.1596C98.4907 96.6339 99.4185 95.7088 100.32 94.815C100.522 94.6153 100.721 94.4156 100.925 94.2197C101.992 93.1957 103.637 91.8751 105.585 92.2203C105.828 92.2643 105.997 92.3632 106.086 92.5198C106.167 92.6581 106.183 92.8431 106.14 93.0611C106.111 93.1416 106.087 93.2239 106.069 93.3075C105.897 93.7691 105.472 93.8744 104.98 93.9953C104.654 94.075 104.318 94.1574 104.021 94.3506C103.544 94.6629 103.281 95.3022 103.301 96.1063C103.316 96.6769 103.47 97.7173 104.342 98.2641C104.743 98.5168 105.227 98.5746 105.64 98.4198C106.688 98.0269 106.775 96.6668 106.508 95.5238L106.482 95.4139C106.321 94.7325 106.145 93.9852 106.282 93.3569C106.307 93.2827 106.328 93.2072 106.345 93.1307C106.401 92.9769 106.482 92.8331 106.583 92.7048C106.687 92.5757 106.794 92.5052 106.896 92.5006C107.125 92.4878 107.277 92.7973 107.36 93.0593C107.756 94.3131 108.17 95.6108 108.13 96.9462C108.098 98.091 107.633 99.5646 106.429 100.271C106.412 100.281 106.398 100.295 106.388 100.313C106.379 100.33 106.374 100.35 106.375 100.37C106.376 100.389 106.382 100.408 106.393 100.424C106.403 100.441 106.418 100.454 106.436 100.462C107.432 100.952 107.764 100.952 108.423 100.946C108.669 100.946 108.975 100.944 109.384 100.968C109.551 100.977 109.802 100.957 110.096 100.935C110.857 100.875 112.004 100.785 112.261 101.208C112.369 101.805 112.011 102.018 111.441 102.153C110.079 102.472 105.304 101.755 105.253 101.749C105.197 101.738 105.143 101.78 105.132 101.84C105.127 101.867 105.134 101.896 105.15 101.919C105.166 101.942 105.191 101.957 105.219 101.962L110.371 102.903C110.612 102.939 110.747 103.006 110.772 103.105C110.848 103.411 110.831 103.637 110.72 103.778C110.514 104.035 109.998 104.015 109.582 103.999C109.456 103.995 109.336 103.99 109.235 103.993C108.703 104.013 107.334 103.798 106.206 103.602C105.639 103.491 105.071 103.387 104.502 103.289C104.489 103.287 104.474 103.287 104.461 103.291C104.447 103.294 104.434 103.3 104.422 103.308C104.411 103.316 104.401 103.326 104.394 103.338C104.386 103.35 104.381 103.363 104.379 103.377C104.374 103.405 104.381 103.434 104.397 103.457C104.413 103.48 104.438 103.497 104.466 103.502C104.534 103.515 105.273 103.659 106.165 103.814C107.286 104.034 108.638 104.324 109.126 104.538C109.292 104.605 109.425 104.735 109.497 104.899C109.564 105.069 109.546 105.216 109.443 105.347C109.236 105.616 108.687 105.778 108.221 105.712C107.983 105.679 107.633 105.665 107.192 105.648C105.68 105.588 103.151 105.49 100.244 104.437C98.5228 103.815 95.3842 101.389 94.0965 100.051C94.0888 100.028 94.0745 100.008 94.0553 99.9932L94.0031 99.9575L93.9967 99.9511C90.0896 97.1669 86.5919 93.7544 83.2079 90.4546C82.629 89.8886 82.0273 89.3006 81.6353 88.5752C81.3029 87.9607 81.1344 87.2766 81.0098 86.5887V86.5823C80.9686 86.3515 80.9338 86.1207 80.8971 85.8927C80.7244 84.8572 80.5364 83.8243 80.333 82.7943C80.1317 81.7741 79.9451 80.751 79.7734 79.7253C80.3724 77.9833 81.5575 75.8137 83.1053 74.9281C83.348 74.7898 83.6154 74.6707 83.8755 74.5571C84.3307 74.3593 84.7959 74.1532 85.1559 73.8272C85.3885 75.8366 85.5625 78.1198 85.688 80.7932ZM106.272 95.4652L106.298 95.5751C106.546 96.6247 106.481 97.8712 105.568 98.2155C105.219 98.3474 104.805 98.2952 104.458 98.08C103.671 97.5854 103.532 96.6293 103.52 96.1027C103.511 95.7583 103.554 94.9184 104.141 94.5338C104.405 94.3607 104.724 94.281 105.032 94.2059C105.392 94.118 105.759 94.0282 106.019 93.78C106.004 94.3286 106.144 94.9184 106.272 95.4652ZM60.0385 115.071C59.6197 112.755 59.3903 110.408 59.3525 108.055C59.3519 108.041 59.3481 108.027 59.3415 108.015C59.7967 108.062 60.2482 108.11 60.6979 108.155C62.0708 108.3 63.3704 108.436 64.6526 108.548C64.67 108.55 64.6892 108.55 64.7066 108.553C64.7131 108.555 64.7195 108.555 64.7268 108.555H64.7286C66.085 108.668 67.195 108.737 68.2144 108.765C68.2326 108.766 68.2506 108.761 68.2668 108.753C68.283 108.744 68.2968 108.732 68.3069 108.717C68.3169 108.701 68.323 108.683 68.3246 108.665C68.3262 108.646 68.3232 108.628 68.316 108.611C67.5504 106.806 66.6977 104.224 68.1356 102.646C68.7859 101.93 69.9756 102.328 71.125 102.712C71.6223 102.877 72.0921 103.036 72.5226 103.105C74.8415 103.49 76.7575 103.567 78.9738 103.653C79.5747 103.677 80.1929 103.702 80.8394 103.734C81.5776 103.77 82.259 103.846 82.9157 103.919C84.0001 104.039 85.0267 104.154 86.1505 104.072C86.4234 104.052 86.7128 104.05 86.9491 104.171C87.2312 104.311 87.3439 104.571 87.3897 104.764C87.4895 105.194 87.3658 105.744 87.0792 106.13C86.7192 106.619 86.1523 107.016 85.5387 107.339C85.5048 107.337 85.4673 107.333 85.4306 107.33C85.4164 107.329 85.4021 107.331 85.3885 107.335C85.375 107.34 85.3625 107.347 85.3518 107.357C85.3411 107.366 85.3324 107.378 85.3263 107.391C85.3202 107.403 85.3167 107.418 85.3162 107.432C85.3162 107.438 85.3162 107.443 85.318 107.449C84.2849 107.955 83.1639 108.251 82.6602 108.383C79.7212 109.159 76.6833 110.051 73.6527 110.974C73.6348 110.954 73.6101 110.941 73.5831 110.937C73.5692 110.935 73.555 110.937 73.5416 110.94C73.5281 110.944 73.5155 110.951 73.5046 110.96C73.4937 110.969 73.4847 110.98 73.478 110.992C73.4714 111.004 73.4673 111.018 73.4659 111.032C71.8796 111.516 70.2961 112.006 68.7318 112.489L66.5081 113.177L66.499 113.175C66.4775 113.169 66.4546 113.17 66.4335 113.177C66.4125 113.185 66.3944 113.199 66.3817 113.217C64.2707 113.868 62.1468 114.513 60.0257 115.135C60.0322 115.126 60.0367 115.115 60.0389 115.104C60.0411 115.093 60.041 115.082 60.0385 115.071ZM47.3191 107.348C46.6231 106.984 46.1038 106.576 45.7759 106.135C45.4901 105.748 45.3665 105.199 45.4654 104.768C45.5103 104.575 45.6239 104.316 45.9059 104.176C46.1422 104.056 46.4307 104.058 46.7046 104.077C47.8283 104.159 48.855 104.044 49.9394 103.923C50.597 103.851 51.2783 103.774 52.0156 103.739C52.6622 103.706 53.2804 103.681 53.8812 103.658C56.0976 103.571 58.0145 103.495 60.3325 103.11C60.762 103.039 61.2328 102.881 61.7301 102.717C62.8795 102.332 64.0665 101.934 64.7195 102.651C66.1097 104.173 65.3633 106.605 64.6563 108.331C63.3805 108.223 62.0873 108.085 60.719 107.943C56.3989 107.487 51.7409 106.996 47.3191 107.348ZM68.7969 112.701C70.3327 112.226 71.886 111.745 73.4412 111.27C73.2996 112.556 73.1142 113.836 72.8852 115.109C70.8789 114.517 68.8765 113.912 66.8781 113.293C67.5192 113.096 68.1594 112.899 68.7969 112.701ZM73.6646 111.202C76.7108 110.277 79.7624 109.376 82.716 108.599C83.5861 108.368 84.6622 108.045 85.5928 107.568C89.0812 107.852 91.9781 108.633 94.4417 109.959C94.4592 109.968 94.4756 109.971 94.494 109.971C94.5306 109.971 94.57 109.949 94.5892 109.914C94.6022 109.888 94.6047 109.859 94.5961 109.831C94.5876 109.804 94.5687 109.781 94.5434 109.767C92.1292 108.469 89.3084 107.686 85.9371 107.38C86.4665 107.069 86.929 106.705 87.2514 106.268C87.5747 105.833 87.713 105.211 87.6003 104.719C87.5197 104.379 87.3283 104.124 87.0444 103.981C86.7605 103.838 86.439 103.838 86.1349 103.861C85.0286 103.942 84.0129 103.828 82.9395 103.707C82.2783 103.635 81.5941 103.558 80.8504 103.523C80.2281 103.492 79.6056 103.465 78.983 103.441C76.773 103.355 74.8635 103.279 72.5574 102.896C72.1434 102.828 71.6809 102.675 71.1936 102.51C69.9783 102.106 68.7254 101.684 67.9781 102.504C66.4962 104.13 67.282 106.695 68.0541 108.545C66.9954 108.509 65.9378 108.444 64.8825 108.352C65.6023 106.575 66.3314 104.101 64.8779 102.504C64.1315 101.684 62.8777 102.106 61.6623 102.51C61.1742 102.675 60.7126 102.829 60.2986 102.896C57.9925 103.278 56.0838 103.355 53.873 103.441C53.2722 103.465 52.654 103.49 52.0055 103.523C51.2609 103.559 50.5786 103.635 49.9156 103.707C48.8422 103.827 47.8265 103.94 46.7201 103.861C46.4161 103.839 46.0928 103.839 45.8107 103.981C45.5268 104.124 45.3354 104.378 45.2548 104.719C45.1421 105.212 45.2813 105.833 45.6037 106.268C45.9004 106.67 46.3455 107.042 46.9271 107.381C43.8682 107.661 40.9356 108.36 38.3126 109.767C38.3 109.774 38.289 109.783 38.28 109.794C38.271 109.805 38.2644 109.818 38.2604 109.831C38.2564 109.845 38.2551 109.859 38.2567 109.874C38.2582 109.888 38.2626 109.901 38.2695 109.914C38.2761 109.926 38.2851 109.937 38.296 109.947C38.3069 109.956 38.3195 109.962 38.3331 109.966C38.3466 109.971 38.3609 109.972 38.375 109.97C38.3891 109.969 38.4027 109.965 38.4151 109.958C44.425 106.728 52.1319 107.275 59.1556 107.996C59.1422 108.015 59.1352 108.037 59.1355 108.06C59.174 110.418 59.4047 112.79 59.826 115.111C59.8277 115.126 59.8329 115.14 59.8412 115.152C59.8495 115.165 59.8606 115.175 59.8737 115.182C53.1421 117.15 46.4188 118.853 40.0646 119.582C37.5652 119.867 36.4461 119.56 34.107 118.672C33.8817 118.586 33.6472 118.501 33.4109 118.413C31.1332 117.574 28.5532 116.622 28.0248 114.423C27.1089 110.6 30.0634 107.316 32.7048 105.236C36.1969 102.484 38.7641 101.634 42.6492 100.347C45.0698 99.5454 48.0829 98.5452 52.1383 96.7941C52.4461 96.6622 52.7236 96.208 53.1842 95.4579L53.3015 95.2692C56.3348 96.1439 60.6686 96.5899 66.2233 96.6009L66.5384 96.6027H66.5686C72.322 96.6027 76.654 96.1658 79.7239 95.2738L79.8348 95.4542C80.2945 96.208 80.5748 96.6632 80.8825 96.7941C84.937 98.5452 87.9502 99.5454 90.3717 100.347C94.2577 101.634 96.823 102.485 100.314 105.236C102.956 107.316 105.912 110.599 104.994 114.423C104.468 116.622 101.888 117.573 99.6099 118.413C99.3736 118.501 99.1392 118.586 98.9139 118.672C96.5739 119.56 95.4556 119.867 92.9562 119.582C86.6158 118.856 79.9483 117.176 73.095 115.17C73.3395 113.795 73.5327 112.461 73.6646 111.202ZM53.8455 86.7792C53.7548 89.8529 53.1449 92.8743 51.587 94.5118C51.5752 94.5251 51.5666 94.541 51.562 94.5581C51.5574 94.5753 51.5569 94.5933 51.5604 94.6107C51.5638 94.6281 51.5713 94.6444 51.5823 94.6583C51.5933 94.6722 51.6075 94.6832 51.6236 94.6904C52.0687 94.8745 52.5569 95.0485 53.0835 95.2069L53.0011 95.3407C52.5779 96.0303 52.2986 96.4873 52.0532 96.5926C48.0078 98.3392 44.9983 99.3375 42.5814 100.139C40.093 100.962 38.145 101.609 36.1466 102.686C37.3509 101.803 38.4912 100.822 39.1442 100.13C43.064 97.3363 46.5672 93.9174 49.9559 90.6112C50.5502 90.0333 51.162 89.4352 51.5696 88.6824C51.8883 88.0935 52.0623 87.435 52.186 86.7884L53.8455 86.7792ZM52.229 86.5686C52.2675 86.3515 52.3004 86.1354 52.3325 85.9293C52.4827 84.9933 52.6814 83.9648 52.8747 82.9693C53.0414 82.101 53.2154 81.209 53.3537 80.3719C53.677 82.1093 53.894 84.3394 53.8482 86.5622L52.229 86.5686ZM90.4367 100.139C88.0198 99.3375 85.0112 98.3392 80.9649 96.5926C80.7176 96.4864 80.4383 96.0294 80.0152 95.3388L79.9364 95.2115C80.4306 95.0616 80.9172 94.8877 81.3945 94.6904C81.4105 94.6831 81.4247 94.672 81.4356 94.6582C81.4466 94.6443 81.4542 94.6281 81.4576 94.6107C81.4619 94.5933 81.4617 94.5751 81.4571 94.5579C81.4524 94.5406 81.4435 94.5247 81.4311 94.5118C79.6717 92.6664 79.1882 89.4233 79.0902 87.0256C79.0856 86.9395 79.0838 86.8543 79.081 86.7682C79.4235 86.7682 79.821 86.7481 80.2066 86.7289C80.4108 86.7197 80.6142 86.7087 80.812 86.7023C80.9374 87.3855 81.1115 88.0623 81.4457 88.6815C81.8533 89.4352 82.4651 90.0324 83.0577 90.6103C86.4463 93.9165 89.9495 97.3363 93.8721 100.129C94.5223 100.821 95.6663 101.801 96.8724 102.687C94.875 101.609 92.9251 100.963 90.4367 100.139ZM79.0755 86.5512C79.0233 84.1608 79.3026 81.7942 79.6443 80.2538C79.7835 81.0661 79.9547 81.9655 80.1214 82.8383C80.3257 83.897 80.5354 84.9933 80.6856 85.9293C80.714 86.1134 80.7424 86.2984 80.7753 86.4853C80.5867 86.4917 80.3934 86.5026 80.1983 86.5118C79.8137 86.5292 79.4162 86.5512 79.0755 86.5512ZM73.3477 2.06984C74.4935 3.23023 74.8983 4.60767 74.8965 5.51345C74.89 8.69056 72.3293 10.8795 69.5973 11.4482H69.5927C69.5121 11.4372 69.4306 11.4235 69.3473 11.4107C71.473 10.4215 73.0217 8.16303 73.0913 5.78363C73.1627 3.22382 71.5527 1.2016 68.6613 0.217975C71.0654 0.265599 72.5345 1.24465 73.3477 2.06984ZM68.9122 11.3585C68.7334 11.4286 68.5509 11.4888 68.3655 11.5389C68.3636 11.5407 68.3609 11.5407 68.3563 11.5407C68.3609 11.5389 68.3627 11.5361 68.3627 11.5316C68.3719 11.5251 68.3737 11.5187 68.3783 11.5114C68.8866 10.4902 69.2896 9.35822 69.6175 8.05496C69.9215 6.83504 70.0671 5.82027 70.0745 4.86228C70.0836 3.68449 69.8748 2.61935 69.4563 1.69342C69.2588 1.25603 69.0104 0.843481 68.7163 0.464339C71.4345 1.43148 72.9439 3.35387 72.8752 5.77356C72.8056 8.20149 71.1424 10.4975 68.9122 11.3585ZM69.1696 11.8045C69.165 11.8026 69.1604 11.8026 69.1568 11.7999C69.0819 11.789 69.0068 11.7796 68.9315 11.7715C68.9901 11.7669 69.0505 11.7587 69.1119 11.7495C69.1137 11.7605 69.1211 11.7669 69.1275 11.7761C69.1334 11.783 69.1409 11.7884 69.1495 11.7917C69.154 11.7962 69.1586 11.7981 69.1623 11.7981C69.1623 11.7981 69.1641 11.8026 69.1669 11.7999C69.1678 11.8026 69.1678 11.8045 69.1696 11.8045ZM69.2584 1.78592C69.6642 2.68254 69.8657 3.71655 69.8574 4.86137C69.851 5.80378 69.7072 6.80115 69.4077 8.00092C69.1064 9.20344 68.7392 10.253 68.2867 11.2046C68.1396 10.7091 67.8678 10.2598 67.4972 9.89949C67.4989 9.88377 67.4974 9.86788 67.4927 9.85279C67.4707 9.7841 67.4478 9.71449 67.4277 9.64397C67.1804 8.84443 66.9954 8.16761 66.8873 7.47156C66.5072 5.00424 67.1144 2.27957 68.4442 0.473498C68.773 0.871896 69.0469 1.31517 69.2584 1.78592ZM66.6757 7.50728C66.7838 8.19692 66.9615 8.86274 67.2023 9.6458C66.8362 9.36752 66.41 9.17884 65.9579 9.09487C65.5057 9.0109 65.0402 9.03397 64.5986 9.16223C63.7661 7.64008 63.6113 5.80012 64.1928 4.22485C64.6251 3.05163 65.6637 1.47819 68.1603 0.494562C66.8763 2.34368 66.2975 5.05003 66.6757 7.50728ZM65.4183 9.26297C66.9505 9.26297 68.1951 10.5259 68.1951 12.0783C68.1951 13.6307 66.9505 14.8909 65.4183 14.8909C65.0411 14.8902 64.668 14.8122 64.3221 14.6618C63.9762 14.5113 63.6648 14.2917 63.407 14.0163C63.4006 14.0071 63.3915 14.0007 63.3851 13.9925C62.9062 13.47 62.6406 12.787 62.6405 12.0783C62.6423 10.5259 63.8879 9.26297 65.4183 9.26297ZM64.169 1.60092C65.5511 0.635604 67.1611 0.25644 68.2757 0.21889C65.5666 1.22358 64.4511 2.90601 63.9913 4.15066C63.3951 5.7699 63.5417 7.65931 64.3879 9.23092C64.2386 9.28743 64.0941 9.35572 63.9556 9.43515C63.835 8.92487 63.5835 8.45478 63.2261 8.07115C62.8686 7.68751 62.4174 7.40354 61.9169 7.24717C61.8328 6.83212 61.7913 6.40954 61.7933 5.98604C61.7933 3.73212 63.0874 2.3565 64.169 1.60092ZM58.2682 10.1422C58.2682 8.59073 59.5128 7.3296 61.045 7.3296C61.3015 7.3296 61.5506 7.36532 61.7869 7.43126C62.2781 7.57231 62.7215 7.84472 63.0692 8.21915C63.417 8.59357 63.6561 9.05581 63.7606 9.55605C63.2797 9.88076 62.9019 10.3364 62.6719 10.8691C62.442 11.4018 62.3694 11.9892 62.4628 12.5619C61.848 12.9351 61.111 13.0513 60.4113 12.8852C59.7984 12.7342 59.254 12.3817 58.8654 11.8843C58.4768 11.3869 58.2664 10.7734 58.2682 10.1422ZM48.9035 22.4467C51.2445 17.894 55.2147 14.661 60.3838 13.0995C60.534 13.1352 60.6879 13.1572 60.8454 13.1654C54.7586 15.4203 50.8488 19.0324 49.2259 23.8984C47.8265 28.0966 48.4319 32.3343 49.1939 35.157C49.035 36.2562 48.9067 37.3596 48.8092 38.466C48.6949 38.2603 48.5403 38.0798 48.3546 37.9353C48.1689 37.7909 47.9559 37.6854 47.7285 37.6252C46.0854 32.6283 46.515 27.0965 48.9035 22.4467ZM48.9164 45.9311C47.7953 45.9201 46.8236 45.3358 46.0268 44.1974C45.3518 43.2303 45.0304 41.9581 45.1174 40.6182C45.1623 39.9304 45.3784 38.683 46.3107 38.0511C46.528 37.9092 46.7751 37.8193 47.0327 37.7885C47.2904 37.7576 47.5517 37.7867 47.7963 37.8734C48.2643 38.0419 48.6123 38.4147 48.7726 38.923C48.6013 41.208 48.6013 43.5829 48.9484 45.9366C48.9381 45.9329 48.9273 45.9311 48.9164 45.9311ZM49.4677 47.5705C48.8257 44.6901 48.7753 41.7347 48.9905 38.9147V38.9083C49.0858 37.6206 49.2378 36.3641 49.4137 35.1533C49.4837 34.6648 49.5582 34.1769 49.6371 33.6898C49.6397 33.6757 49.6395 33.6612 49.6363 33.6472C49.6332 33.6332 49.6272 33.62 49.6189 33.6083C49.6105 33.5967 49.5998 33.5869 49.5875 33.5795C49.5752 33.5721 49.5616 33.5672 49.5474 33.5652C49.4888 33.5542 49.4347 33.5936 49.4237 33.6559L49.2735 34.6093C48.5876 31.8297 48.126 27.8796 49.4292 23.9698C50.716 20.1159 53.4599 17.0551 57.6078 14.846C55.0086 16.5596 53.1687 18.8511 52.1173 21.6994C50.5686 25.8913 51.347 29.7159 51.6227 30.7874C51.6287 30.8104 51.6421 30.8309 51.6607 30.8456C51.6794 30.8603 51.7024 30.8685 51.7262 30.8689C51.7354 30.8689 51.7436 30.8689 51.7528 30.8671C51.7808 30.8596 51.8047 30.8413 51.8195 30.8163C51.8342 30.7913 51.8385 30.7616 51.8315 30.7334C51.5595 29.6765 50.792 25.9078 52.3197 21.7772C53.7466 17.9169 56.6498 15.0869 60.9516 13.3614L61.0322 13.3303H61.0341L61.0386 13.3285C61.0386 13.3285 61.0405 13.3285 61.0405 13.3266C61.1485 13.2845 61.2594 13.2405 61.3729 13.1993C61.3967 13.19 61.416 13.172 61.427 13.149C61.808 13.1004 62.1758 12.9775 62.5095 12.7872C62.5343 12.9001 62.5668 13.0111 62.6066 13.1196C60.7062 13.9256 58.1445 15.3562 56.5024 17.6266C54.7925 19.9913 54.5003 22.694 55.6296 25.6577C55.6375 25.6783 55.6514 25.6961 55.6695 25.7086C55.6877 25.7212 55.7092 25.7281 55.7312 25.7282C55.7441 25.7291 55.7569 25.7259 55.7679 25.7191C55.7814 25.7142 55.7937 25.7067 55.8042 25.6969C55.8147 25.6872 55.8232 25.6754 55.8291 25.6624C55.835 25.6493 55.8382 25.6352 55.8385 25.6209C55.8389 25.6065 55.8363 25.5923 55.8311 25.579C54.907 23.1574 53.7338 17.1256 62.689 13.322C62.8081 13.595 62.9683 13.845 63.1598 14.0648C59.8636 16.4772 56.9054 20.6104 59.2765 24.4314C59.2859 24.447 59.2993 24.4598 59.3152 24.4686C59.3311 24.4775 59.349 24.482 59.3672 24.4818C59.3872 24.482 59.4069 24.4766 59.424 24.4662C59.4481 24.4503 59.465 24.4256 59.4713 24.3975C59.4777 24.3693 59.4728 24.3398 59.4579 24.3151C57.1609 20.6141 60.0788 16.5807 63.3063 14.2251C63.6397 14.563 64.0527 14.8204 64.5125 14.9706C61.4773 18.8557 62.9876 21.8853 64.1571 23.347C64.1674 23.3596 64.1804 23.3697 64.1952 23.3765C64.2099 23.3833 64.226 23.3867 64.2423 23.3864C64.2624 23.3861 64.2821 23.3802 64.2991 23.3693C64.316 23.3584 64.3296 23.343 64.3383 23.3248C64.347 23.3066 64.3504 23.2864 64.3481 23.2663C64.3459 23.2463 64.3381 23.2273 64.3256 23.2115C63.1909 21.7937 61.7338 18.8538 64.7103 15.0704C64.7208 15.0585 64.7277 15.0439 64.7304 15.0283C65.169 15.1375 65.6272 15.1416 66.0676 15.0402C64.6883 18.4151 65.9531 22.1225 66.5777 23.1016C66.738 23.3543 66.8314 23.3873 66.8965 23.3873H66.8983C66.9569 23.3873 67.0109 23.3406 67.0128 23.2811C67.0128 23.2215 66.9743 23.173 66.9129 23.1712C66.5264 23.0027 64.7396 18.6935 66.3103 15.0127C66.3164 15.0005 66.3195 14.987 66.3195 14.9733C66.9209 14.778 67.4462 14.3992 67.8215 13.8902C68.1968 13.3812 68.4034 12.7675 68.4122 12.1351L68.425 12.1415C69.2017 12.4556 70.5287 14.8598 70.7678 17.5359C70.928 19.331 70.6533 21.7699 68.4268 23.1877C68.4029 23.2032 68.386 23.2276 68.3796 23.2554C68.3733 23.2833 68.3781 23.3125 68.393 23.3369C68.4084 23.361 68.4326 23.3782 68.4605 23.3847C68.4884 23.3912 68.5177 23.3865 68.5422 23.3717C70.3492 22.2205 71.2175 20.1397 70.983 17.5158C70.7962 15.4413 69.9389 13.3999 69.1284 12.4483C71.6662 14.1124 73.4604 16.9287 73.5758 19.5371C73.661 21.4118 72.8688 22.9624 71.2852 24.022C71.2612 24.0376 71.2443 24.062 71.2383 24.09C71.2323 24.118 71.2377 24.1472 71.2532 24.1713C71.263 24.1865 71.2764 24.1991 71.2922 24.2078C71.308 24.2166 71.3258 24.2214 71.3438 24.2217C71.3651 24.2217 71.3857 24.2146 71.4025 24.2015C73.0537 23.0988 73.8799 21.4814 73.791 19.5279C73.6656 16.7263 71.6653 13.6966 68.8793 12.0353C72.8843 12.9273 76.0541 16.9305 76.8646 20.4712C77.427 22.9193 76.8491 24.8829 75.2381 26.0021C75.219 26.0155 75.2048 26.0347 75.1973 26.0568C75.1899 26.0789 75.1897 26.1028 75.1967 26.125C75.2038 26.1472 75.2177 26.1666 75.2365 26.1804C75.2553 26.1942 75.278 26.2017 75.3013 26.2017C75.323 26.2015 75.3442 26.1945 75.3617 26.1816C77.0258 25.0258 77.6504 22.9248 77.0762 20.4199C76.3206 17.1265 73.5593 13.4393 69.971 12.1296C70.1542 12.1584 70.3374 12.1877 70.5205 12.2175C81.3789 15.8434 80.3504 24.2455 80.191 25.2254C79.9483 26.7174 79.3924 27.592 78.9894 27.592H78.9693C78.9551 27.5907 78.9408 27.5924 78.9273 27.5969C78.9138 27.6015 78.9013 27.6087 78.8908 27.6183C78.8802 27.6278 78.8717 27.6394 78.8658 27.6524C78.8599 27.6654 78.8568 27.6794 78.8566 27.6937C78.8546 27.7223 78.8639 27.7506 78.8826 27.7723C78.9013 27.7941 78.9278 27.8076 78.9565 27.81H78.9867C79.5673 27.81 80.1608 26.7513 80.4035 25.263C80.5858 24.1337 80.8092 21.1755 78.8978 18.0579C77.4178 15.6456 75.0668 13.7772 71.886 12.4904C81.0886 14.6116 83.0503 21.1306 83.3562 25.1045C83.6493 28.9053 82.5512 32.0165 81.9934 32.1585C81.9654 32.166 81.9415 32.1842 81.9267 32.2092C81.912 32.2342 81.9077 32.264 81.9147 32.2922C81.9204 32.3154 81.9337 32.336 81.9524 32.3507C81.9712 32.3655 81.9943 32.3736 82.0182 32.3737C82.0273 32.3737 82.0356 32.3737 82.0447 32.3719C82.8342 32.1722 83.8517 28.757 83.5696 25.0899C83.2417 20.8605 81.0794 13.7983 70.5709 12.005H70.569C70.4379 11.9611 70.3064 11.9187 70.1743 11.8777C70.8925 11.935 71.6081 12.0218 72.3192 12.1378C73.6152 12.3925 74.76 12.6681 75.7683 12.9814C77.2009 13.4508 78.5675 14.1018 79.8348 14.9184C79.8503 14.9275 79.8631 14.9358 79.8778 14.9495C81.3532 16.022 82.477 17.415 83.5724 19.3008C87.8787 26.71 85.6962 34.4664 84.1393 36.1644C83.9854 36.3311 83.6923 36.593 83.4515 36.4749C83.4257 36.4621 83.3959 36.4601 83.3687 36.4692C83.3414 36.4783 83.3188 36.4978 83.3059 36.5234C83.2931 36.5495 83.2912 36.5794 83.3004 36.6069C83.3097 36.6343 83.3294 36.657 83.3553 36.67C83.4268 36.7053 83.5055 36.7235 83.5852 36.7231C83.7674 36.7231 84.0056 36.6278 84.2968 36.3128C85.8831 34.5837 88.1214 26.6981 83.7592 19.1918C83.1538 18.1486 82.5402 17.2538 81.8625 16.4799C83.6108 18.0644 85.1211 20.158 86.2009 22.9074C88.8935 29.7653 87.6159 37.432 86.5306 38.8204C86.3008 38.7105 86.0498 38.652 85.7951 38.6491H85.7842C84.7538 38.6583 83.8407 39.2417 83.5128 40.109C83.5078 40.1223 83.5055 40.1365 83.506 40.1506C83.5065 40.1648 83.5097 40.1788 83.5156 40.1917C83.5215 40.2046 83.5298 40.2163 83.5402 40.226C83.5506 40.2357 83.5627 40.2432 83.576 40.2482C83.5893 40.2532 83.6035 40.2555 83.6177 40.2551C83.6318 40.2546 83.6458 40.2513 83.6587 40.2455C83.6717 40.2396 83.6833 40.2312 83.693 40.2209C83.7027 40.2105 83.7103 40.1983 83.7152 40.185C84.0056 39.4157 84.8582 38.8735 85.7869 38.8689C86.0104 38.8671 86.2338 38.9193 86.4417 39.0155C86.4491 39.0356 86.4624 39.053 86.4799 39.0653C86.4975 39.0776 86.5183 39.0842 86.5397 39.0842C86.5489 39.0842 86.5571 39.0842 86.5663 39.0778C86.8308 39.2278 87.0606 39.432 87.2406 39.6772C87.4205 39.9223 87.5465 40.2028 87.6104 40.5001C87.7642 41.2429 87.4959 42.014 87.2779 42.5305C86.395 44.6489 84.1997 46.9322 82.1473 47.0237C82.1711 46.8992 82.1931 46.7755 82.2123 46.6501C82.2166 46.6217 82.2096 46.5928 82.1928 46.5695C82.176 46.5462 82.1508 46.5304 82.1226 46.5255C82.0939 46.5216 82.0649 46.5291 82.0418 46.5464C82.0186 46.5637 82.0032 46.5894 81.9989 46.618C81.9724 46.7783 81.9449 46.9367 81.9165 47.0952C81.9119 47.108 81.9101 47.1217 81.9073 47.1373C81.0162 51.7816 78.189 55.7885 74.2645 57.9169C71.418 59.4638 67.6676 60.1974 63.7056 59.9932C61.1522 59.8595 59.0439 59.3667 57.2644 58.4903C57.2546 58.4845 57.2445 58.4793 57.2342 58.4747C53.4791 56.599 50.5741 52.5271 49.4677 47.5705ZM56.4465 58.8337C56.746 58.7852 57.0299 58.7385 57.1957 58.689C58.9963 59.5719 61.1247 60.0665 63.6974 60.2029C64.1379 60.2267 64.5757 60.2386 65.0116 60.2386C68.1906 60.2386 71.1854 59.6278 73.6243 58.4747C73.6365 58.4716 73.648 58.4663 73.6582 58.4591C73.6582 58.4591 73.66 58.4591 73.66 58.4573C73.6646 58.4573 73.6665 58.4555 73.671 58.4509C73.675 58.4501 73.6787 58.4485 73.682 58.4463H73.6866C73.9211 58.3913 75.2619 58.5974 76.2812 58.8749C76.1228 59.3081 75.9909 59.7651 75.8645 60.2084C75.5128 61.4283 75.1511 62.6895 74.2196 63.4542C73.8011 63.7967 73.3514 64.1136 72.9164 64.4213C72.4218 64.7703 71.9099 65.1311 71.4391 65.5332C70.4674 66.3639 69.6495 67.3942 68.9571 68.2954C68.1108 69.3992 67.2939 70.5251 66.5072 71.6722C65.7213 70.5253 64.9053 69.3993 64.06 68.2954C63.3677 67.3942 62.5498 66.3648 61.5762 65.5332C61.1055 65.1311 60.5954 64.7703 60.1008 64.4213C59.6648 64.1136 59.2161 63.7976 58.7975 63.4542C57.4018 62.3056 56.3048 60.8363 55.6003 59.1717L55.5371 59.016C55.7413 58.9482 56.1122 58.8887 56.4465 58.8337ZM47.3521 72.033C47.3286 71.8148 47.2947 71.5978 47.2504 71.3828C46.9079 69.8157 45.3912 68.6599 43.8306 68.6599C45.1352 67.9416 46.2314 66.8975 47.0123 65.6294C47.3338 65.1037 47.6003 64.5377 47.8604 63.9881C48.2771 63.1071 48.7085 62.1976 49.3596 61.4723C50.7865 59.875 53.1366 59.2861 55.2477 58.8685L55.2907 58.9766L55.2999 58.9986L55.3997 59.2532C56.1188 60.9512 57.238 62.4501 58.662 63.6218C59.0851 63.9689 59.5385 64.2895 59.9762 64.5981C60.4662 64.9452 60.9745 65.3033 61.4361 65.6962C62.395 66.5159 63.2046 67.5353 63.8879 68.4273C64.7537 69.5565 65.5886 70.7091 66.3918 71.8838C66.4184 71.9231 66.466 71.9387 66.5063 71.9277C66.528 71.9332 66.5508 71.9319 66.5718 71.924C66.5927 71.9162 66.6108 71.9021 66.6235 71.8838C67.4264 70.7089 68.2613 69.5563 69.1275 68.4273C69.8107 67.5353 70.6194 66.515 71.5792 65.6962C72.0408 65.3033 72.5491 64.9443 73.0391 64.5981C73.4894 64.2895 73.9278 63.9638 74.3534 63.6218C75.3388 62.8158 75.7097 61.5208 76.0697 60.2689C76.2235 59.7276 76.3847 59.1707 76.5917 58.6624C77.2291 58.7018 81.7892 59.0691 83.6502 61.4668C84.2336 62.2187 84.6723 63.0906 85.0927 63.9341C85.3748 64.4992 85.6678 65.0835 86.0021 65.6303C86.7835 66.898 87.8796 67.942 89.1838 68.6609C87.6223 68.6609 86.1075 69.8167 85.7622 71.3837C85.7194 71.5989 85.6861 71.8158 85.6623 72.034C85.6056 72.4818 85.5515 72.9086 85.3363 73.2713C85.0103 73.8208 84.4159 74.0818 83.7876 74.3584C83.5202 74.4747 83.2472 74.5956 82.9981 74.7403C81.3908 75.6571 80.169 77.8909 79.5573 79.6795L79.5554 79.6859C79.2019 81.0258 78.7989 83.7615 78.863 86.629V86.6309C78.8649 86.6528 78.8649 86.6748 78.8649 86.6968C78.8649 86.6986 78.8649 86.7014 78.8667 86.7032C78.9427 89.6459 79.5197 92.7149 81.1618 94.5448C78.1313 95.7629 73.2214 96.3792 66.5594 96.3792H66.2169C59.6758 96.3664 54.8429 95.7491 51.8462 94.5448C54.6359 91.4135 54.3144 83.8412 53.4453 79.7455L53.4297 79.6841C52.8179 77.889 51.5989 75.6452 50.0099 74.7385C49.7539 74.5969 49.4903 74.4694 49.2204 74.3566C48.6956 74.1258 48.1965 73.906 47.8567 73.5222C47.7873 73.4441 47.7256 73.3595 47.6726 73.2694C47.4629 72.9077 47.4089 72.4818 47.3521 72.033ZM45.4874 86.8269C45.5046 86.8264 45.5215 86.8219 45.5366 86.8137C45.5518 86.8054 45.5647 86.7937 45.5745 86.7795C45.5842 86.7653 45.5905 86.749 45.5927 86.7319C45.5949 86.7148 45.593 86.6975 45.5872 86.6812C46.0799 85.9605 46.4967 85.2397 46.7778 84.4383C47.1854 83.2779 47.2724 82.0525 47.331 80.7932C47.4565 78.1235 47.6305 75.8402 47.8622 73.8281C48.2221 74.1542 48.6865 74.3602 49.1426 74.558C49.4008 74.6716 49.6692 74.7907 49.9101 74.929C51.4459 75.8054 52.6329 77.998 53.2291 79.7482L53.2401 79.7967L53.2603 79.8892C53.2459 79.8974 53.2335 79.9084 53.2237 79.9217C53.2139 79.9349 53.207 79.9501 53.2035 79.9662C53.0398 80.9564 52.8597 81.9438 52.6631 82.9281C52.466 83.9138 52.2852 84.9028 52.1209 85.8945C51.9771 86.8085 51.8279 87.7555 51.3828 88.5771C50.9899 89.3024 50.3891 89.8886 49.8102 90.4564C46.4261 93.7562 42.9294 97.1715 39.0214 99.9529L39.0123 99.9593L38.9628 99.995C38.9436 100.01 38.9293 100.03 38.9216 100.053C37.6303 101.391 34.4934 103.816 32.7744 104.439C29.8675 105.491 27.3379 105.59 25.8258 105.65C25.3853 105.667 25.0363 105.681 24.7973 105.714C24.3311 105.78 23.7825 105.617 23.5755 105.349C23.472 105.217 23.4537 105.07 23.5215 104.901C23.5919 104.737 23.7246 104.607 23.8906 104.54C24.3806 104.326 25.7305 104.036 26.8515 103.816C27.7454 103.662 28.4854 103.517 28.5523 103.504C28.5799 103.498 28.6043 103.482 28.6202 103.459C28.6361 103.435 28.6423 103.407 28.6375 103.379C28.6354 103.365 28.6305 103.352 28.6231 103.34C28.6156 103.328 28.6059 103.317 28.5943 103.309C28.5828 103.301 28.5697 103.295 28.5559 103.292C28.542 103.289 28.5277 103.289 28.5138 103.291C28.446 103.302 27.7024 103.43 26.8131 103.604C25.6857 103.799 24.3201 104.014 23.7843 103.995C23.6686 103.994 23.5529 103.996 23.4372 104.001C23.0233 104.017 22.504 104.037 22.2988 103.779C22.188 103.639 22.1706 103.413 22.2466 103.107C22.2704 103.008 22.4069 102.94 22.6496 102.905L27.7976 101.964C27.8255 101.959 27.8504 101.944 27.8671 101.921C27.8839 101.898 27.8911 101.869 27.8874 101.841C27.8764 101.782 27.8223 101.74 27.7637 101.751C27.7161 101.757 22.9436 102.474 21.579 102.155C21.0084 102.021 20.6503 101.808 20.7593 101.209C21.0157 100.788 22.1633 100.877 22.9243 100.937C23.2174 100.959 23.4693 100.979 23.636 100.97C24.0435 100.946 24.3512 100.948 24.5967 100.948C25.2561 100.952 25.5886 100.954 26.5841 100.464C26.6013 100.455 26.616 100.442 26.6266 100.426C26.6372 100.409 26.6434 100.391 26.6446 100.371C26.6451 100.352 26.6404 100.332 26.6309 100.315C26.6214 100.297 26.6075 100.283 26.5905 100.273C25.3862 99.5673 24.9227 98.0928 24.8898 96.948C24.8513 95.6118 25.2634 94.3158 25.66 93.0611C25.7424 92.7992 25.899 92.496 26.1243 92.5024C26.2526 92.5088 26.3652 92.616 26.4367 92.7067C26.5447 92.8422 26.6235 92.9906 26.6794 93.1463C26.6922 93.204 26.7096 93.2598 26.7288 93.3194C26.8799 93.9586 26.7004 94.7215 26.5374 95.4139L26.5108 95.5266C26.2434 96.6696 26.3304 98.0296 27.3791 98.4225C27.7885 98.5764 28.2748 98.5196 28.6768 98.2668C29.5497 97.7191 29.7026 96.6806 29.7163 96.1091C29.7365 95.3049 29.4755 94.6648 28.9983 94.3534C28.7052 94.162 28.3728 94.074 28.0531 93.9889C27.5494 93.8551 27.1153 93.7379 26.9422 93.2727C26.9254 93.2059 26.9059 93.1399 26.8836 93.0748C26.8387 92.8642 26.8534 92.6792 26.933 92.5381C27.0228 92.3779 27.1913 92.2725 27.4368 92.224C29.35 91.8439 31.0123 93.1847 32.0948 94.2233C32.2991 94.4184 32.5005 94.619 32.7002 94.8186C33.6005 95.7125 34.5292 96.6384 35.6969 97.1632C35.7182 97.1717 35.7416 97.1736 35.764 97.1685C35.7864 97.1634 35.8068 97.1517 35.8224 97.1348C36.8051 96.0138 38.1285 94.7289 39.5279 93.3688C41.497 91.4547 43.5348 89.4746 44.806 87.7729C45.0414 87.4496 45.2722 87.1392 45.4874 86.8269ZM27.0008 93.7517C27.2618 94.0026 27.6328 94.1006 27.9945 94.1977C28.3004 94.2792 28.6173 94.3625 28.8792 94.5347C29.4645 94.9194 29.5084 95.7592 29.5002 96.1036C29.4874 96.6293 29.3491 97.5863 28.5614 98.0809C28.2171 98.298 27.8022 98.3493 27.4523 98.2165C26.5365 97.8721 26.4742 96.6256 26.7215 95.576L26.748 95.4643C26.8772 94.9075 27.0182 94.3094 27.0008 93.7517ZM130.838 134.37C130.82 134.398 130.809 134.398 130.808 134.398C123.9 134.398 116.279 134.512 108.91 134.623C105.624 134.673 102.395 134.722 99.3104 134.758C92.4772 134.84 58.0007 134.659 32.8248 134.527C18.7755 134.455 7.679 134.398 4.1905 134.398C4.18409 134.398 4.17493 134.398 4.15844 134.37C3.22976 132.752 12.4781 104.486 20.0815 90.5269C20.7345 89.3244 21.4114 88.2016 22.4911 87.6511C23.3127 87.2317 24.2936 87.1941 25.1618 87.1584C28.8829 87.0155 35.8159 86.8992 45.2227 86.8287C45.034 87.0943 44.8362 87.3626 44.6329 87.6365C43.3727 89.3262 41.3413 91.2999 39.3786 93.2067C37.9993 94.5466 36.6952 95.8123 35.7124 96.9269C34.6125 96.4122 33.7168 95.5229 32.8504 94.6611C32.6487 94.4595 32.4454 94.2596 32.2404 94.0612C31.1231 92.9887 29.4031 91.6095 27.3937 92.0042C27.0897 92.0656 26.8644 92.2103 26.7453 92.4264C26.7069 92.4951 26.6791 92.5692 26.6629 92.6462C26.6427 92.6197 26.6244 92.5931 26.6024 92.5665C26.4568 92.3843 26.2984 92.289 26.1344 92.2808C25.9348 92.2698 25.6463 92.3843 25.453 92.9906C25.0684 94.2013 24.6352 95.577 24.6718 96.9498C24.7057 98.0992 25.1554 99.5646 26.3121 100.349C25.4979 100.731 25.203 100.731 24.5976 100.725C24.3476 100.723 24.038 100.72 23.6213 100.747C23.4702 100.756 23.2247 100.736 22.9399 100.714C22.0653 100.645 20.8682 100.552 20.5596 101.113C20.5545 101.123 20.5508 101.134 20.5486 101.144C20.3645 102.09 21.1806 102.278 21.5295 102.36C22.1047 102.495 23.2284 102.457 24.3696 102.362L22.6148 102.683C22.4911 102.7 22.1092 102.758 22.0378 103.048C21.9425 103.423 21.9746 103.713 22.1303 103.909C22.4032 104.251 22.9811 104.23 23.4446 104.212C23.5664 104.207 23.679 104.202 23.777 104.207C23.8897 104.209 24.0399 104.202 24.213 104.19C24.0481 104.24 23.9089 104.289 23.8054 104.333C23.588 104.425 23.4148 104.597 23.3218 104.814C23.2266 105.056 23.2541 105.287 23.407 105.48C23.6451 105.788 24.1534 105.942 24.5912 105.942C24.6736 105.942 24.7515 105.935 24.8275 105.924C25.0546 105.893 25.3981 105.88 25.834 105.863C27.3571 105.803 29.9087 105.705 32.8458 104.641C33.0501 104.566 33.2735 104.47 33.5098 104.351C33.2039 104.573 32.8916 104.808 32.572 105.061C29.8812 107.179 26.8726 110.535 27.8169 114.469C28.3728 116.784 31.0095 117.756 33.3385 118.613C33.5748 118.701 33.8066 118.787 34.0328 118.873C35.8333 119.556 36.9223 119.9 38.4536 119.9C38.9418 119.9 39.4757 119.865 40.0893 119.794C48.5335 118.829 57.6243 116.144 66.5109 113.404C68.6437 114.065 70.7814 114.71 72.9237 115.339C72.9365 115.344 72.9475 115.348 72.9576 115.35C79.8476 117.37 86.5498 119.064 92.9288 119.793C93.5424 119.864 94.0763 119.899 94.5645 119.899C96.094 119.899 97.1829 119.555 98.9835 118.872C99.2088 118.786 99.4433 118.701 99.6795 118.613C102.008 117.756 104.645 116.782 105.201 114.468C106.145 110.533 103.136 107.177 100.444 105.06C100.136 104.817 99.8229 104.579 99.5055 104.348C99.7437 104.466 99.9671 104.565 100.174 104.64C103.111 105.704 105.663 105.802 107.186 105.862C107.62 105.879 107.964 105.893 108.192 105.923C108.268 105.934 108.346 105.941 108.429 105.941C108.867 105.941 109.374 105.787 109.613 105.479C109.687 105.387 109.733 105.276 109.748 105.158C109.763 105.041 109.746 104.922 109.698 104.813C109.605 104.596 109.432 104.424 109.215 104.332C109.081 104.277 108.945 104.23 108.807 104.189C108.98 104.202 109.128 104.209 109.243 104.206C109.34 104.202 109.454 104.206 109.575 104.211C110.037 104.228 110.617 104.25 110.89 103.908C111.045 103.713 111.078 103.422 110.982 103.047C110.908 102.756 110.528 102.7 110.407 102.682L108.649 102.361C109.788 102.456 110.914 102.494 111.49 102.359C111.837 102.277 112.653 102.089 112.47 101.144C112.468 101.133 112.465 101.122 112.459 101.112C112.152 100.549 110.954 100.644 110.079 100.713C109.795 100.735 109.548 100.755 109.398 100.746C108.981 100.722 108.671 100.724 108.421 100.724C107.816 100.729 107.521 100.73 106.707 100.349C107.861 99.5637 108.312 98.0983 108.344 96.9489C108.383 95.5751 107.967 94.2618 107.566 92.9897C107.373 92.3834 107.091 92.2689 106.885 92.2799C106.718 92.2863 106.561 92.3834 106.417 92.5656C106.396 92.5897 106.377 92.6148 106.36 92.6407C106.343 92.5591 106.314 92.4806 106.273 92.4081C106.151 92.1947 105.932 92.0592 105.623 92.0042C103.579 91.6424 101.879 93.0043 100.779 94.0612C100.573 94.2563 100.371 94.4587 100.169 94.6583C99.3031 95.522 98.4074 96.4113 97.3066 96.926C96.3238 95.8123 95.0206 94.5466 93.6404 93.2058C91.6768 91.2981 89.6463 89.3253 88.3861 87.6356C88.1828 87.364 87.9825 87.0901 87.7853 86.814C98.2178 86.8827 105.84 87.0027 109.833 87.1566C110.698 87.1923 111.681 87.2289 112.503 87.6493C113.583 88.2016 114.261 89.3244 114.913 90.5251C122.518 104.487 131.767 132.753 130.838 134.37Z" fill="black"/>
<path d="M72.9584 115.355H72.949C72.9393 115.353 72.93 115.35 72.9219 115.344C72.9359 115.349 72.9472 115.353 72.9584 115.355Z" fill="black"/>
<path d="M78.8694 86.6978C78.8612 86.6767 78.8606 86.6534 78.8676 86.6318C78.8694 86.6538 78.8694 86.6758 78.8694 86.6978Z" fill="black"/>
<path d="M68.3629 11.5333C68.3629 11.538 68.361 11.5399 68.3563 11.5427C68.361 11.5427 68.3629 11.5427 68.3657 11.5408C68.3657 11.538 68.3657 11.5352 68.3629 11.5333Z" fill="black"/>
</g>
<defs>
<clipPath id="clip0_368_2916">
<rect width="135" height="135" fill="white"/>
</clipPath>
</defs>
</svg>
