<svg width="117" height="117" viewBox="0 0 117 117" fill="none" xmlns="http://www.w3.org/2000/svg">
<g clip-path="url(#clip0_368_2987)">
<path d="M99.45 106.584C99.45 106.584 99.664 106.37 99.45 106.584L96.8817 78.0475L95.4549 76.4067C58.928 28.8933 58.714 29.3213 57.0732 29.3213H56.1457L55.4323 29.5353C54.5049 30.2487 41.164 39.8085 32.5317 46.3719L30.6768 47.7987L70.2 99.3073L90.3183 106.584H0V111.293H117V106.584H99.45ZM37.4543 48.5835C41.8774 45.3018 52.65 37.3115 56.8591 34.1012C61.5677 39.9512 78.4043 61.4963 90.5323 77.1914L71.1274 92.8865L37.4543 48.5835ZM74.6232 95.8116L92.1732 81.7573L94.5274 103.088L74.6232 95.8116Z" fill="white"/>
<path d="M27.1098 43.875L54.7189 23.9707L53.2921 22.1158C53.1494 21.6164 44.9451 11.5573 42.8049 8.77496C40.6646 6.42069 38.0963 5.70728 36.4555 5.70728C35.0287 5.70728 34.1012 6.20667 33.8872 6.20667L33.4591 6.42069C33.2451 6.63471 25.9683 10.8439 20.3323 15.7664C15.9091 19.5475 15.4098 21.8304 15.1957 23.7567C14.4823 27.5378 20.5463 35.9561 25.9683 42.2341L27.1098 43.875ZM19.6902 23.9707C19.6902 23.4713 19.6902 22.3298 23.186 19.2622C27.8945 15.267 34.1726 11.2719 35.3854 10.6298H36.3128C37.4543 10.6298 38.1677 11.1292 39.0951 12.0567C40.736 13.9115 45.6585 19.9756 47.9415 23.2573L28.0372 37.5256C23.828 32.175 19.6189 26.0396 19.6189 24.6841C19.6902 24.4701 19.6902 24.1847 19.6902 23.9707Z" fill="white"/>
<path d="M48.4408 50.4384C48.2268 49.939 47.5134 49.939 46.8 50.4384L45.6585 51.3658C44.9451 51.8652 44.7311 52.5073 45.1591 53.0067L67.4177 82.4707C67.6317 82.9701 68.3451 82.9701 69.0585 82.4707L70.2 81.5433C70.9134 81.0439 71.1274 80.4018 70.6994 79.9024L48.4408 50.4384Z" fill="white"/>
</g>
<defs>
<clipPath id="clip0_368_2987">
<rect width="117" height="117" fill="white"/>
</clipPath>
</defs>
</svg>
