<svg width="108" height="108" viewBox="0 0 108 108" fill="none" xmlns="http://www.w3.org/2000/svg">
<g clip-path="url(#clip0_368_2976)">
<path d="M107.999 54.0008C107.999 83.8245 83.8224 107.999 54.0022 107.999C24.1723 107.999 0 83.8245 0 54.0008C0 24.178 24.1723 0.000366211 54.0022 0.000366211C83.8224 0.000366211 107.999 24.178 107.999 54.0008Z" fill="#35BED1"/>
<path opacity="0.15" d="M107.341 45.561C96.291 39.1439 85.2494 32.7232 74.2034 26.3061C75.0626 26.9771 75.8884 27.69 76.6776 28.4422C71.2042 24.834 64.587 22.7218 57.4511 22.7218C38.615 22.7218 23.3119 37.4849 23.3119 55.6978C23.3119 66.2339 27.268 74.7402 35.2334 80.7766C34.7164 80.7235 35.3821 81.5114 34.8917 81.3848L74.0493 104.142C93.9371 96.1789 108 76.7408 108 54.0017C107.998 51.1754 107.777 48.3535 107.341 45.561Z" fill="black"/>
<path d="M54.0022 19.3835C35.7796 19.3835 21.0103 34.1538 21.0103 52.372C21.0103 65.0831 26.9422 83.1004 38.7389 81.6247C45.9554 80.7226 37.6085 71.263 42.8686 69.2384C49.0033 66.8775 61.5905 84.669 71.7043 81.63C80.6258 78.9548 86.9853 64.0191 86.9853 52.372C86.9844 34.1538 72.216 19.3835 54.0022 19.3835ZM67.9137 73.6894C64.0054 73.6894 60.8292 70.5185 60.8292 66.6066C60.8299 64.728 61.5765 62.9265 62.905 61.5982C64.2335 60.2698 66.0351 59.5234 67.9137 59.5229C68.8442 59.5225 69.7655 59.7054 70.6252 60.0612C71.4849 60.417 72.2661 60.9387 72.924 61.5966C73.5819 62.2545 74.1038 63.0355 74.4597 63.8952C74.8156 64.7548 74.9987 65.6762 74.9983 66.6066C74.9985 67.5369 74.8154 68.4582 74.4595 69.3178C74.1035 70.1773 73.5816 70.9583 72.9237 71.616C72.2658 72.2738 71.4847 72.7955 70.625 73.1512C69.7654 73.507 68.8441 73.6899 67.9137 73.6894Z" fill="white"/>
<path d="M78.9952 48.7868C78.9952 49.8468 78.5741 50.8634 77.8245 51.613C77.075 52.3625 76.0583 52.7836 74.9983 52.7836C73.9383 52.7836 72.9217 52.3625 72.1721 51.613C71.4226 50.8634 71.0015 49.8468 71.0015 48.7868C71.0015 47.7267 71.4226 46.7101 72.1721 45.9606C72.9217 45.211 73.9383 44.7899 74.9983 44.7899C76.0583 44.7899 77.075 45.211 77.8245 45.9606C78.5741 46.7101 78.9952 47.7267 78.9952 48.7868Z" fill="#FF8969"/>
<path d="M71.9115 34.0112C71.9115 35.071 71.4905 36.0874 70.7411 36.8368C69.9917 37.5862 68.9753 38.0072 67.9155 38.0072C66.8557 38.0072 65.8393 37.5862 65.0899 36.8368C64.3406 36.0874 63.9196 35.071 63.9196 34.0112C63.9196 32.9514 64.3406 31.935 65.0899 31.1857C65.8393 30.4363 66.8557 30.0153 67.9155 30.0153C68.9753 30.0153 69.9917 30.4363 70.7411 31.1857C71.4905 31.935 71.9115 32.9514 71.9115 34.0112Z" fill="#FF8969"/>
<path d="M57.9991 28.0501C57.9988 29.11 57.5776 30.1264 56.8281 30.8757C56.0786 31.6251 55.0621 32.0461 54.0022 32.0461C52.9427 32.0461 51.9265 31.6252 51.1773 30.8759C50.4281 30.1267 50.0071 29.1105 50.0071 28.051C50.0071 26.9914 50.4281 25.9753 51.1773 25.226C51.9265 24.4768 52.9427 24.0559 54.0022 24.0559C55.0616 24.0566 56.0774 24.4776 56.8267 25.2264C57.576 25.9752 57.9977 26.9907 57.9991 28.0501Z" fill="#FF8969"/>
<path d="M41.9001 34.0112C41.9001 35.071 41.4791 36.0874 40.7297 36.8368C39.9803 37.5862 38.964 38.0072 37.9042 38.0072C36.8444 38.0072 35.828 37.5862 35.0786 36.8368C34.3292 36.0874 33.9082 35.071 33.9082 34.0112C33.9082 32.9514 34.3292 31.935 35.0786 31.1857C35.828 30.4363 36.8444 30.0153 37.9042 30.0153C38.964 30.0153 39.9803 30.4363 40.7297 31.1857C41.4791 31.935 41.9001 32.9514 41.9001 34.0112Z" fill="#FF8969"/>
<path d="M34.7987 48.7867C34.7987 49.8465 34.3777 50.8629 33.6283 51.6123C32.8789 52.3617 31.8626 52.7827 30.8028 52.7827C29.743 52.7827 28.7266 52.3617 27.9772 51.6123C27.2278 50.8629 26.8068 49.8465 26.8068 48.7867C26.8068 47.7269 27.2278 46.7106 27.9772 45.9612C28.7266 45.2118 29.743 44.7908 30.8028 44.7908C31.8626 44.7908 32.8789 45.2118 33.6283 45.9612C34.3777 46.7106 34.7987 47.7269 34.7987 48.7867Z" fill="#FF8969"/>
<path d="M37.9042 62.2052C37.904 62.9956 37.6694 63.7681 37.2302 64.4251C36.791 65.0822 36.1668 65.5942 35.4366 65.8965C34.7063 66.1988 33.9028 66.2777 33.1277 66.1234C32.3526 65.969 31.6407 65.5883 31.082 65.0293C30.5233 64.4703 30.1428 63.7582 29.9888 62.9831C29.8348 62.2079 29.9141 61.4044 30.2167 60.6743C30.5193 59.9442 31.0317 59.3203 31.6889 58.8813C32.3461 58.4424 33.1187 58.2082 33.9091 58.2084C34.4338 58.2085 34.9534 58.312 35.4382 58.5129C35.923 58.7138 36.3634 59.0083 36.7344 59.3794C37.1054 59.7505 37.3996 60.1911 37.6003 60.676C37.801 61.1608 37.9043 61.6805 37.9042 62.2052Z" fill="#FF8969"/>
</g>
<defs>
<clipPath id="clip0_368_2976">
<rect width="108" height="108" fill="white"/>
</clipPath>
</defs>
</svg>
