<svg width="118" height="118" viewBox="0 0 118 118" fill="none" xmlns="http://www.w3.org/2000/svg">
<path d="M106.299 59C106.299 84.7128 85.3069 105.557 59.412 105.557C33.5171 105.557 12.5251 84.7128 12.5251 59C12.5251 33.2872 33.5171 12.4427 59.412 12.4427C85.3069 12.4427 106.299 33.2872 106.299 59Z" fill="#00ECA6"/>
<path d="M111.82 40.7892L64.3561 34.197C63.6969 33.373 62.6257 32.8785 61.5545 32.8785H56.6103C55.4567 32.8785 54.4679 33.373 53.8086 34.197L6.59217 40.7068C5.02653 40.954 3.87289 42.2724 3.87289 43.9204V90.0657C3.87289 91.0545 4.2849 91.8785 5.02652 92.5378C5.60334 93.0322 6.34496 93.3618 7.08658 93.3618H7.49859L53.2318 86.5224C53.8087 87.7584 55.1271 88.7473 56.6927 88.7473H61.6369C63.2025 88.7473 64.4385 87.8408 65.0978 86.5224L111.078 93.3618H111.49C112.232 93.3618 112.973 93.0322 113.55 92.5378C114.292 91.9609 114.704 91.0545 114.704 90.0657V44.0028C114.621 42.3548 113.468 41.0364 111.82 40.7892Z" fill="#2859B5"/>
<path d="M116.27 33.2081C116.27 33.2081 111.737 36.4218 104.321 37.2458L104.568 20.8478C99.2123 26.3687 93.5265 27.6872 86.5223 25.7095C79.0237 23.6495 73.9972 21.919 68.3115 23.6495C61.0601 25.7095 59 32.1369 58.9176 32.5489C58.7528 32.2193 56.6927 25.7095 49.5238 23.6495C43.7556 22.0014 38.8115 23.6495 31.3129 25.7095C24.2263 27.6048 18.5405 26.3687 13.2668 20.8478L13.514 37.1634C6.34498 36.257 2.06006 33.2081 2.06006 33.2081C1.89526 33.0433 2.06006 78.9414 2.06006 78.9414C2.06006 78.9414 7.99302 83.1439 17.3869 83.1439C26.7807 83.1439 36.669 75.9749 45.4036 75.9749C54.1383 75.9749 59 79.8478 59 79.8478H59.412C59.412 79.8478 64.2737 75.9749 73.0084 75.9749C81.743 75.9749 91.6313 83.1439 101.025 83.1439C110.419 83.1439 116.352 78.9414 116.352 78.9414C116.352 78.9414 116.434 33.0433 116.27 33.2081Z" fill="white"/>
<path d="M118 40.3771V35.1858C118 32.6313 118 32.1369 116.929 31.7249C116.434 31.4777 115.775 31.5601 115.363 31.8897C115.281 31.8897 111.82 34.3618 106.052 35.3506L106.216 20.7654C106.216 20.1062 105.804 19.5294 105.145 19.2822C104.568 19.035 103.827 19.1998 103.332 19.6118C98.5531 24.5559 93.6089 25.8743 86.852 24.0615L84.9567 23.5671C78.2821 21.7542 73.4204 20.3534 67.7346 22.0014C63.0377 23.4023 60.236 26.3688 58.7528 28.7584C57.2696 26.3688 54.4679 23.4023 49.7709 22.0014C44.0852 20.3534 39.2235 21.6718 32.5489 23.5671L30.6536 24.0615C23.8966 25.8743 18.9525 24.5559 14.1732 19.6118C13.7612 19.1998 13.0196 19.035 12.3603 19.2822C11.7835 19.5294 11.2891 20.1062 11.2891 20.7654L11.5363 35.3506C6.01536 34.2794 2.63687 31.9721 2.63687 31.9721C2.22486 31.6425 1.56564 31.6425 1.07123 31.8073C-5.89387e-07 32.2193 0 32.7137 0 35.2682V56.1984C0 67.6523 0.082401 79.0238 0.082401 79.0238C0.082401 79.5182 0.329609 80.095 0.74162 80.3422C0.988827 80.507 7.2514 84.8743 17.0573 84.8743C22.1662 84.8743 27.2751 82.9791 32.2193 81.0838C36.8338 79.271 41.2011 77.7053 45.1564 77.7053C53.1494 77.7053 57.6816 81.1662 57.764 81.1662C58.176 81.4959 58.588 81.4959 58.9176 81.4959C59.3296 81.5783 59.824 81.4134 60.0712 81.1662C60.1536 81.1662 64.6033 77.7053 72.6788 77.7053C76.7165 77.7053 81.0014 79.3534 85.6159 81.0838C90.5601 82.8967 95.5866 84.8743 100.778 84.8743C110.584 84.8743 116.846 80.507 117.094 80.3422C117.506 80.0126 117.753 79.5182 117.753 79.0238C117.753 79.0238 117.835 67.6523 117.835 56.1984C118 50.4302 118 44.6621 118 40.3771ZM45.3212 74.4093C40.7067 74.4093 35.9274 76.2221 31.2304 78.035C26.6159 79.8478 21.7542 81.5783 17.3045 81.5783C10.3003 81.5783 5.27374 79.1062 3.5433 78.1174C3.46089 63.4498 3.46089 43.1788 3.46089 36.0098C5.35615 36.9162 8.15782 37.9875 11.7011 38.6467L12.1131 71.3604C12.1131 71.8548 12.3603 72.3492 12.6899 72.5964C13.0196 72.8436 19.7765 77.9526 29.4176 74.4093C30.9008 73.8324 32.3841 73.2556 33.7849 72.5964C39.8003 70.0419 44.5796 67.9819 49.1941 70.9484C51.5014 72.4316 53.7263 74.5741 55.2095 76.2221C52.9846 75.2333 49.5237 74.4093 45.3212 74.4093ZM57.1871 35.021L56.7751 73.1732C55.2095 71.6076 53.2318 69.7947 51.007 68.3939C48.7821 66.9931 46.5573 66.4162 44.3324 66.4162C40.4595 66.4162 36.5866 68.0643 32.5489 69.7123C31.148 70.2891 29.7472 70.866 28.264 71.5252C21.8366 73.9972 16.9749 71.6076 15.3268 70.6188L14.9148 39.1411L14.8324 35.9274L14.6676 24.7207C19.5293 28.4288 24.9679 29.2528 31.5601 27.44L33.5377 26.9456C39.9651 25.1327 44.1676 23.9791 48.9469 25.3799C52.9846 26.5336 55.2095 29.2528 56.3631 31.0657L57.2696 32.8785V33.9498L57.1871 35.021ZM60.8952 73.0908L60.4832 33.785V32.7137C60.648 32.3841 60.8953 31.8073 61.2249 31.1481C62.2961 29.2528 64.5209 26.3688 68.7235 25.1327C73.5028 23.7319 77.7877 24.8855 84.1327 26.6984L86.1103 27.1928C92.7025 29.0056 98.1411 28.0992 103.003 24.4735L102.838 35.845L102.756 39.0587L102.344 70.5364C100.696 71.6076 95.8338 73.8324 89.4064 71.4428C87.9232 70.9484 86.5223 70.2891 85.1215 69.6299C78.6941 66.9931 72.7612 64.3562 66.6634 68.3115C64.5209 69.6299 62.4609 71.5252 60.8952 73.0908C60.8952 73.0908 60.8952 73.0084 60.8952 73.0908ZM114.704 78.035C112.973 79.1062 108.029 81.4959 100.943 81.4959C96.493 81.4959 91.6313 79.683 87.0168 77.9526C82.3198 76.1397 77.5405 74.3269 72.926 74.3269C68.229 74.3269 64.6033 75.3981 62.1313 76.3869C63.6145 74.8213 66.0042 72.4316 68.4763 70.9484C73.0908 67.9819 77.8701 69.9595 83.8855 72.5964C85.2863 73.1732 86.7696 73.8324 88.2528 74.4093C97.8115 78.035 104.651 72.8436 104.98 72.5964C105.392 72.2668 105.557 71.8548 105.557 71.3604L105.969 38.7291C109.76 38.1523 112.726 36.9162 114.704 36.0098C114.786 43.0964 114.704 63.4498 114.704 78.035Z" fill="#2859B5"/>
</svg>
