<svg width="1512" height="968" viewBox="0 0 1512 968" fill="none" xmlns="http://www.w3.org/2000/svg">
<path d="M1520.71 329.331C1506.27 325.337 1494.21 318.358 1477.58 317.243C1478.09 313.323 1478.6 309.388 1478.95 305.588C1468.09 308.299 1460.3 303.858 1452.82 300.656C1430.39 299.433 1411.65 291.651 1388.61 291.604C1388.85 293.497 1389.26 297.305 1389.49 299.197C1388.83 292.653 1383.27 287.037 1371.73 289.101C1371.46 286.588 1370.86 281.554 1370.63 279.018C1372.19 280.863 1375.37 284.511 1376.92 286.356C1380.29 284.519 1383.64 282.747 1387 281.021C1386.55 282.784 1385.64 286.247 1385.19 287.978C1389.71 287.233 1398.85 288.848 1394.96 282.488C1407.4 284.046 1419.53 289.87 1433.41 284.716C1431.96 285.568 1429.02 287.276 1427.56 288.128C1432.74 289.821 1437.95 291.571 1442.19 294.13C1443.05 293.668 1444.82 292.706 1445.67 292.228C1461.81 294.454 1479.22 299.275 1496.72 294.785C1492.8 291.549 1488.75 288.46 1484.86 285.267C1483.7 285.963 1481.39 287.37 1480.27 288.092C1450.37 281.987 1422.41 269.986 1389.04 270.437C1388.7 267.245 1388.31 264.108 1387.97 261.009C1386.32 263.959 1384.68 266.941 1382.94 269.984C1382.12 268.998 1380.45 267.014 1379.65 266.008C1370.47 266 1356.94 268.232 1355.51 260.331C1352.5 261.862 1349.46 263.492 1346.34 265.15C1344.76 264.233 1341.62 262.461 1340.04 261.56C1338.87 262.133 1336.51 263.235 1335.34 263.807C1331.29 260.513 1324.81 259.712 1318.52 258.958C1316.44 259.453 1312.29 260.439 1310.2 260.934C1310.21 257.232 1307.61 254.827 1301.35 254.948L1300.64 260.607C1291.19 255.216 1277.87 255.11 1265.34 253.957C1264.57 255.251 1263.11 257.86 1262.37 259.182C1261.32 257.964 1259.17 255.553 1258.13 254.381C1238.05 256.933 1217.91 255.859 1199.83 252.318C1193.55 252.331 1185.87 253.816 1182.71 249.49C1180.33 249.937 1175.57 250.797 1173.21 251.241C1173.2 250.239 1173.2 248.201 1173.21 247.18C1158.58 251.792 1144.16 248.391 1130.11 247.566C1130.27 244.438 1129.71 241.404 1126 239.58C1124.43 241.233 1121.36 244.496 1119.84 246.142C1119.28 245.211 1118.21 243.307 1117.64 242.375C1109.74 243.736 1101.49 245.732 1094.18 243.709C1083.06 241.195 1068.79 244.668 1059.39 239.677C1050.6 240.094 1041.57 240.956 1033.36 239.45C1036.53 236.984 1039.68 234.506 1042.77 232.101C1038.31 234.107 1033.84 236.162 1029.34 238.283C1030.62 230.357 1015.85 233.014 1008.51 232.078C998.791 230.711 989.954 237.923 980.303 237.203C969.802 236.129 955.369 236.916 953.569 228.29C952.242 229.435 949.585 231.711 948.232 232.845C943.02 231.079 936.681 232.528 930.678 233.22C915.753 233.55 900.475 232.461 886.403 230.684C884.735 231.412 881.301 232.868 879.61 233.615C877.741 231.364 875.877 229.159 873.92 227C866.977 227.649 859.989 228.337 853.012 228.897C850.218 226.287 847.36 223.766 844.246 221.378C846.915 225.559 850.187 229.396 853.144 233.501C845.601 232.707 838.094 231.781 830.562 230.859C829.646 229.684 827.811 227.287 826.892 226.08C824.188 226.561 818.728 227.498 816.021 227.948C811.615 223.862 801.988 220.646 794.396 225.738C790.41 224.833 786.337 225.4 782.274 227.407C781.062 226.449 778.594 224.573 777.334 223.623C773.781 225.567 770.134 227.557 766.469 229.613C765.851 227.545 764.565 223.417 763.946 221.349C762.587 223.785 761.212 226.302 759.744 228.864C749.492 227.595 739.076 226.178 731.145 222.041L734.81 227.229C726.787 226.775 718.591 226.081 712.36 223.093C712.637 224.728 712.818 226.393 712.936 228.161C714.577 228.99 717.853 230.6 719.493 231.429C703.196 233.632 689.628 231.511 678.457 225.194C679.113 227.146 680.425 231.067 681.084 233.05C677.287 232.758 673.449 232.536 669.591 232.364C667.702 228.799 665.685 225.411 663.588 221.972C664.307 225.639 665.093 229.249 665.796 232.997C650.571 231.931 633.303 234.708 621.518 228.392C614.482 236.329 602.11 232.769 592.072 233.238C591.092 231.916 589.156 229.283 588.152 227.965C584.491 230.051 580.812 232.202 577.114 234.404C568.509 234.479 559.823 234.707 551.147 234.809C549.151 232.295 547.039 229.847 544.813 227.478C545.318 229.407 546.33 233.28 546.835 235.208C529.625 233.994 510.264 238.114 494.573 233.451C489.746 234.322 484.829 235.27 479.893 236.267C478.549 234.766 475.86 231.764 474.467 230.27C472.705 231.718 469.133 234.621 467.367 236.038C465.998 235.215 463.256 233.538 461.884 232.684C459.479 232.742 454.618 232.85 452.163 232.9C451.565 231.926 450.36 229.902 449.762 228.928C435.844 234.229 420.428 236.156 405.543 238.22C400.941 234.823 394.135 233.335 387.616 231.77C382.639 233.527 377.593 235.325 372.452 237.154C369.927 235.663 367.359 234.225 364.722 232.83C358.307 235.843 351.217 237.847 344.014 239.728C343.425 238.612 342.175 236.391 341.586 235.274L334.421 233.434C333.92 235.157 332.891 238.593 332.388 240.301C331.714 238.633 330.393 235.31 329.744 233.639C328.097 235.241 324.835 238.504 323.167 240.142C318.959 238.785 315.036 237.102 310.783 235.784C310.638 237.624 310.301 241.314 310.133 243.158C309.62 242.736 308.613 241.856 308.147 241.411C311.289 233.652 299.248 235.841 292.933 240.453C292.751 238.553 292.331 234.699 292.122 232.772C290.948 235.555 289.809 238.428 288.745 241.32L283.739 242.124C282.16 238.919 280.276 236.075 278.518 233.038C280.021 243.012 265.297 238.859 256.539 239.334C255.598 238.601 253.759 237.082 252.842 236.346C252.65 238.194 252.266 241.906 252.096 243.735C250.512 242.976 247.316 241.416 245.734 240.673C243.698 240.956 239.625 241.523 237.587 241.79C236.609 240.719 234.584 238.617 233.584 237.565C217.72 242.163 201.366 242.713 185.156 245.264C184.977 243.849 184.62 241.02 184.443 239.621C182.318 243.382 180.394 247.41 176.517 250.909C169.192 252.793 165.663 245.688 158.645 248.81C150.836 251.223 142.945 253.336 134.686 254.549C134.841 250.778 134.854 247.045 134.629 243.396C133.675 247.07 133.036 250.696 132.222 254.522C128.126 254.418 123.927 254.502 119.698 254.763L118.171 255.657C112.984 256.16 107.257 257.578 102.74 255.862C82.5122 260.616 61.58 261.608 41.3912 266.717C41.0349 265.251 40.293 262.277 39.9384 260.827C34.2791 264.225 22.1921 276.172 19.7899 266.307C14.1207 271.65 6.72182 276.022 -0.86161 280.282C-1.35739 278.665 -2.42659 275.397 -2.94825 273.769C-3.61247 273.997 -4.991 274.445 -5.65689 274.658C-4.93228 276.568 -4.24935 278.548 -3.634 280.585C-4.8019 281.612 -7.20527 283.723 -8.36981 284.781C10.4792 351.271 29.1582 418.461 44.6226 485.96C47.9224 487.112 51.1338 488.356 54.326 489.65L48.5356 491.391C49.4301 494.184 50.1327 497.023 50.7693 499.935C129.923 509.108 215.42 498.552 297.598 497.757C434.15 493.691 569.453 496.026 701.811 505.667L699.542 502.004C703.01 503.569 706.584 504.976 709.963 506.634C709.08 508.698 707.265 512.819 706.334 514.891C705.073 514.161 702.484 512.758 701.177 512.051C687.316 514.929 673.662 513.604 659.566 516.362C657.184 513.469 653.425 511.714 648.384 511.066C648.355 512.387 648.301 515.06 648.276 516.412C639.979 517.506 633.01 516.325 626.136 514.22C625.886 515.763 625.385 518.851 625.135 520.394C607.397 520.437 589.7 520.177 571.661 521.975C572.108 520.652 572.978 518.025 573.425 516.702C569.347 519.479 565.255 522.353 561.145 525.292C560.889 523.169 560.427 518.913 560.173 516.805C558.798 518.647 556.032 522.398 554.659 524.256C552.058 522.745 546.835 519.743 544.186 518.239C543.804 520.838 543.627 523.28 543.092 526.059C531.463 525.472 519.47 525.851 507.944 524.856C506.641 526.453 503.991 529.684 502.664 531.284C481.655 531.346 460.483 532.845 439.199 534.675L438.319 532.24C430.303 538.635 418.198 538.655 407.601 540.543C406.286 539.539 403.626 537.488 402.287 536.488C348.84 553.695 288.288 554.676 232.893 569.362C233.688 573.048 234.464 576.785 235.196 580.575C238.83 579.826 246.05 578.334 249.633 577.562C251.197 579.954 252.736 582.334 254.236 584.814C250.791 585.268 244.024 586.172 240.582 586.657C240.434 585.52 240.161 583.242 240.013 582.104C231.69 591.323 215.017 593.694 202.028 598.71L201.018 603.444C204.213 602.731 210.578 601.293 213.773 600.58C210.404 602.182 206.925 603.911 203.419 605.612C201.662 604.16 198.145 601.238 196.389 599.801C190.557 603.649 184.625 607.481 178.705 611.421C169.817 613.421 160.876 615.382 151.768 617.165C146.064 621.275 140.467 625.479 135.142 629.907C128.432 631.116 121.695 632.297 114.944 633.356C111.162 635.68 107.424 637.966 103.48 640.394C108.93 640.728 114.287 641.108 119.621 641.506C125.611 637.759 131.524 633.977 137.288 630.187C138.191 631.474 140.042 634.01 140.947 635.312C134.591 638.865 125.936 641.425 123.91 647.225C138.83 642.318 169.351 622.93 177.537 637.781C166.554 639.744 155.511 641.842 144.461 643.862C143.204 645.655 140.592 649.241 139.313 651.053C137.146 641.543 129.798 651.818 125.099 653.406C123.954 651.701 121.734 648.266 120.615 646.573C115.649 648.657 110.626 650.891 105.657 653.163C109.217 652.41 116.257 650.852 119.767 650.09C120.265 652.177 121.31 656.358 121.808 658.445C118.733 658.904 112.536 659.845 109.436 660.308L110.318 662.759C96.8452 666.266 83.955 671.283 73.401 678.322C75.3376 678.932 79.2642 680.191 81.2267 680.813C81.4728 685.337 81.7307 689.968 81.9159 694.611C85.7309 693.035 89.5267 691.508 93.2566 690.054C93.3932 691.083 93.5954 693.168 93.7303 694.182C108.013 690.879 122.257 691.971 136.635 688.872C136.452 689.449 136.109 690.599 135.949 691.157C130.568 692.364 125.176 693.699 119.999 695.643C120.074 696.791 120.274 699.081 120.374 700.225C118.135 698.188 115.878 696.217 113.648 694.272C109.262 696.706 104.791 699.262 100.345 701.83C99.8449 699.493 99.2804 697.244 98.6207 695.026C88.373 701.939 76.1393 708.014 67.2406 715.565C65.3397 716.188 61.5103 717.406 59.6061 717.998C69.3435 716.573 79.0358 715.185 88.6788 713.571C87.4378 715.283 84.9851 718.75 83.77 720.474C100.954 722.351 118.12 724.292 135.267 726.284C116.835 728.316 100.453 723.4 82.482 723.338C82.9754 725.159 84.0607 728.801 84.5541 730.621C79.8587 729.309 75.12 728.049 70.3104 726.817C69.4267 728.647 68.4979 730.515 67.5033 732.455C78.7335 736.835 90.0538 741.138 101.778 745.08C98.4254 745.253 91.6737 745.622 88.3212 745.795C91.096 750.038 96.1165 752.304 103.438 752.646C104.707 751.416 107.196 748.962 108.461 747.701C109.703 748.261 112.157 749.324 113.375 749.889L104.932 751.224C110.058 759.211 122.311 762.586 135.516 763.18C135.224 764.339 134.548 766.716 134.234 767.909C198.465 773.367 266.145 765.297 332.487 760.756C334.861 759.276 337.177 757.947 339.382 756.728C343.019 762.108 353.4 757.103 360.526 756.551C367.305 755.535 379.755 758.456 381.285 751.933C381.752 752.833 382.662 754.637 383.129 755.537C462.906 749.861 543.077 742.824 622.798 737.989C623.879 737.069 626.019 735.25 627.053 734.353C628.347 736.975 631.087 738.637 635.301 739.366C637.194 737.991 641.033 735.282 642.95 733.904C662.092 737.94 684.296 735.749 705.261 735.285C704.804 734.258 703.942 732.212 703.486 731.185C707.821 732.805 712.182 734.436 716.473 736.109C716.939 734.736 717.924 732.028 718.414 730.651C722.812 737.371 737.099 733.66 746.326 735.009L743.27 731.797C752.96 737.402 767.643 734.382 780.408 734.323C845.906 733.565 911.583 733.094 976.849 732.231C977.523 731.422 978.94 729.745 979.615 728.935C984.38 733.372 996.109 733.066 1002.04 727.824C1002.11 728.691 1002.22 730.382 1002.26 731.222C1008.75 731.192 1015.22 731.211 1021.67 731.376C1021.95 730.141 1022.49 727.689 1022.75 726.458C1025.63 726.672 1028.47 726.955 1031.26 727.291C1029.94 728.452 1027.31 730.755 1025.93 731.924C1096.59 726.09 1168.35 726.999 1234.49 735.799C1277.52 735.032 1321.3 740.451 1366.17 734.726C1366.96 733.366 1368.56 730.643 1369.37 729.248C1369.58 730.501 1370.03 733.034 1370.24 734.318C1378.17 732.325 1386 730.583 1393.84 728.636L1392.98 731.856C1409.57 727.82 1426.94 726.392 1442.99 720.824C1442.34 719.638 1441.08 717.309 1440.44 716.139C1421.81 718.593 1402.15 721.159 1385.82 716.501C1385.68 716.069 1385.41 715.185 1385.29 714.734C1396.93 712.558 1408.13 709.183 1419.35 705.946C1418.04 707.465 1415.51 710.489 1414.25 712.016C1418.8 712.192 1427.96 712.501 1432.5 712.646C1432.13 711.026 1431.31 707.798 1430.89 706.154C1433.79 705.721 1439.6 704.855 1442.51 704.391C1442.18 703.157 1441.58 700.646 1441.25 699.396C1444.52 698.922 1451.06 697.959 1454.33 697.485C1449.08 696.289 1443.74 695.17 1438.41 694.113C1450.52 692.525 1462.51 690.594 1474.57 688.982C1472.27 688.459 1467.77 687.382 1465.5 686.855C1468.07 680.361 1479.34 678.322 1484.74 682.3C1484.76 680.856 1484.69 677.966 1484.66 676.529C1497.98 675.756 1510.89 676.537 1522.92 678.96C1524.08 668.59 1508.42 674.615 1498.25 675.73L1498.05 670.76C1488.72 674.491 1479 677.731 1468.66 679.47C1465.76 684.04 1459.1 683.408 1453.58 683.336C1455.21 679.306 1457.89 675.443 1460.83 671.743C1462.73 672.673 1466.55 674.513 1468.44 675.443C1471.61 668.604 1474.99 660.777 1465.81 656.708C1459.77 657.954 1455.79 655.732 1452.49 653.216C1451.35 654.301 1449.11 656.498 1447.97 657.598C1446.75 653.867 1445.47 650.162 1444.09 646.581C1440.45 647.739 1436.77 648.95 1433.04 650.2C1433.53 647.633 1433.97 645.15 1434.34 642.709C1431.85 641.966 1426.89 640.459 1424.39 639.7C1424.45 641.368 1424.6 644.732 1424.66 646.4C1423.98 646.474 1422.54 646.648 1421.86 646.738C1417.9 633.147 1408.47 643.288 1402.42 625.411C1420.26 629.71 1438.19 633.917 1455 639.424C1400.31 612.38 1323.57 607.96 1257.18 595.373C1218.81 588.977 1178.02 584.273 1139.87 576.808C1094.71 568.404 1042.81 569.241 999.36 559.382C1056.32 564.081 1114.28 567.765 1168.5 577.764C1170.71 577.266 1172.88 576.837 1174.98 576.496C1180.43 578.837 1186.69 580.331 1193.06 581.652C1194.3 581.226 1196.77 580.405 1198.05 580.003C1204.71 583.552 1212.86 586.73 1222.83 583.653C1243.58 591.344 1270.57 590.185 1291.98 597.005L1292.09 592.332C1294.93 594.465 1297.73 596.666 1300.53 598.914C1302.31 598.263 1305.88 596.944 1307.66 596.293C1340.55 607.047 1383.17 607.722 1416.4 619.332C1414.76 614.066 1412.77 609.045 1411.58 603.773C1409.04 606.234 1406.43 608.737 1403.66 611.267C1402.35 606.969 1401.08 602.76 1398 599.082C1398.11 601.259 1398.29 605.621 1398.41 607.798C1385.37 605.845 1375.43 602.161 1371.8 593.472C1372.41 595.902 1373.56 600.804 1374.12 603.241C1371.11 602.044 1365.02 599.677 1362.01 598.48C1359.21 598.583 1353.57 598.779 1350.78 598.882C1351.23 597.401 1352.19 594.416 1352.62 592.954C1350.86 593.697 1347.35 595.179 1345.59 595.922C1319.02 593.315 1296.18 587.17 1273.11 580.936C1271.55 579.091 1269.91 577.338 1268.25 575.62C1249.16 575.934 1236.42 566.443 1218.29 565.432C1218.13 564.126 1217.76 561.47 1217.59 560.132C1231.56 565.029 1232.69 561.14 1230.97 552.124C1232.1 553.031 1233.19 554.007 1234.22 555.071C1233.15 558.857 1232.14 562.697 1231.11 566.572C1236.8 565.412 1242.46 564.364 1248.09 563.354C1248.2 565.327 1248.48 569.204 1248.6 571.177C1259.65 567.416 1271.66 573.289 1280.48 565.045C1283.59 568.06 1286.1 571.42 1287.35 575.209C1288.31 574.135 1290.24 571.94 1291.25 570.828C1300.24 572.685 1308.99 574.61 1316.15 578.489C1315.3 576.724 1313.66 573.199 1312.85 571.396L1323.19 570.301C1323 571.96 1322.7 575.299 1322.51 576.989C1324.28 576.089 1327.78 574.279 1329.55 573.347C1331.73 575.596 1333.84 577.967 1336.01 580.297C1336.25 577.251 1336.42 574.308 1336.57 571.416C1321.43 569.584 1307.38 565.892 1291.88 564.79C1292.26 563.555 1293 561.074 1293.35 559.828C1291.03 560.656 1286.46 562.303 1284.19 563.124C1283.64 556.264 1282.78 549.499 1281.1 542.892C1279.63 548.575 1279.67 554.15 1280.15 559.719C1276.15 558.722 1268.11 556.75 1264.09 555.756L1270.98 553.924C1272.03 549.09 1273.02 544.345 1272.75 539.667C1270.21 541.361 1265.07 544.789 1262.47 546.491C1262.16 544.093 1261.51 539.24 1261.2 536.827C1258.05 537.767 1251.73 539.637 1248.59 540.577C1248.34 538.326 1247.78 533.82 1247.49 531.576C1253.3 529.111 1258.62 526.517 1263.77 523.59C1264.8 525.39 1266.89 528.987 1267.95 530.783L1275.35 526.692C1272.29 519.139 1266.71 512.397 1263.03 505.064C1263.02 506.335 1263.03 508.843 1263.04 510.08C1260.4 509.374 1255.11 508.012 1252.48 507.322C1251.45 507.81 1249.41 508.814 1248.43 509.295C1244.48 505.061 1241.78 499.05 1231.8 500.232C1228.95 497.583 1226.15 494.927 1223.4 492.31C1221.81 492.823 1218.67 493.809 1217.08 494.322C1218.28 488.164 1213.41 482.081 1202.31 485.738C1202.33 484.34 1202.28 481.558 1202.27 480.164C1199.34 480.993 1193.42 482.707 1190.51 483.548C1190.57 481.83 1190.62 478.467 1190.68 476.75C1188.72 477.476 1184.74 478.937 1182.75 479.651C1181.27 478.281 1178.24 475.504 1176.71 474.125C1177.51 472.184 1179.03 468.296 1179.8 466.343C1183.11 468.889 1187.24 469.991 1192.46 467.115C1192.3 468.081 1191.94 470.002 1191.82 470.945C1203.72 471.098 1217.81 468.922 1227.65 472.717C1229.9 475.991 1227.69 478.527 1221.04 480.291L1221.72 480.891C1224.61 479.911 1230.39 478 1233.28 477.02C1234.85 477.875 1237.99 479.57 1239.53 480.413C1238 478.36 1237.01 476.21 1236.57 473.988C1237.72 473.293 1239.99 471.909 1241.14 471.213C1261.66 473.217 1285.16 468.443 1304.51 471.004C1313.42 468.342 1323.09 469.701 1331.55 466.655C1331.38 465.568 1330.98 463.451 1330.76 462.403C1336.9 462.929 1343.11 463.254 1349.21 463.707C1347.17 463.944 1343.02 464.414 1340.97 464.635C1339.35 466.5 1336.17 470.206 1334.59 472.032C1358.99 468.719 1382.38 475.452 1406.35 467.737C1406.82 468.402 1407.77 469.728 1408.24 470.408C1417.75 469.128 1428.11 468.718 1435.28 463.097C1437.17 464.215 1440.9 466.414 1442.77 467.536C1459.78 457.164 1482.06 452.47 1501.02 443.552C1498.16 438.037 1491.37 442.848 1486.88 445.673C1480.1 445.31 1472.16 446.817 1466.45 444.313C1471.4 443.643 1476.29 443.092 1481.19 442.649C1480.98 438.935 1480.75 435.254 1480.46 431.663C1486.33 430.631 1492.2 429.676 1498.01 428.779C1498.9 427.231 1500.73 424.111 1501.62 422.563C1486.86 425.344 1471.76 426.109 1457.59 424.582L1459.18 428.129C1454.88 425.736 1450.61 423.308 1445.95 421.237C1446.24 422.713 1446.83 425.679 1447.12 427.186C1443.1 424.594 1437.47 423.504 1431.76 422.818C1436.34 422.455 1440.85 421.632 1444.95 419.903C1449.23 419.946 1453.57 419.967 1457.79 420.052L1452.45 424.372C1473.08 423.098 1493.78 420.168 1514.42 418.39C1504.58 414.487 1519.81 402.32 1503.88 400.422C1505.77 398.798 1507.7 397.277 1509.6 395.776C1514 396.209 1518.38 396.661 1522.75 397.163C1530.81 392.155 1536.1 385.977 1538.82 379.349C1536.32 378.104 1531.4 375.619 1528.95 374.367C1533.22 373.582 1537.48 372.862 1541.69 372.227C1540.84 371.025 1539.23 368.625 1538.41 367.435C1535.57 367.826 1529.95 368.585 1527.11 368.961C1526.63 365.461 1526.06 362.022 1525.47 358.602C1519.99 356.203 1514.54 353.815 1509.01 351.47C1506.66 352.226 1504.24 353.039 1501.82 353.898C1499.22 346.681 1490.32 343.619 1479.43 342.855C1478.91 344.362 1477.84 347.428 1477.29 348.97C1475.4 345.814 1473.71 342.5 1471.78 339.444L1465.05 340.938C1465.47 342.519 1466.35 345.675 1466.77 347.256C1465.9 342.625 1462.41 339.496 1456.4 337.9C1456.23 340.152 1455.98 344.612 1455.82 346.831C1454.37 343.464 1452.99 339.995 1451.57 336.702C1436.64 332.251 1413.58 335.798 1406.22 324.768C1442.07 330.816 1481.88 335.015 1512.11 347.779C1522.8 348.761 1529.46 353.894 1530.68 360.868C1532.98 360.702 1537.61 360.316 1539.95 360.111C1494.82 318.938 1398.45 319.369 1326.27 305.263C1356.58 304.736 1384.34 310.919 1412.98 314.256L1411.65 308.363C1413.38 310.714 1415.12 313.079 1416.74 315.587C1454.27 317.645 1484.53 330.921 1520 335.727C1532.88 343.254 1546.2 349.723 1548.95 362.045C1554.14 346.929 1530.74 340.824 1532.48 326.698C1528.55 327.461 1524.66 328.375 1520.71 329.331ZM1457.56 449.904C1451.77 448.447 1455.75 440.668 1462.33 442.63C1468.35 443.848 1464.21 451.934 1457.56 449.904ZM1442.82 681.22C1438.96 676.298 1433.75 670.91 1438.77 664.616C1439.52 666.523 1440.97 670.328 1441.69 672.238C1446.24 670.815 1450.74 669.477 1455.28 668.211C1453.06 673.132 1447.98 677.13 1442.82 681.22ZM1429.07 700.305C1427.39 700.298 1423.99 700.243 1422.32 700.235C1424.68 698.678 1429.43 695.515 1431.82 693.954C1427.57 694.439 1423.3 695.02 1419.01 695.635C1418.95 695.049 1418.8 693.866 1418.7 693.253C1424.95 690.986 1431.11 688.796 1437.39 686.777C1434.88 691.303 1431.97 695.766 1429.07 700.305ZM1358.6 286.504C1354.39 284.192 1361.3 277.779 1365.82 280.64C1370.6 282.974 1363.46 289.046 1358.6 286.504ZM1346.32 284.685C1341.2 282.874 1346.89 276.336 1352.26 277.983C1356.5 279.822 1351.86 286.746 1346.32 284.685ZM1405.15 635.209C1394.49 637.624 1393.57 630.948 1389.15 627.617C1387.25 630.513 1386.1 633.528 1385.73 636.689C1385.09 633.982 1384.36 631.351 1383.66 628.763C1381.69 629.443 1377.78 630.8 1375.86 631.473C1373.73 628.65 1371.55 625.82 1369.36 623.086C1367.46 624.429 1363.69 627.112 1361.82 628.451C1360.01 625.769 1358.14 623.125 1356.26 620.562C1354.63 622.084 1351.43 625.166 1349.84 626.68C1347.41 624.015 1344.98 621.333 1342.51 618.752C1331.78 616.301 1320.35 613.427 1307.79 616.966C1307 616.069 1305.41 614.308 1304.6 613.414C1298.25 613.469 1292.01 613.274 1285.72 613.194L1285.01 609.762C1282.17 610.592 1276.52 612.265 1273.7 613.076C1273.29 611.525 1272.5 608.385 1272.11 606.8C1266.64 608.585 1261.24 610.312 1255.74 612.182C1255.96 608.777 1256.36 605.454 1256.84 602.198C1275.57 600.167 1290.11 609.428 1308.37 606.733C1311.14 608.156 1313.85 609.617 1316.56 611.159C1318.85 610.712 1323.4 609.851 1325.69 609.419C1345.32 617.032 1372.95 617.201 1393.83 624.496C1401.34 625.703 1401.96 631.361 1405.15 635.209ZM1412.94 699.755C1402.23 699.89 1391.33 700.851 1380.53 701.124C1380.63 699.556 1380.83 696.422 1380.91 694.889C1382.93 695.753 1386.95 697.467 1388.99 698.344C1397.63 696.539 1407.16 695.46 1412.94 699.755ZM1340.42 283.12C1334.95 284.655 1323.39 284.7 1323.11 280.323C1328.61 278.657 1339.92 278.996 1340.42 283.12ZM1324.86 275.585C1321.45 278.196 1317.98 280.849 1314.48 283.583C1313.05 280.56 1311.66 277.514 1310.25 274.564C1315.13 274.861 1320.02 275.173 1324.86 275.585ZM1306.98 280.901C1295.44 280.662 1284.49 279.077 1273.69 277.28C1274.69 275.683 1276.61 272.502 1277.62 270.904C1285.74 272.753 1292.47 276.009 1298.38 279.878C1299.25 278.145 1300.97 274.713 1301.84 272.995C1303.14 274.958 1305.68 278.923 1306.98 280.901ZM1378.94 696.856C1368.95 701.204 1358.39 699.135 1348.06 699.68C1346.69 698.56 1344.06 696.302 1342.68 695.182C1340.61 696.112 1336.54 697.996 1334.47 698.926C1334.31 697.4 1333.98 694.362 1333.81 692.821C1338.15 693.138 1342.44 693.478 1346.72 693.883C1347.99 694.675 1350.57 696.236 1351.83 697.013C1361.21 694.938 1370.43 695.332 1378.94 696.856ZM1356.93 716.26C1354.31 719.8 1351.57 720.13 1348.59 717.219C1351.28 713.591 1354.05 713.288 1356.93 716.26ZM1342.26 721.222C1346.41 718.638 1353.12 719.498 1356.33 721.385C1355.65 725.55 1340.98 725.527 1342.26 721.222ZM1249.69 275.202C1247.68 273.929 1245.65 272.706 1243.56 271.587C1240.5 275.07 1235.69 277.051 1229.1 277.567C1215.84 273.548 1198.92 276.272 1185.83 272.038C1161.57 272.729 1137.94 269.951 1115.23 266.842C1119.21 265.648 1123.15 264.538 1127.05 263.527C1126.66 262.616 1125.87 260.794 1125.52 259.876C1131.53 259.904 1137.43 260.075 1143.4 260.172C1142.75 261.714 1141.48 264.778 1140.84 266.305C1148.71 265.591 1156.53 263.975 1164.24 262.205L1165.74 258.117C1166.89 261.216 1168.06 264.295 1169.05 267.528C1182.38 262.256 1196.55 264.488 1208.92 266.638C1209.24 267.842 1209.88 270.268 1210.18 271.475C1218.84 266.485 1237.02 264.429 1235.8 273.992C1239.9 272.089 1243.89 270.313 1247.88 268.537C1248.33 270.192 1249.23 273.517 1249.69 275.202ZM1246.5 524.329C1240.38 522.359 1246.38 515.976 1251.59 519.53C1258.57 521.273 1251.88 527.621 1246.5 524.329ZM1258.22 551.568C1252.73 551.992 1249.57 545.786 1255.67 544.109C1261.05 543.622 1264.72 549.953 1258.22 551.568ZM1266.83 582.47C1264.1 586.545 1260.86 586.872 1257.05 583.495C1259.88 579.436 1263.14 579.09 1266.83 582.47ZM1250.65 553.443C1240.33 554.942 1226.22 547.356 1238.53 541.081C1248.23 539.786 1245.86 550.122 1250.65 553.443ZM1251.99 581.314C1246.66 583.203 1244.15 582.382 1244.49 578.867C1249.92 576.82 1252.42 577.625 1251.99 581.314ZM1251.61 602.08C1247.14 603.947 1242.34 605.504 1237.61 607.254C1233.24 601.72 1222.82 601.386 1213.42 602.728C1211.83 601.438 1208.59 598.88 1207 597.605C1206.95 601.908 1206.86 606.28 1206.68 610.713C1205.93 606.534 1205.35 602.312 1204.66 598.233C1198.38 597.714 1192.1 597.195 1185.81 596.615C1184.29 597.147 1181.28 598.192 1179.83 598.698C1178.75 597.548 1176.65 595.254 1175.62 594.097C1171.56 593.72 1167.47 593.411 1163.36 593.153C1162.56 591.739 1161.01 588.97 1160.24 587.583C1189.32 593.657 1220.94 595.845 1251.6 599.73C1251.57 600.3 1251.6 601.487 1251.61 602.08ZM1199.61 296.262C1179.45 295.519 1159.59 293.665 1139.89 291.723C1160.46 291.069 1180.89 292.695 1199.61 296.262ZM1241.4 578.34C1222.49 576.825 1206.36 571.305 1187.39 570.048C1186.88 568.905 1185.86 566.554 1185.34 565.365C1190.04 566.99 1195.03 568.335 1200.32 569.242C1214.48 571.555 1229.25 573.413 1241.4 578.34ZM1208.59 725.768C1208.37 721.68 1218.3 722.247 1218.95 725.266C1219.31 729.301 1209.46 728.534 1208.59 725.768ZM1112.18 267.313C1099.47 267.223 1086.86 266.631 1075.19 264.295C1078.84 261.866 1082.49 259.499 1086.05 257.131C1091.13 256.832 1096.22 256.548 1101.29 256.313C1100.83 258.156 1099.94 261.789 1099.5 263.628C1101.4 262.285 1105.21 259.595 1107.11 258.252C1112.77 258.255 1118.41 258.278 1124.03 258.366C1120.12 261.353 1116.18 264.266 1112.18 267.313ZM1172.34 538.213C1160.67 537.946 1150.17 535.273 1141.38 531.16C1152.83 531.664 1163.44 534.165 1172.34 538.213ZM1157.93 589.194C1153.6 589.925 1145.03 591.406 1140.71 592.168C1138.57 589.519 1135.36 587.82 1131.09 586.991C1131.02 588.397 1130.96 591.228 1130.92 592.661L1129.62 593.379C1128.13 590.567 1126.63 587.806 1125.12 585.075C1103.32 589.368 1085.8 579.908 1064.74 579.477C1063.32 580.48 1060.42 582.481 1058.98 583.487C1057.74 581.216 1056.45 579.08 1055.14 576.978C1076.97 579.281 1099.56 579.742 1121.15 582.537C1134.18 583.504 1147.33 584.702 1157.93 589.194ZM1096.77 288.945C1070.28 288.601 1044.32 286.81 1018.17 285.58C1016.99 284.932 1014.66 283.615 1013.51 282.946C1041.49 283.029 1068.63 285.468 1096.04 287.193L1096.77 288.945ZM1073.93 258.892C1070.19 258.593 1066.37 258.367 1062.51 258.133C1063.46 259.382 1065.32 261.853 1066.25 263.105C1060.79 263.338 1055.17 263.719 1049.57 264.097C1047.88 263.512 1044.44 262.366 1042.75 261.781C1026.69 263.65 1011.74 261.303 997.218 259C985.618 259.365 969.047 262.442 963.315 254.767C966.751 253.327 973.627 250.478 977.063 249.038C977.415 250.912 978.197 254.711 978.524 256.588C979.345 254.862 981.041 251.449 981.862 249.724C986.349 250.018 990.815 250.363 995.241 250.777C993.365 252.086 989.689 254.707 987.862 256.008C990.174 256.451 994.844 257.313 997.153 257.724C998.11 255.883 999.993 252.159 1000.93 250.322C1002.9 252.196 1006.83 255.948 1008.76 257.829C1010.84 252.993 1015.82 250.874 1023.71 251.443L1023.03 247.41C1023.93 248.667 1025.73 251.256 1026.63 252.512C1029.78 251.337 1036.09 248.967 1039.23 247.76C1037.35 249.196 1033.6 252.064 1031.76 253.477C1045.74 253.982 1059.52 255.099 1073.44 255.692C1073.6 256.498 1073.82 258.11 1073.93 258.892ZM1102.87 515.568C1104.8 511.836 1107.49 511.421 1110.94 514.242C1109.15 517.859 1106.49 518.301 1102.87 515.568ZM1112.96 523.243C1107.81 523.662 1102.62 524.104 1097.37 524.537C1085.3 516.479 1063.9 517.949 1051.22 510.423C1072.87 513.068 1092.6 518.705 1112.96 523.243ZM1113.45 550.852C1081.41 547.665 1050.75 541.553 1020.8 535.001C1028.63 535.25 1037.54 534.579 1043.1 538.25C1067.6 540.407 1091.93 544.128 1113.45 550.852ZM1047.91 475.709C1049.92 472.028 1052.64 471.624 1056 474.522C1054.11 478.107 1051.44 478.503 1047.91 475.709ZM1035.27 472.629C1037.59 469.011 1040.27 468.784 1043.36 471.881C1041.19 475.415 1038.48 475.66 1035.27 472.629ZM1050.48 511.275C1037.94 510.438 1025.91 508.281 1015.39 504.483C1027.99 505.155 1040.74 506.587 1050.48 511.275ZM1010.64 284.894C987.575 283.456 963.042 283.921 941.52 279.721C955.975 279.354 970.015 280.383 984.347 280.474C993.693 280.88 1004.3 280.434 1010.64 284.894ZM999.143 561.453C979.653 561.454 960.469 559.965 942.169 557.1C961.738 556.476 981.882 557.065 999.143 561.453ZM924.756 257.948C922.44 257.475 917.763 256.551 915.447 256.078L922.513 250.676C919.334 250.179 912.977 249.201 909.749 248.712C911.033 250.787 913.625 254.933 914.885 257.012C910.128 256.038 905.329 255.133 900.529 254.212C898.953 254.879 895.753 256.236 894.201 256.899C887.529 256.189 880.631 255.436 875.437 252.711C881.181 251.902 886.692 251.662 892.277 251.427C891.984 250.312 891.374 248.102 891.056 246.991C901.547 248.647 913.187 247.742 924.314 247.105C924.531 250.678 924.699 254.257 924.756 257.948ZM886.628 277.539C891.084 275.518 897.604 275.734 900.898 277.733C900.779 282.298 885.568 281.59 886.628 277.539ZM888.919 247.932C885.465 248.748 878.555 250.379 875.1 251.195C874.406 252.51 873.085 255.065 872.436 256.341C871.404 252.283 868.865 248.85 864.708 246.153C863.347 248.119 860.656 252.109 859.298 254.106C853.226 253.931 847.077 254.191 840.834 254.936C841.577 252.94 842.281 251.044 842.963 249.167C840.03 248.444 834.144 247.049 831.211 246.326C850.556 246.129 870.658 244.968 888.919 247.932ZM885.176 533.123L880.986 533.739C880.834 532.571 880.581 530.243 880.427 529.059C870.716 532.08 860.582 533.253 850.922 532.221C860.932 528.104 871.687 525.173 882.736 525.175C883.343 527.135 884.566 531.132 885.176 533.123ZM840.451 253.678C831.977 254.501 823.42 254.788 815.165 254.229C816.583 252.113 819.396 247.885 820.766 245.776C821.919 246.868 824.22 249.021 825.397 250.109C830.572 251.081 835.66 252.161 840.451 253.678ZM800.299 254.205C797.282 250.454 808.61 245.553 813.825 245.986C814.485 249.568 805.889 254.47 800.299 254.205ZM789.685 254.135C780.545 257.883 777.019 245.149 787.194 245.036C790.15 247.103 791.339 251.011 789.685 254.135ZM793.745 556.087C771.529 557.261 749.781 556.183 727.556 557.28L727.752 555.463C749.66 555.528 773.267 552.43 793.745 556.087ZM744.94 246.153C742.729 247.545 738.288 250.379 736.057 251.805C735.631 250.382 734.833 247.573 734.411 246.181C731.59 246.711 725.966 247.72 723.167 248.231C723.879 249.344 725.253 251.577 725.967 252.705C718.6 253.53 711.254 254.319 703.757 255.07C706.563 252.818 709.454 250.663 712.255 248.584C710.037 249.24 705.626 250.533 703.407 251.173L701.133 244.752C708.083 245.074 714.793 245.683 721.161 246.989C729.174 246.221 737.149 245.789 744.94 246.153ZM718.711 278.752C623.984 276.844 527.4 283.438 432.395 282.372C529.682 275.686 625.939 277.405 722.342 275.934C721.436 276.654 719.619 278.048 718.711 278.752ZM725.263 291.473C719.438 292.216 713.521 293.02 707.602 293.809C706.708 292.599 704.896 290.198 704.002 288.988C711.126 289.784 718.222 290.538 725.263 291.473ZM702.167 254.484C682.329 251.733 617.634 260.095 610.303 251.978C613.748 251.524 620.612 250.605 624.03 250.124L625.322 247.98C618.559 250.279 613.095 249.822 608.909 246.628C620.067 244.011 630.341 245.026 635.698 251.065C635.236 249.757 634.354 247.087 633.937 245.74C645.344 245.405 656.633 245.355 667.907 245.385C667.284 246.892 666.108 249.88 665.484 251.387C672.968 245.983 682.35 244.91 691.799 245.363C691.71 246.803 691.484 249.707 691.395 251.147C693.862 250.296 698.822 248.621 701.242 247.792C701.474 249.465 701.938 252.827 702.167 254.484ZM690.059 530.872L684.205 532.027C685.963 533.26 689.457 535.746 691.217 536.995C688.661 536.12 683.624 534.374 681.093 533.51C678.93 534.205 674.628 535.606 672.44 536.305C671.788 535.058 670.483 532.563 669.879 531.308C662.334 534.339 654.342 536.655 646.142 538.642C647.579 535.113 648.86 531.732 651.129 528.388C651.808 530.101 653.189 533.525 653.844 535.242C656.695 534.535 662.352 533.144 665.179 532.441C663.37 531.42 659.777 529.388 657.994 528.378C664.885 532.455 676.393 526.947 682.023 531.878C683.878 531.058 687.615 529.446 689.498 528.654L690.059 530.872ZM611.272 255.684C604.651 254.089 587.605 258.681 588.494 252.148C592.849 250.786 597.209 251.053 601.437 251.011C601.088 250.062 600.417 248.19 600.092 247.237C611.05 240.073 609.71 251.724 611.272 255.684ZM594.616 247.346C592.296 248.19 587.684 249.906 585.342 250.769C584.216 252.182 581.988 255.003 580.838 256.419C552.512 257.533 524.245 258.058 496.37 257.206L494.54 258.257C493.277 262.026 497.116 264.287 500.296 266.602C496.869 265.861 493.372 265.163 489.832 264.518C490.777 262.569 491.042 260.71 490.611 259.005C478.917 255.795 465.176 259.328 452.468 259.002L452.227 252.941C460.829 253.979 469.567 254.903 478.045 256.149C477.184 254.338 475.414 250.739 474.504 248.936C485.834 248.8 497.075 248.757 508.065 249.568C504.176 250.921 496.401 253.643 492.537 254.992C501.618 256.129 509.625 251.694 517.025 248.012C532.819 245.259 555.302 251.96 566.523 241.103C567.337 243.157 568.132 245.26 568.882 247.402C577.012 247.713 588.15 244.457 594.616 247.346ZM642.45 537.958C637.446 538.324 632.356 538.812 627.235 539.243C626.448 537.216 624.849 533.152 624.087 531.122C627.919 533.321 630.761 539.764 638.161 535.627C637.515 533.986 636.24 530.64 635.619 528.996C638.897 531.531 640.742 534.695 642.45 537.958ZM612.254 539.064C608.466 536.372 617.491 532.69 621.12 533.932C624.89 536.469 616.01 540.569 612.254 539.064ZM607.581 563.066C607.85 559.434 610.494 558.399 615.485 559.948C615.301 563.457 612.658 564.492 607.581 563.066ZM607.171 539.394C601.779 539.365 596.263 539.558 590.736 539.879L592.246 541.088C586.575 540.537 580.688 541.839 574.863 543.036C574.872 541.31 574.84 537.851 574.799 536.117C581.535 535.374 588.115 534.781 594.762 534.131L595.068 538.755C598.86 536.743 602.58 534.742 606.206 532.787C606.437 534.46 606.943 537.752 607.171 539.394ZM570.233 542.325L566.009 542.632C564.733 541.309 562.135 538.684 560.838 537.395C560.059 538.833 558.477 541.711 557.7 543.163C553.567 541.591 548.789 539.742 543.625 542.719C533.273 547.312 521.064 545.922 510.593 550.11C510.303 552.647 511.571 554.803 514.349 556.584C511.766 555.463 508.356 554.876 505.888 553.909C505.593 552.779 504.928 550.515 504.63 549.354C492.233 549.183 479.617 551.069 467.061 552.82C466.19 549.788 465.422 546.803 464.825 543.807C468.888 544.277 472.426 545.36 475.323 547.108C478.6 546.241 485.225 544.481 488.504 543.63C493.835 546.49 505.352 547.173 508.151 540.783C510.712 540.795 515.855 540.8 518.464 540.805C518.626 539.353 519.021 536.423 519.228 534.934C520.757 538.131 522.195 541.389 523.538 544.693C535.151 536.08 551.84 538.832 565.981 535.817C567.02 537.444 569.145 540.69 570.233 542.325ZM530.744 568.396C447.564 578.767 363.83 584.489 281.022 601.433C283.417 598.116 287.829 596.149 293.02 595.912C367.322 582.429 442.066 576.183 516.581 568.279C521.39 567.693 526.203 567.828 530.744 568.396ZM449.037 258.231C438.344 257.656 427.044 259.652 416.314 258.958C417.067 257.29 418.332 254.664 419.013 253.007C413.843 256.377 408.568 259.465 402.394 262.205C401.468 250.528 420.86 250.762 432.768 250.287C431.969 248.592 430.343 245.19 429.544 243.495C431.274 245.83 433.002 248.135 434.573 250.588C437.541 250.506 443.505 250.353 446.473 250.271C447.349 252.895 448.227 255.534 449.037 258.231ZM503 587.527L502.136 587.959C497.934 586.429 489.121 587.978 488.074 584.236C492.3 581.687 496.539 581.298 500.818 583.083C501.357 584.191 502.459 586.404 503 587.527ZM430.894 281.46C410.597 283.999 390.145 286.233 370.612 284.249C369.397 284.844 367.069 286.066 365.858 286.692C316.79 285.57 265.73 291.701 216.224 292.654C243.981 286.987 271.55 288.874 299.327 285.65C343.153 284.289 387.196 281.97 430.894 281.46ZM464.248 553.882C452.99 554.226 440.67 556.567 430.256 554.257C423.145 559.698 412.129 559.769 402.866 561.717C404.313 558.279 405.643 554.892 406.927 551.542C418.694 549.772 430.264 550.038 441.695 550.154C443.275 549.518 446.476 548.177 448.079 547.538C450.002 549.827 452.669 551.72 455.979 553.199C455.17 551.412 453.545 547.791 452.734 545.988C460.449 545.878 463.63 549.102 464.248 553.882ZM408.89 251.796C406.007 252.665 400.334 254.356 397.5 255.217C398.791 256.46 401.454 258.996 402.796 260.246C391.111 260.954 379.447 261.642 367.747 262.446C368.695 258.945 369.546 255.459 370.304 252.018C383.136 252.121 396.054 251.882 408.89 251.796ZM408.603 567.399C409.044 563.757 411.755 562.664 416.691 564.159C416.365 567.721 413.63 568.817 408.603 567.399ZM363.496 260.014C359.156 262.864 356.253 262.654 354.84 259.392C359.263 256.389 362.163 256.583 363.496 260.014ZM400.359 567.622C396.091 568.422 391.732 569.299 387.404 570.234C387.189 569.39 386.763 567.731 386.525 566.906C388.63 567.255 392.815 567.941 394.918 568.274C396.221 566.678 398.754 563.496 400.008 561.907C382.3 565.395 364.144 565.205 346.573 569.722L345.816 571.14C348.746 576.801 361.987 570.492 369.248 570.734C369.253 571.455 369.233 572.853 369.189 573.581C361.068 573.801 353 574.059 344.787 574.34L343.669 578.542C341.007 575.566 339.332 572.157 334.939 570.233C308.985 576.405 282.487 579.62 256.089 582.616C259.38 580.069 262.65 577.558 265.875 575.084C277.668 573.325 289.477 571.486 301.205 569.815C302.006 567.45 302.738 565.127 303.429 562.888C306.374 563.938 309.252 565.061 312.088 566.253C314.972 565.62 320.661 564.302 323.542 563.638C324.541 561.289 325.472 558.981 326.338 556.763C333.757 558.909 341.167 560.978 350.191 560.007C349.835 558.542 349.148 555.622 348.789 554.126C350.372 555.559 353.509 558.382 355.089 559.784C362.9 558.076 370.634 556.552 378.381 554.932C379.889 557.255 381.378 559.627 382.866 562C382.447 560.183 381.604 556.504 381.135 554.679C384.296 554.332 390.546 553.649 393.685 553.321C393.505 555.293 393.171 559.232 392.966 561.192C395.403 557.351 397.267 553.222 403.612 551.38C402.744 556.75 401.512 562.161 400.359 567.622ZM266.428 261.243C269.835 261.798 276.651 262.925 280.06 263.496C280.027 264.096 280.026 265.225 279.992 265.811C272.446 264.766 264.583 264.412 256.577 264.567L256.069 264.191C258.899 263.738 264.458 262.817 267.238 262.356C265.165 261.171 261.016 258.771 258.965 257.567C270.812 257.885 282.902 257.272 295.001 255.842C286.36 260.108 275.946 259.616 266.428 261.243ZM312.388 579.407C309.636 583.516 306.206 584.109 302.08 581.25C304.948 577.076 308.401 576.464 312.388 579.407ZM251.547 264.247C252.384 268.099 242.144 267.612 240.47 265.346C239.628 261.228 250.064 261.701 251.547 264.247ZM285.242 487.328C271.396 487.178 257.395 487.867 243.254 489.753C243.294 488.995 243.374 487.462 243.414 486.703C257.548 486.103 272.264 484.52 285.242 487.328ZM232.522 261.51C231.97 263.9 231.351 266.347 230.66 268.821C229.977 266.842 228.635 262.879 227.953 260.899C223.681 261.449 215.092 262.572 210.773 263.13L211.39 267.675C214.285 266.914 220.03 265.431 222.95 264.682C222.61 265.628 221.975 267.482 221.635 268.428C211.259 268.055 200.517 269.746 190.089 269.569C204.066 259.619 226.67 259.969 244.381 259.004C241.399 259.638 235.481 260.881 232.522 261.51ZM296.286 582.505C293.471 586.029 290.516 586.469 287.403 583.862C290.257 580.239 293.184 579.771 296.286 582.505ZM236.31 619.313C227.434 621.421 218.49 623.351 209.414 624.972C217.166 620.232 227.161 617.779 236.31 619.313ZM254.225 759.096C242.045 762.952 229.177 763.654 217.037 762.676C229.457 761.024 241.898 759.792 254.225 759.096ZM218.421 629.052C218.634 625.351 221.22 624.246 226.159 625.757C226.054 629.316 223.467 630.421 218.421 629.052ZM148.307 267.338C143.44 268.513 138.558 269.784 133.593 271.194C137.529 270.507 145.378 269.138 149.315 268.452L152.119 273.647C147.113 274.451 137.057 276.114 132.05 276.919C130.637 274.786 129.158 272.725 127.708 270.708C127.84 272.6 128.157 276.423 128.288 278.3C125.665 278.172 120.395 277.904 117.748 277.78C117.142 276.51 115.858 273.98 115.204 272.717C115.321 274.016 115.556 276.629 115.673 277.928C101.268 279.432 86.8656 281.405 72.501 283.953C72.1926 281.571 71.6692 276.761 71.3834 274.359C83.6794 272.476 95.9495 270.581 108.214 269.313C106.821 270.986 104.011 274.336 102.57 276.017C104.344 274.457 107.893 271.338 109.643 269.782C122.351 267.835 135.042 266.189 147.715 264.607L148.307 267.338ZM203.773 615.873C184.11 622.877 163.157 627.978 142.119 631.385C154.076 624.803 169.166 623.037 182.745 619.607C189.55 617.239 196.657 615.608 203.773 615.873ZM203.25 625.094C195.822 628.295 188.752 632.976 179.856 633.316C184.928 630.4 190.005 627.751 195.073 625.024C197.896 624.964 200.581 624.989 203.25 625.094ZM136.947 314.916C134.876 311.708 136.697 310.126 142.412 310.184C144.548 313.303 142.727 314.885 136.947 314.916ZM162.851 765.167C155.314 761.941 146.286 760.388 137.784 758.237C146.019 758.156 154.094 758.414 162.125 758.726C162.324 760.325 162.676 763.563 162.851 765.167ZM68.5794 284.324C55.0709 286.598 41.4874 289.088 28.0954 292.207C27.9277 290.665 27.5454 287.605 27.3535 286.067C30.8078 285.925 34.1704 285.845 37.4637 285.806C37.0125 284.826 36.1377 282.891 35.6865 281.911C38.16 281.576 43.159 280.929 45.6359 280.625C46.6723 281.782 48.7224 284.114 49.7864 285.298C48.9767 283.511 47.3331 279.939 46.5009 278.171L55.4444 276.461C56.1798 278.244 57.6473 281.78 58.3827 283.563C58.7605 281.608 59.4504 277.77 59.8282 275.815L67.8397 274.358C68.0096 276.824 68.382 281.83 68.5794 284.324ZM20.6056 293.709C13.4825 294.057 6.30089 294.319 -0.727366 294.182C6.38162 289.181 15.229 285.682 24.4016 283.137C23.1808 286.617 21.9149 290.136 20.6056 293.709Z" fill="#752B81"/>
<path d="M1458.02 318.966C1470.53 321.156 1481.86 325.116 1489.52 331.673C1479.81 326.581 1461.57 327.903 1458.02 318.966Z" fill="#752B81"/>
<path d="M1450.76 645.929C1461.81 649.091 1473.09 652.425 1480.65 658.537C1475.21 657.068 1470.01 655.295 1464.62 653.881C1464.64 656.576 1464.7 661.946 1464.67 664.664C1461.91 656.632 1462.5 647.834 1447 646.853C1446.47 645.64 1445.41 643.232 1444.85 642.023C1437.17 640.742 1429.41 639.503 1421.59 638.399C1420.43 637.347 1418.06 635.265 1416.88 634.263C1415.1 635.041 1411.53 636.598 1409.74 637.377C1407.08 634.363 1402.98 631.536 1406.14 627.298C1408.55 628.38 1413.37 630.559 1415.75 631.644C1430.4 628.403 1434.89 640.886 1448.15 641.391C1448.75 642.546 1450.06 644.805 1450.76 645.929Z" fill="#752B81"/>
<path d="M1408.35 604.058C1413.46 605.124 1409.43 611.554 1404.07 610.115C1399.24 608.88 1403.08 602.748 1408.35 604.058Z" fill="#752B81"/>
<path d="M1278.35 529.439C1278.58 533.26 1278.77 537.135 1278.9 541.049C1275.24 540.8 1267.79 540.321 1264.07 540.064C1263.5 534.176 1262.95 528.237 1263 522.368C1264.78 524.795 1268.37 529.625 1270.17 532.049C1272.18 531.413 1276.29 530.114 1278.35 529.439Z" fill="#752B81"/>
<path d="M257.189 565.125C256.719 567.2 255.851 571.355 255.426 573.392C238.267 580.843 218.442 580.601 201.211 588.482C188.914 594.031 162.488 592.978 162.754 605.885C160.373 602.651 162.092 598.939 164.075 595.419C171.403 592.547 178.587 589.48 185.79 586.581C185.457 585.561 184.832 583.469 184.496 582.434C186.036 583.159 189.088 584.596 190.604 585.324C213.165 579.042 234.577 570.53 257.189 565.125Z" fill="#752B81"/>
</svg>
