<svg width="163" height="153" viewBox="0 0 163 153" fill="none" xmlns="http://www.w3.org/2000/svg">
<g clip-path="url(#clip0_368_2852)">
<path d="M0 144.215L163 147.754V117.421L1.98767 116.916L0 144.215Z" fill="#F3EBD7"/>
<path d="M144.04 125.975C145.026 127.394 146.42 128.882 146.865 130.503C147.147 131.527 147.321 135.469 149.233 135.164C149.796 135.075 149.832 134.562 150.241 134.283C150.47 134.127 150.992 134.05 151.323 133.873C154.953 131.928 149.576 125.189 148.235 123.27L144.04 125.975Z" fill="#C8915C"/>
<path d="M42.3558 122.86C42.3558 122.86 35.9829 128.433 35.9829 128.555C35.9829 128.689 34.3259 129.545 34.2049 129.616C33.8388 129.83 33.4532 130.013 33.062 130.183C32.5609 130.402 32.1324 130.69 31.6229 130.878C31.0753 131.08 30.4214 131.394 29.8104 131.352C29.6185 131.339 29.4061 131.212 29.2338 131.344C29.1034 131.443 29.3363 131.535 29.082 131.591C28.9022 131.631 28.7579 131.374 28.5995 131.441C28.4589 131.5 28.5036 131.653 28.4999 131.796C28.1617 131.814 27.5321 131.682 27.6467 132.197C27.7491 132.66 28.3946 132.9 28.8286 132.964C29.3102 133.035 29.7927 133.083 30.2807 133.139C31.1516 133.24 31.9853 133.225 32.8673 133.208C35.3868 133.161 37.9995 133.267 40.5041 132.974C41.6581 132.839 41.225 130.952 41.225 130.952L47.9779 123.674L42.3558 122.86Z" fill="#C8915C"/>
<path d="M147.957 121.882C148.433 117.769 143.122 110.648 128.974 95.9009C128.724 95.2146 128.399 94.6586 128.091 94.2983C125.608 91.3957 124.246 86.8538 122.612 83.5062C120.459 79.0928 118.48 74.5771 116.196 70.2223C111.942 62.1106 103.229 59.994 94.4431 58.7009C93.6011 62.0416 91.864 65.2179 90.0626 68.1773C89.053 69.8367 87.938 71.3291 86.471 72.6668C85.4595 73.5891 84.4051 74.4879 83.2744 75.2887C83.1145 75.4511 82.9225 75.5827 82.709 75.6761L82.6308 75.7259C82.8757 76.2111 83.1607 76.6981 83.4653 77.1807C80.1979 78.3636 77.6979 79.3752 75.3572 79.6934C71.4269 84.8519 67.5019 90.014 63.5821 95.1796L52.5689 107.866L44.1683 117.542C43.208 118.648 41.1673 120.254 40.7677 121.63C40.6559 122.013 40.6224 122.358 40.6494 122.669L39.3966 123.889L44.6899 128.661L47.841 125.607C48.3719 125.6 48.8851 125.558 49.3266 125.455C52.5614 124.703 54.618 121.898 56.7072 119.696L63.7228 112.306L72.9262 102.61L95.8095 86.9369C96.7698 86.4027 97.8587 85.7653 97.855 85.6901L97.854 85.6779L117.297 99.016C117.307 99.0798 117.598 99.5441 117.612 99.6096C117.612 99.6096 119.107 101.568 125.29 109.211C128.288 112.916 131.825 118.427 138.321 123.437C139.7 124.501 141.256 125.082 143.289 125.711L143.661 125.682L144.138 125.989L149.238 123.267L147.957 121.882Z" fill="#FF5F33"/>
<path d="M51.7418 125.262L51.7791 124.925C50.7663 125.13 49.7395 125.268 48.7063 125.339L48.8879 127.651C48.9354 128.259 49.0164 128.865 49.0956 129.471C49.1515 129.898 49.0667 130.266 49.0751 130.69C49.0835 131.111 49.076 131.575 49.1971 131.983C49.2893 132.292 49.4207 132.419 49.5939 132.037C49.6591 131.893 49.8147 131.173 49.7774 131.044C49.8137 131.17 49.906 132.662 50.2934 132.56C50.8439 132.415 50.34 130.841 50.5067 130.505C50.7405 130.879 50.598 131.578 51.0106 131.857C51.5993 132.255 51.4149 130.571 51.4493 130.349C51.576 129.535 51.4735 128.772 51.521 127.952C51.7306 128.157 51.9486 128.764 52.3146 128.569C52.7161 128.355 52.4106 127.568 52.2988 127.281C52.0492 126.632 51.6682 125.96 51.7418 125.262Z" fill="#C8915C"/>
<path d="M45.5189 11.3478L45.4519 14.9945L45.4351 15.8906C45.941 15.8057 46.4527 15.7548 46.9664 15.7385L47.1852 15.7306C47.3808 15.6921 47.5764 15.6537 47.772 15.6117C48.3924 15.4806 48.9941 15.3057 49.6023 15.1405L49.3294 13.3954C49.2362 12.7974 49.2707 12.0324 49.3294 11.4344C49.3881 10.8364 50.0615 9.94808 49.8482 9.38329C49.6647 8.89631 49.0975 9.20843 48.8767 9.60448C48.2648 8.96975 48.4585 5.18234 47.5261 5.25578C46.849 5.30912 47.4339 6.84086 46.7232 6.49727C46.2454 6.26646 46.6003 5.0853 45.7397 5.26453C45.6987 5.96483 45.8663 6.57246 45.9418 7.20457C45.4556 7.26926 45.6214 6.78141 45.2153 6.73595C45.1324 8.26682 45.5469 9.80382 45.5189 11.3478Z" fill="#C8915C"/>
<path d="M41.1775 63.6939C39.2467 63.867 35.0441 63.7297 33.1207 63.373C31.4106 63.0556 29.884 62.9481 31.0715 65.0114C31.6397 65.9985 32.4342 66.8011 32.7742 67.9027C33.1272 69.0445 32.1399 69.5201 32.1399 70.5972C32.1399 70.9312 32.3113 71.4261 32.519 71.698C33.0322 72.3703 33.7596 71.7504 34.4284 71.6735C37.1566 71.3605 39.7655 71.8405 42.4853 71.9865C42.734 71.2844 42.7647 70.5168 42.9296 69.7946C43.1699 68.7455 43.413 67.6841 43.5713 66.621C43.7101 65.6899 43.9709 64.4685 43.1112 63.7533C42.2906 63.0696 42.1658 63.6047 41.1775 63.6939Z" fill="#C8915C"/>
<path opacity="0.05" d="M41.1775 63.6939C39.2467 63.867 35.0441 63.7297 33.1207 63.373C31.4106 63.0556 29.884 62.9481 31.0715 65.0114C31.6397 65.9985 32.4342 66.8011 32.7742 67.9027C33.1272 69.0445 32.1399 69.5201 32.1399 70.5972C32.1399 70.9312 32.3113 71.4261 32.519 71.698C33.0322 72.3703 33.7596 71.7504 34.4284 71.6735C37.1566 71.3605 39.7655 71.8405 42.4853 71.9865C42.734 71.2844 42.7647 70.5168 42.9296 69.7946C43.1699 68.7455 43.413 67.6841 43.5713 66.621C43.7101 65.6899 43.9709 64.4685 43.1112 63.7533C42.2906 63.0696 42.1658 63.6047 41.1775 63.6939Z" fill="black"/>
<path d="M26.7152 61.9444C22.2453 61.7355 18.3864 65.8507 20.3061 68.7219C20.3061 68.7219 21.1071 74.3855 29.8299 73.068C36.9973 71.9856 35.3049 65.9119 34.57 65.1102C33.2473 63.6676 31.1852 62.1534 26.7152 61.9444Z" fill="#C8915C"/>
<path d="M26.5811 63.9868C25.8117 64.6163 25.5388 65.6418 25.7298 66.559C25.795 66.8702 26.3017 66.7382 26.2374 66.4278C26.0809 65.6751 26.3287 64.8445 26.9527 64.3339C27.2098 64.125 26.8354 63.7788 26.5811 63.9868Z" fill="#3B589C"/>
<path d="M26.3538 71.3457C25.6357 70.8622 25.8555 69.9844 26.1741 69.3418C26.3157 69.0559 25.8621 68.8059 25.7195 69.0935C25.2641 70.0115 25.1076 71.1096 26.0884 71.7706C26.3641 71.9568 26.6268 71.5302 26.3538 71.3457Z" fill="#3B589C"/>
<path opacity="0.15" d="M31.3258 67.6798C31.4208 67.9823 31.4748 68.3924 31.4022 68.5209C31.3649 68.5873 31.3398 68.6057 31.078 68.5463C31.0199 68.5322 30.9612 68.5205 30.902 68.5113C30.7448 68.4876 30.5873 68.4648 30.4298 68.4431C30.009 68.3899 29.591 68.319 29.177 68.2306C28.7346 68.1283 28.3033 68.1476 27.887 68.1668C27.7603 68.1729 27.6318 68.1782 27.5023 68.1808L27.5107 68.5742C27.6448 68.5716 27.7761 68.5655 27.9075 68.5602C28.3117 68.5419 28.6936 68.5253 29.0764 68.6136C29.4993 68.7115 29.9408 68.7736 30.3674 68.8339C30.5238 68.8558 30.6794 68.8776 30.834 68.9012C30.8815 68.9082 30.9299 68.9196 30.9793 68.9309C31.0687 68.9511 31.1824 68.9764 31.2997 68.9764C31.3986 68.9804 31.4965 68.9569 31.5812 68.9089C31.6659 68.8608 31.7335 68.7903 31.7757 68.7063C31.9713 68.3609 31.7561 67.6501 31.7319 67.5706L31.3258 67.6798Z" fill="black"/>
<path d="M29.1574 77.116C28.62 76.2889 29.1928 75.4618 29.109 74.5648C29.0783 74.2396 28.9414 73.548 28.6778 73.3251C28.2344 72.95 27.4222 73.242 26.8792 73.1126C26.5802 73.0418 25.7102 72.8267 25.4839 72.6152C25.0722 72.2296 25.2361 71.3413 25.1858 70.8342C25.1169 70.1462 25.0098 69.4616 24.9036 68.7779C24.6307 67.0127 24.6093 65.279 22.738 64.5175C23.2913 64.0716 24.1668 63.9379 24.8393 63.6817C25.9207 63.2699 26.6668 62.7611 27.8711 62.7532C28.3573 62.7497 29.3679 62.8782 28.8724 62.136C28.5203 61.6088 27.737 61.4339 27.1642 61.2652C25.9682 60.912 24.736 60.6296 23.4888 60.4888C23.1022 60.4451 22.7287 60.3655 22.3552 60.3244C22.0171 60.2877 21.6781 60.2833 21.3288 60.3673C19.9121 60.7083 18.5867 61.7618 17.5667 62.7042C16.3019 63.8723 15.8334 65.6287 15.3285 67.178C14.493 69.7449 13.8792 72.9045 14.167 75.5938C14.2564 76.4262 14.6318 77.1859 14.7715 78.0069C14.9923 79.3052 14.8321 80.7084 14.7371 82.0128C14.6449 83.2797 14.4073 84.3052 14.6123 85.4986C14.7855 86.5076 15.0677 87.4177 15.1059 88.4625C15.1823 90.5459 14.7557 92.7639 15.3639 94.8028C15.6891 95.902 16.2541 96.9258 17.0231 97.8093C17.7921 98.6927 18.7483 99.4166 19.8311 99.9348C22.2714 101.11 23.3537 99.9917 25.3432 98.6619C26.3436 97.993 27.7184 97.2857 28.4151 96.3048C29.2469 95.1333 29.1966 93.4625 29.7284 92.1283C31.3435 88.0778 31.8204 83.841 30.3506 79.6706C30.0265 78.7561 29.6874 77.9334 29.1574 77.116Z" fill="#3B589C"/>
<path d="M27.9745 64.6477C27.9643 64.9695 27.9224 65.3655 28.0323 65.6873C28.0761 65.814 28.2605 66.1743 28.4458 66.1891C28.648 66.2049 28.7253 65.891 28.769 65.7432C28.8817 65.3594 28.8296 64.8689 28.6517 64.5122C28.4039 64.0156 27.9932 64.1031 27.9745 64.6477Z" fill="#FFFDF8"/>
<path d="M27.9829 65.133C28.0332 65.4521 28.6405 65.5893 28.7234 65.2265C28.7369 65.1707 28.7269 65.1121 28.6955 65.063C28.5362 64.8077 27.9196 64.7308 27.9829 65.133Z" fill="#000010"/>
<path d="M27.4287 69.9888C27.4175 70.3105 27.3766 70.7066 27.4865 71.0283C27.5302 71.1551 27.7147 71.5153 27.9 71.5302C28.1021 71.5459 28.1794 71.232 28.2232 71.0843C28.3359 70.7005 28.2838 70.21 28.1059 69.8533C27.8572 69.3558 27.4464 69.4441 27.4287 69.9888Z" fill="#FFFDF8"/>
<path d="M27.4725 70.5755C27.5228 70.8946 28.1301 71.0319 28.213 70.669C28.2265 70.6132 28.2165 70.5546 28.185 70.5055C28.0258 70.2502 27.4092 70.1733 27.4725 70.5755Z" fill="#000010"/>
<path d="M33.1775 67.2557C33.0229 67.2557 32.8384 67.3519 32.8263 67.6221C32.8198 67.7602 32.8478 67.9036 32.8748 68.0426C32.8999 68.172 32.926 68.3066 32.912 68.3941C32.8955 68.4643 32.8679 68.5317 32.8301 68.5943C32.7537 68.7394 32.6484 68.9387 32.7425 69.1888C32.8384 69.4423 33.007 69.4799 33.1002 69.4799C33.2893 69.4799 33.4662 69.3313 33.6413 69.0244C33.7093 68.9064 33.7652 68.7814 33.7838 68.7062C33.8602 68.4019 33.8183 67.8607 33.6339 67.5399C33.5379 67.372 33.3507 67.2557 33.1775 67.2557ZM33.374 68.6153C33.3473 68.693 33.3124 68.7679 33.2697 68.8391C33.2313 68.9088 33.1854 68.9748 33.1328 69.0358C33.1113 68.9562 33.1439 68.8889 33.2073 68.7674C33.2548 68.6764 33.3088 68.5742 33.3284 68.45C33.3517 68.2988 33.32 68.1326 33.2883 67.9718C33.2706 67.8791 33.252 67.7847 33.2473 67.7034C33.2532 67.7101 33.2582 67.7174 33.2622 67.7252C33.3805 67.9307 33.4355 68.3713 33.374 68.6153Z" fill="#F1A18E"/>
<path d="M59.9244 53.6772C59.8611 53.6606 59.5472 53.324 59.4857 53.3065L59.5919 53.1964C58.9799 53.0171 58.463 52.775 58.1342 52.4375L58.1305 52.434C57.8688 52.1656 57.6903 51.8352 57.6145 51.4784L50.2739 16.6643C50.2699 16.6469 50.2606 16.631 50.247 16.6186C50.2335 16.6061 50.2163 16.5977 50.1977 16.5945C50.179 16.5912 50.1598 16.5932 50.1423 16.6002C50.1249 16.6072 50.1101 16.6188 50.0997 16.6337C50.0513 16.7045 49.9339 16.6792 49.9246 16.5953L49.8538 15.9938C49.8521 15.978 49.8547 15.962 49.8612 15.9474L50.0289 15.5995C50.0371 15.5822 50.0393 15.5629 50.0354 15.5444L49.8184 14.5958C49.8133 14.5741 49.7998 14.555 49.7805 14.542C49.7613 14.5291 49.7376 14.5234 49.7141 14.5258L45.5227 14.9857C45.5021 14.9876 45.4828 14.9958 45.4678 15.0091C45.4528 15.0224 45.443 15.04 45.4398 15.0591C44.418 21.0209 43.4987 50.8655 43.426 53.2777L43.4251 53.289L43.1568 54.868L41.8565 62.7855C41.8545 62.7996 41.8557 62.8139 41.8603 62.8275C43.8982 68.3504 40.7016 71.2469 40.3188 71.5677C40.3072 71.5773 40.2984 71.5894 40.2932 71.603C40.288 71.6166 40.2865 71.6313 40.289 71.6455L48.1847 126.254C48.1879 126.277 48.2004 126.298 48.2195 126.312C48.2386 126.326 48.2628 126.333 48.2871 126.331L53.0225 125.983C53.0455 125.982 53.0672 125.972 53.0833 125.957C53.0995 125.941 53.109 125.921 53.1101 125.899C53.26 122.877 54.6255 96.9526 54.7531 94.3586C54.8379 92.6407 55.2123 90.3745 55.6715 88.7195C55.7916 88.285 57.0742 86.539 58.2953 86.1447C58.8309 85.9716 59.2221 85.8265 59.5434 85.6927C59.6347 85.6551 59.7661 85.3229 59.862 85.4252C59.9477 85.5161 60.1135 85.1218 60.1545 85.2669C60.1908 85.3972 60.364 85.044 60.4879 84.974C60.8465 84.7738 60.7347 85.1393 60.7943 85.1113C61.1874 84.9251 61.5479 84.7695 62.3098 84.5002C65.3286 83.4327 66.843 82.8233 69.357 81.8581C69.4194 81.8345 69.5135 81.6229 69.5768 81.5984C69.6578 81.5669 69.6727 81.4883 69.7556 81.4559C69.8273 81.4288 70.0742 81.2819 70.1468 81.254C70.1859 81.2391 70.2307 81.5224 70.2707 81.5075L71.2273 81.1447C72.2453 80.76 74.4212 80.1156 75.4662 79.7904C75.7429 79.7047 76.1322 79.6129 76.4908 79.5377C76.5513 79.5255 76.3138 79.2859 76.3753 79.2737C76.4386 79.2606 76.4349 79.2002 76.4992 79.1871C76.5662 79.174 76.7274 79.2265 76.7954 79.2134C76.8839 79.1968 77.0627 79.3471 77.1521 79.3305C78.1683 79.1434 79.3801 79.021 80.1029 78.7893C81.2234 78.4309 80.8657 78.5918 82.0048 78.2001C82.1325 78.1564 82.9521 77.4255 83.0797 77.38C83.2213 77.3293 83.2809 77.0722 83.4188 77.0145C83.6786 76.9061 82.9307 77.9159 83.0676 77.8617C85.0348 77.0731 88.5044 75.3989 89.7022 73.5707C91.4225 70.9435 92.544 68.0234 93.6319 65.1295C94.1293 63.8058 96.0322 59.4895 94.8548 58.3931C93.8424 57.4498 89.6919 57.448 88.3451 57.2461C86.6641 56.9927 84.9816 56.7485 83.2977 56.5134C83.2362 56.5047 83.51 56.6865 83.4486 56.6778C83.3265 56.6612 82.6345 56.5239 82.5125 56.5073C82.5125 56.5073 82.465 56.4032 82.3476 56.3875C81.2411 56.2354 80.1336 56.085 79.0261 55.9346C78.0689 55.8052 77.1108 55.682 76.1518 55.5648C76.0903 55.5569 75.7783 55.8997 75.7373 55.9189C75.6795 55.946 75.2958 55.6199 75.2315 55.612L75.388 55.4713C72.4354 55.1076 69.4818 54.7578 66.5385 54.27C66.5254 54.2674 66.2888 54.5087 66.2888 54.5087C66.1696 54.4886 65.8883 54.3286 65.7691 54.3085L65.8977 54.1607C65.4785 54.0881 65.0258 54.0138 64.6086 53.9351C63.5691 53.7375 61.7519 53.6685 60.2504 53.3502L60.2374 53.3476L59.9244 53.6772Z" fill="#FFB90F"/>
<path d="M48.0384 125.104L50.2841 126.183L51.4158 126.1L47.9416 124.431L48.0384 125.104Z" fill="#C8915C"/>
<path d="M50.0643 15.6676L50.2347 16.472C49.9609 16.8995 49.4868 17.5675 48.6644 18.6402C48.0999 19.3744 47.5264 20.1024 46.944 20.8242L51.345 24.1893L46.5388 28.8685L50.2822 32.919L47.2952 37.3849L51.9104 42.8238L46.1709 47.6324L52.527 53.5723L45.8524 59.4431L52.7869 62.7759L46.3526 69.1643L52.1162 74.5508L46.7614 79.9259L52.1293 84.3847L46.3526 90.1559L51.4838 94.9505L46.7037 102.21L51.5052 107.444L47.1163 111.919L51.4726 117.655L47.6873 122.665L47.5699 121.854L50.7414 117.655L46.3507 111.873L50.7079 107.431L45.9679 102.263L50.7293 95.0327L45.5236 90.1673L51.2761 84.4206L45.9092 79.9626L51.2882 74.563L45.5226 69.1748L51.8107 62.9315L44.8306 59.5769L51.6729 53.5592L45.3066 47.6097L51.0963 42.7583L46.5677 37.4225L49.5446 32.9715L45.7331 28.8475L50.4685 24.2374L46.1225 20.9142L46.2967 20.7C48.0682 18.5222 49.9674 15.9395 50.0391 15.5531L50.0643 15.6676Z" fill="#F3EBD7"/>
<path d="M57.0975 56.5186L60.2513 53.3528C60.0317 53.3065 59.8142 53.252 59.5993 53.1893L56.2452 56.5562L61.6121 61.0142L55.8596 66.7609L61.0654 71.6263L56.3039 78.8566L61.044 84.0245L59.3115 85.7906C59.929 85.5493 60.2895 85.3552 60.7683 85.1305L61.8403 84.0376L57.0388 78.8033L61.8189 71.5441L56.6877 66.7495L62.4644 60.9783L57.0975 56.5186Z" fill="#F3EBD7"/>
<path d="M65.6452 66.364L71 60.9889L65.2363 55.6024L66.5701 54.2778C66.3373 54.2394 66.1044 54.1992 65.8716 54.1589L64.4064 55.6137L70.172 61.002L64.793 66.4016L70.1599 70.8595L64.4074 76.6062L69.6131 81.4716L69.3542 81.8651L70.2903 81.5066L70.3676 81.3894L65.2363 76.5949L71.0131 70.8237L65.6452 66.364Z" fill="#F3EBD7"/>
<path d="M74.2786 57.2163L76.1536 55.5674L75.3898 55.4739L73.255 57.3518L80.2351 60.7065L73.9471 66.9498L79.7126 72.338L74.3336 77.7376L76.4461 79.4923C76.6827 79.4468 76.9314 79.404 77.1866 79.3611L75.1859 77.6991L80.5416 72.324L74.7779 66.9375L81.2122 60.5491L74.2786 57.2163Z" fill="#F3EBD7"/>
<path d="M82.8813 67.8424L87.6614 60.5832L83.3135 56.5196L82.3243 56.3832L86.907 60.6663L82.1455 67.8967L86.8855 73.0654L82.0225 78.2228L82.0328 78.2368L83.2427 77.8032L87.6819 73.0777L82.8813 67.8424Z" fill="#F3EBD7"/>
<path d="M143.298 125.23C143.217 125.238 143.135 125.241 143.053 125.241C138.81 125.241 131.268 116.49 131.197 116.407L117.53 99.0745L117.507 99.0465L89.4339 79.5884L89.1377 79.9617L117.15 99.3787L130.802 116.69C131.124 117.066 138.572 125.705 143.064 125.705C143.109 125.705 143.156 125.704 143.201 125.703L143.733 126.268L144.134 125.994L143.437 125.219L143.298 125.23Z" fill="#F3EBD7"/>
</g>
<defs>
<clipPath id="clip0_368_2852">
<rect width="163" height="153" fill="white"/>
</clipPath>
</defs>
</svg>
