<svg width="128" height="128" viewBox="0 0 128 128" fill="none" xmlns="http://www.w3.org/2000/svg">
<g clip-path="url(#clip0_368_2967)">
<path d="M59.8611 54.2826H83.582C83.582 54.2826 79.1523 49.7048 71.5583 49.7048C63.9643 49.7048 59.8611 54.2826 59.8611 54.2826Z" fill="#FE9A4F"/>
<path d="M98.0057 42.0011C95.5353 36.5776 92.477 30.7043 87.3077 27.2657C87.3068 27.2657 82.0762 25.1455 81.5935 25.2762L75.018 22.986V22.1119L76.8685 20.8557C80.457 20.6033 83.4184 16.6326 83.4184 12.9655L82.2719 6.71909C75.722 3.92506 73.6941 2.76392 69.2534 7.86926C69.0477 7.8272 66.7693 7.78697 66.5517 7.78697C64.789 7.78697 63.1131 11.605 63.1131 13.376C63.1131 15.1451 62.5783 16.746 64.341 16.746L68.1005 19.9368V23.0993L64.1326 24.4817H63.9771C63.9771 24.4817 56.9573 26.6284 56.1381 27.2657C50.4851 29.2259 45.9402 54.961 30.8702 66.0878C25.2099 70.2679 35.5668 72.7639 44.684 59.7299C53.8003 46.696 57.6265 38.0606 57.6265 38.0606L62.4119 45.8411L59.8629 54.2817L63.8857 65.4432L54.6533 73.8583C54.6036 74.7473 54.5777 75.6375 54.5756 76.528V93.0069L36.7792 103.022L35.768 105.917L38.7266 106.921L57.8935 98.6791C59.3981 98.031 60.7407 97.0581 61.825 95.83C62.9093 94.602 63.7086 93.1493 64.1655 91.5761L68.032 78.2907V78.2898C67.9387 78.0192 71.071 59.6184 71.071 59.6184H73.098L74.7565 60.913L75.6945 77.9643L84.147 94.3939L85.161 122.392L87.187 124.244L89.5066 122.392L93.8741 97.6497C94.4775 94.2321 94.2827 90.7203 93.3054 87.3914L89.0138 72.773L83.5994 56.7521L83.5848 54.2826L78.9009 43.0681L86.0789 36.1918L92.5813 46.0468L84.5475 57.5484L84.5521 57.575L86.7399 65.0263C87.2931 65.83 87.9258 66.0192 88.6142 64.8919C89.662 63.174 88.6142 58.9007 88.6142 58.9007L96.402 51.0827C98.7792 48.69 99.4055 45.0749 98.0057 42.0011Z" fill="#FE9A4F"/>
<path d="M59.9424 54.2899C59.9424 54.2899 64.0457 49.7121 71.6397 49.7121C79.2337 49.7121 83.6634 54.2899 83.6634 54.2899L87.3873 27.273L81.673 25.2835C80.4653 28.7733 77.5021 31.4211 73.8358 32.1534L71.4294 36.0729L69.6128 32.115C66.0196 31.3379 63.1214 28.7221 61.931 25.2826L56.2167 27.2721L57.4784 36.424L59.9424 54.2899Z" fill="#EC542E"/>
<path d="M54.7328 73.8665L68.1115 78.2971L70.9403 68.5774L75.7732 77.9726L89.0924 72.7813L86.8177 65.0328L84.6298 57.5823L83.6634 54.2909H59.9424C56.8725 60.3863 55.0987 67.0515 54.7328 73.8665Z" fill="#000010"/>
<path d="M68.1005 19.9377V16.1992C67.2523 16.1975 66.4394 15.859 65.8407 15.258C65.2419 14.6571 64.9064 13.843 64.9079 12.9947C64.9072 12.5208 65.0119 12.0528 65.2143 11.6243C65.4167 11.1959 65.7118 10.8177 66.0782 10.5173C66.4446 10.2168 66.8732 10.0016 67.333 9.88703C67.7928 9.7725 68.2723 9.76158 68.7369 9.85505C73.1766 4.7488 78.7574 14.9485 81.449 7.22649V12.9993C81.449 16.6655 78.6065 19.6369 75.018 19.8893V22.1119L88.1863 22.558C88.1863 22.558 89.4426 15.7988 85.0888 13.0953C85.0888 13.0953 85.6236 1.46928 74.6495 0.117058C63.6763 -1.23425 60.9253 9.52316 61.1566 12.5257C61.1566 12.5257 55.1918 13.2306 56.2688 21.4764L68.1015 21.8778L68.1005 19.9377Z" fill="#000010"/>
<path d="M89.5038 122.392H85.1582V128H93.1362C94.834 128 95.4256 125.736 93.9454 124.9L89.5038 122.392Z" fill="#EC542E"/>
<path d="M31.7835 105.535L35.3584 112.694C36.12 114.218 38.4011 113.734 38.4825 112.03L38.7257 106.921L36.7782 103.022L31.7835 105.535Z" fill="#EC542E"/>
</g>
<defs>
<clipPath id="clip0_368_2967">
<rect width="128" height="128" fill="white"/>
</clipPath>
</defs>
</svg>
