<svg width="100" height="100" viewBox="0 0 100 100" fill="none" xmlns="http://www.w3.org/2000/svg">
<g clip-path="url(#clip0_368_2955)">
<path d="M100 17.614C99.3394 18.1571 99.2412 18.9071 99.3087 19.6771C99.4037 20.7571 99.1581 21.6571 98.5625 22.6196C98.0056 23.5203 97.4375 24.4803 97.2656 25.6434C97.1469 26.4484 97.0413 27.339 96.4481 28.1015C96.0631 28.5965 96.1025 29.4221 95.8969 30.3471C95.675 30.6146 95.24 31.0734 94.8856 31.5878C94.6169 31.9778 94.3281 32.4203 94.2638 32.8709C94.0975 34.0215 93.5694 34.9296 92.7756 35.7478C92.4744 36.0584 92.3125 36.5071 92.0975 36.8984C91.6087 37.7884 91.1575 38.7015 90.6263 39.5653C90.4294 39.8853 90.0531 40.0946 89.6731 40.429C90.0038 41.7953 88.8569 42.504 87.9562 43.204C87.4469 43.5996 87.1338 43.9553 86.9994 44.5409C86.9094 44.9334 86.8456 45.344 86.6756 45.7015C86.5375 45.9928 86.2706 46.229 86.0387 46.4678C85.6706 46.8478 85.1056 47.1453 84.9413 47.594C84.5913 48.549 83.8338 49.144 83.2656 49.904C82.8444 50.4678 82.5075 51.0946 82.1269 51.689C82.0556 51.8009 81.975 51.9396 81.865 51.9884C80.4306 52.6228 79.87 54.1059 78.8206 55.1165C77.6467 56.2447 76.5325 57.4334 75.4825 58.6778C74.7419 59.5584 73.7831 60.1115 72.8731 60.7396C72.1181 61.2609 71.4744 61.8021 71.2237 62.7484C71.1331 63.0909 70.7844 63.3828 70.5119 63.6559C70.1069 64.0628 69.6869 64.4615 69.2337 64.8134C67.92 65.8328 66.9356 67.2046 65.5356 68.1453C64.6669 68.729 63.8331 69.4046 63.2869 70.3734C63.1344 70.644 62.6381 70.7209 62.1688 70.9509L61.495 72.2253C59.9925 72.4265 58.9756 73.329 58.28 74.5647C57.7875 75.4403 57.0088 75.9021 56.1375 76.4634L56.2412 77.0153C55.6637 77.3859 55.1312 77.8903 54.5006 78.0996C53.2681 78.509 52.555 79.4659 51.8388 80.3971C50.9419 81.5628 49.7956 82.2703 48.3844 82.734C48.1131 83.6678 47.3256 84.2565 46.5931 84.8965C46.3335 85.1216 46.1001 85.3753 45.8975 85.6528C45.3056 86.4728 44.7744 87.3484 43.6863 87.7228L43.5887 88.8853C42.9831 88.7621 42.6781 88.9896 42.5444 89.5921C42.2513 90.9121 41.4744 91.8278 40.1719 92.2978C39.8512 92.4134 39.5931 92.7034 39.2431 92.959C38.1056 92.6921 37.385 92.0134 37.1669 90.7709C37.0956 90.3653 36.8137 89.9959 36.61 89.5715C36.9106 88.5896 37.2031 87.5728 37.5394 86.5696C37.6506 86.2371 37.8787 85.9453 38.0431 85.6296C38.5075 84.7378 38.9381 83.844 37.9775 82.9865C38.3012 82.2453 37.3544 81.889 37.4462 81.2015C37.5462 80.4559 37.0706 79.964 36.63 79.4359C36.1512 78.8621 35.7587 78.2165 35.3325 77.5996C35.2312 77.4534 35.1813 77.214 35.0481 77.1578C33.6481 76.5628 33.1294 75.1034 32.0775 74.1746C31.7294 73.8671 31.5062 73.569 31.3387 73.0959C31.2075 72.7253 30.4925 72.5503 30.0237 72.3134C29.6769 72.1384 29.31 72.0034 28.9719 71.859L29.0887 70.7959C28.4081 70.2721 27.8806 69.8265 27.3119 69.4409C26.91 69.1684 26.4525 68.9778 25.9081 68.6915L25.5387 67.6321C24.8912 67.4378 24.5331 66.9609 24.2081 66.3109C23.7631 65.419 23.185 64.559 22.0806 64.2603C21.7219 64.1634 21.3531 63.8896 21.1144 63.5946C19.7225 61.8759 19.735 61.8659 17.6206 61.1284L17.0025 59.5021C15.5306 59.2753 14.8169 57.9234 13.7862 56.9896C13.5437 56.7703 13.6287 56.1896 13.5362 55.6071C11.6275 55.2484 10.5862 53.7528 9.54687 51.9246L8.49062 51.7753C8.4725 51.7496 8.385 51.6471 8.3225 51.5315C8.15437 51.2196 7.92375 50.919 7.84812 50.584C7.60125 49.4953 6.96875 48.8721 5.80125 48.789C5.74125 48.5546 5.69875 48.3403 5.63187 48.1346C5.32625 47.1934 5.22937 46.1703 4.04 45.7365C3.55187 45.5584 3.2275 44.9315 2.7475 44.4221C2.9925 43.1853 2.13062 42.2896 1.34937 41.3078C1.55125 40.4328 1.33937 39.6521 0.619999 39.0421C0.276874 38.7509 0.245623 38.404 0.291873 37.9571C0.362498 37.2778 0.197498 36.5709 0.171873 35.9121C0.114998 34.4409 -0.284377 32.9159 0.373123 31.4559C0.624373 30.8984 0.733749 30.2778 0.976249 29.7146C1.14625 29.319 1.3725 28.9115 1.6775 28.6178C2.29625 28.0228 2.81562 27.3746 3.17562 26.5953C3.24687 26.4415 3.34312 26.2234 3.47312 26.184C4.47 25.8821 4.98312 24.724 6.12687 24.699C6.85375 23.7865 8.02937 23.6821 8.98812 23.4228C10.2019 23.094 11.3969 22.5784 12.6444 22.4678C13.18 22.4203 13.7487 22.2465 14.42 22.4871C15.0606 22.7171 15.9569 22.1928 16.75 22.0521C18.0044 21.8296 19.2094 21.3371 20.5619 21.7846C21.1794 21.989 21.98 21.7809 22.66 21.609C23.1656 21.4815 23.5944 21.5215 24.0875 21.6134C25.93 21.9559 27.8075 21.9378 29.6681 21.9203C30.9387 21.9084 32.1494 22.0078 33.3213 22.4971C33.5269 22.5828 33.7588 22.769 33.9381 22.729C35.2731 22.4315 36.4194 23.2115 37.68 23.3534C38.87 23.4878 40.0337 23.859 41.2087 24.1303C41.2937 24.1496 41.4119 24.1771 41.4475 24.2396C42.0188 25.2415 43.0437 25.1628 43.9781 25.3815C44.8587 25.5878 45.7169 25.9415 46.5438 26.3196C48.3413 27.1421 49.9944 28.2453 51.8525 28.9709C52.5606 29.2471 53.0931 29.9653 53.7194 30.4659C54.0287 30.7134 54.3519 30.9528 54.6975 31.1434C55.2819 31.4659 55.8137 31.3515 56.2712 30.8628C57.0906 29.9878 58.0437 29.2403 58.6656 28.1765C58.8544 27.854 59.2694 27.6596 59.5919 27.4209C60.8806 26.4659 61.8038 25.1153 63.0525 24.1409C64.2675 23.1928 65.1556 21.904 66.4631 21.0628C66.7669 20.8678 66.9337 20.4578 67.1562 20.1409C67.2575 19.9965 67.3044 19.7659 67.4381 19.6996C68.7169 19.0621 69.5419 17.8659 70.7175 17.0859C71.8631 16.3259 72.8525 15.3334 73.9425 14.484C74.3156 14.1934 74.8112 14.0634 75.2075 13.7959C75.8919 13.334 76.775 13.2259 77.2894 12.4159C77.4919 12.0971 78.205 12.1421 78.6319 11.9184C79.6475 11.3846 80.6131 10.754 81.6325 10.2278C82.9294 9.5584 84.2437 8.91465 85.5869 8.34652C85.9431 8.1959 86.4344 8.36402 86.88 8.38652L86.9131 7.9659C86.9694 7.93965 87.0356 7.8834 87.1012 7.8834C87.4569 7.88277 87.9094 8.04027 88.15 7.87839C89.0856 7.24964 90.1181 7.42402 91.1275 7.3584C91.396 7.33887 91.6621 7.29345 91.9219 7.22277C93.055 6.92152 93.0537 6.91715 93.7131 7.8159C93.7969 7.8159 93.9 7.84652 93.97 7.81152C95.225 7.1809 95.2244 7.17902 96.0575 8.21215C96.1981 8.38652 96.3062 8.66589 96.4837 8.72027C97.9256 9.16339 97.9506 10.6309 98.5781 11.6409C98.8588 12.0928 98.7963 12.7634 98.865 13.3384C98.9169 13.769 98.7656 14.3446 98.9925 14.609C99.5025 15.2028 99.3725 15.734 99.0744 16.3534L99.9975 17.3403C100 17.4346 100 17.524 100 17.614ZM70.6 25.3346C69.8788 25.9278 69.6712 26.9978 68.6362 27.2565C68.4656 27.299 68.37 27.6034 68.2181 27.7671C67.6406 28.389 67.1575 29.2296 66.4419 29.554C65.7619 29.8628 65.0256 29.8684 64.9581 30.819C63.8847 31.7849 62.8889 32.8338 61.98 33.9559C61.3206 34.7728 60.7962 35.7071 59.7125 36.0671C59.6294 36.0946 59.6206 36.3078 59.5494 36.4159C59.435 36.5903 59.3194 36.8665 59.1656 36.8953C58.2838 37.0615 57.895 37.839 57.2894 38.3403C56.6087 38.904 56.035 39.6671 55.2669 40.0328C54.6675 40.3178 54.2188 40.6346 53.8819 41.2215L52.7131 40.9284C52.3131 41.9428 51.38 41.9634 50.5587 42.1415C49.9525 42.2734 49.4387 42.1178 49.0312 41.5596C48.7869 41.2253 48.3688 41.0178 48.03 40.754V38.5065C48.695 37.9734 49.2794 37.4015 49.9606 36.989C50.5944 36.6053 50.9556 36.154 50.9713 35.7265L49.4137 33.5746L48.8062 34.2459C48.5056 33.6178 48.1362 33.2803 47.5356 33.0571C46.925 32.8309 46.4319 32.289 45.7369 31.7734C44.9181 31.9178 44.4069 31.0446 43.9475 30.7359C42.8456 30.4978 42.0344 30.2234 41.2087 30.169C40.0788 30.0946 39.0794 29.7421 38.12 29.1859C37.9387 29.0809 37.7087 29.039 37.4956 29.014C36.3594 28.8834 35.2194 28.7821 34.0856 28.6328C33.9025 28.6084 33.7537 28.3053 33.5719 28.2846C32.9275 28.2134 32.4237 27.3096 31.6731 28.0478L31.5763 27.354C31.4594 27.3303 31.3581 27.2734 31.2894 27.3009C30.0863 27.7759 29.9312 27.7728 28.6087 27.3309C28.42 27.2678 28.1681 27.2484 27.9912 27.3209C27.3956 27.5665 26.795 27.5659 26.1625 27.5546C25.0575 27.5353 23.9506 27.6228 22.8512 27.6653V27.2103L21.5294 27.094L21.3731 26.3109L20.3131 27.1009C19.6931 26.734 19.6694 26.6971 19.0912 27.0646C18.2606 27.5921 17.4631 27.7853 16.6606 27.0021C15.8519 27.6409 15.1537 28.429 14.025 28.0484C14.0029 28.043 13.9798 28.0425 13.9575 28.0469C13.9351 28.0513 13.914 28.0606 13.8956 28.074C13.2619 28.6171 12.4806 28.494 11.7637 28.4603C11.0312 28.4265 10.3894 28.5028 9.81 28.974C9.44062 29.2746 9.05125 29.5521 8.66187 29.8278C8.41375 30.0028 8.16937 30.2146 7.88937 30.3071C6.82937 30.6553 6.31312 31.4246 6.18 32.4709C6.1025 33.0803 6.22062 33.7253 6.08 34.3134C5.76875 35.614 6.19375 36.5809 7.22187 37.2715C7.11 38.1071 7.11625 38.104 7.60125 38.8871C7.68625 39.024 7.78687 39.2553 7.72875 39.3596C7.42437 39.9096 7.8325 40.289 8.12187 40.5278C8.87062 41.1453 9.36562 41.9146 9.80937 42.7478C9.93187 42.9778 10.1137 43.2478 10.3356 43.3415C11.3562 43.7728 11.7506 44.6421 11.9675 45.5621C13.0825 46.2509 14.2706 46.7628 14.4144 48.2284L19.2781 52.1778C19.3162 53.2078 20.2869 53.3721 21.2225 53.6021C21.2044 54.5578 21.8975 54.9046 22.5537 55.3046C22.8762 55.5015 23.2494 55.7215 23.4275 56.0309C24.1169 57.2234 25.2387 58.0421 26.0325 59.1403C26.145 59.2953 26.4037 59.3396 26.5862 59.4503C27.1012 59.7621 27.7369 59.9803 28.0944 60.4221C28.62 61.0728 29.3031 61.4365 29.93 61.9203C30.5344 62.3865 30.8881 63.174 31.3675 63.8084C31.4394 63.904 31.59 63.9628 31.715 63.9915C32.58 64.1915 32.9212 64.8178 32.9687 65.5746C33.1781 65.6803 33.2919 65.7696 33.4194 65.7965C34.225 65.9665 34.6838 66.4128 35.0144 67.2128C35.3237 67.9615 35.945 68.5878 36.4594 69.2446C37.0256 69.9678 37.6263 70.664 38.1556 71.3046C38.78 71.8753 39.4781 72.3121 39.8987 72.9365C40.9862 74.5515 41.9475 76.2515 42.9725 77.909C43.0562 78.0446 43.2406 78.1178 43.4338 78.2609C44.2763 77.504 45.0981 76.789 45.8919 76.0446C46.3438 75.6215 46.7175 75.1522 47.3881 74.9865C47.7206 74.9046 47.98 74.4878 48.2506 74.2015C48.4956 73.9421 48.6569 73.5284 48.9494 73.4034C49.6437 73.1065 49.9444 72.584 50.1756 71.9234C50.285 71.6122 50.5219 71.254 50.8 71.1165C51.15 70.9428 51.6006 70.9728 52.0612 70.9071C52.6275 69.9165 53.3144 68.9534 54.7706 68.9909L55.8425 66.7921L57.7806 65.4446L57.95 66.1278C58.26 65.9965 58.6775 65.9528 58.7787 65.7509C59.0894 65.1315 59.2781 64.4515 59.4413 63.9996C60.0356 63.4846 60.4981 63.0996 60.9431 62.6946C61.3706 62.3059 61.7563 61.8684 62.2013 61.5021C63.0894 60.7715 64.0675 60.1646 64.8225 59.2584C65.4056 58.5584 66.05 57.7746 66.8425 57.4209C67.6981 57.039 68.0894 56.3871 68.3819 55.7003C68.7794 54.769 69.3456 54.2346 70.2913 54.1946C71.1875 53.0384 71.7894 51.7478 73.2019 51.1253C73.7375 50.889 74.2356 50.3753 74.5163 49.6803C74.715 49.1878 75.3606 48.8753 75.8075 48.4834C75.9513 48.3578 76.0981 48.2359 76.2763 48.0846L75.6644 47.6603C76.4344 46.8334 77.6487 46.3853 77.75 45.0353C77.7587 44.9146 77.9906 44.7928 78.1387 44.704C78.6475 44.4009 79.2344 44.189 79.665 43.8015C80.5106 43.0415 80.7869 41.779 81.8769 41.2115C82.03 39.8265 83.7412 39.2321 83.6556 37.7171C83.65 37.6178 83.7875 37.4778 83.8925 37.409C84.8356 36.7865 85.1856 35.5878 86.2156 35.0359C86.3988 34.9378 86.4531 34.5865 86.5525 34.3459C86.6981 33.9928 86.7844 33.6065 86.9775 33.2834C87.7 32.0753 88.1113 30.6934 89.0344 29.5978C89.09 29.5321 89.1069 29.4346 89.1438 29.3528L90.7431 25.8484C90.8837 25.5396 91.0156 25.2265 91.1625 24.9203C91.595 24.0203 92.085 23.1409 92.1356 22.1096C93.2669 20.704 93.2312 18.9809 93.3937 17.3259C93.45 16.7528 93.6663 16.1134 93.125 15.5759C92.9819 15.4334 93.0631 15.0703 93.0306 14.8096C92.9831 14.4265 92.9256 14.0446 92.8856 13.7578C91.0556 14.0903 89.3306 14.4071 87.6038 14.7146C86.935 14.834 86.4387 15.6228 85.6312 15.2203C85.59 15.1996 85.4475 15.2871 85.4175 15.354C85.0769 16.109 84.3244 16.0634 83.7081 16.1553C83.005 16.2603 82.415 16.434 81.9856 17.0403C81.8919 17.1728 81.6338 17.1884 81.4513 17.2578C81.1731 17.3634 80.8456 17.4071 80.6256 17.5846C79.4069 18.5696 78.2831 19.6596 76.92 20.4821C76.4131 20.7884 75.99 21.0628 75.2063 20.9209C75.5406 21.6759 75.0444 21.8559 74.6294 22.1065C73.3531 22.8784 72.4762 24.0471 71.58 25.1965C71.5275 25.264 71.4406 25.3046 71.3425 25.3784L70.6 25.3346Z" fill="white"/>
</g>
<defs>
<clipPath id="clip0_368_2955">
<rect width="100" height="100" fill="white"/>
</clipPath>
</defs>
</svg>
